%TF.GenerationSoftware,KiCad,Pcbnew,7.0.10*%
%TF.CreationDate,2024-03-05T00:47:09+05:30*%
%TF.ProjectId,ESP-DEVKIT-MINI,4553502d-4445-4564-9b49-542d4d494e49,rev?*%
%TF.SameCoordinates,Original*%
%TF.FileFunction,Drillmap*%
%TF.FilePolarity,Positive*%
%FSLAX45Y45*%
G04 Gerber Fmt 4.5, Leading zero omitted, Abs format (unit mm)*
G04 Created by KiCad (PCBNEW 7.0.10) date 2024-03-05 00:47:09*
%MOMM*%
%LPD*%
G01*
G04 APERTURE LIST*
%ADD10C,0.100000*%
%ADD11C,0.200000*%
G04 APERTURE END LIST*
D10*
X9144000Y-5588000D02*
X11684000Y-5588000D01*
X11684000Y-12443127D01*
X9144000Y-12443127D01*
X9144000Y-5588000D01*
X9334077Y-12436774D02*
X9429077Y-12436774D01*
X9429077Y-12279274D02*
X9429077Y-12436774D01*
X9514077Y-12279274D02*
X9514077Y-12436774D01*
X9514077Y-12436774D02*
X9904077Y-12436774D01*
X9904077Y-12279274D02*
X9904077Y-12436774D01*
X9989077Y-12279274D02*
X9989077Y-12436774D01*
X9989077Y-12436774D02*
X10084077Y-12436774D01*
X9514077Y-12279274D02*
G75*
G03*
X9429077Y-12279274I-42500J0D01*
G01*
X9989077Y-12279274D02*
G75*
G03*
X9904077Y-12279274I-42500J0D01*
G01*
D11*
D10*
X10794593Y-11851849D02*
X10854593Y-11911849D01*
X10854593Y-11851849D02*
X10794593Y-11911849D01*
X11372593Y-11851849D02*
X11432593Y-11911849D01*
X11432593Y-11851849D02*
X11372593Y-11911849D01*
X10115729Y-11880654D02*
G75*
G03*
X10015729Y-11880654I-50000J0D01*
G01*
X10015729Y-11880654D02*
G75*
G03*
X10115729Y-11880654I50000J0D01*
G01*
X10555729Y-11880654D02*
G75*
G03*
X10455729Y-11880654I-50000J0D01*
G01*
X10455729Y-11880654D02*
G75*
G03*
X10555729Y-11880654I50000J0D01*
G01*
D11*
X9399777Y-12759611D02*
X9399777Y-12559611D01*
X9399777Y-12559611D02*
X9447396Y-12559611D01*
X9447396Y-12559611D02*
X9475967Y-12569135D01*
X9475967Y-12569135D02*
X9495015Y-12588182D01*
X9495015Y-12588182D02*
X9504539Y-12607230D01*
X9504539Y-12607230D02*
X9514063Y-12645325D01*
X9514063Y-12645325D02*
X9514063Y-12673897D01*
X9514063Y-12673897D02*
X9504539Y-12711992D01*
X9504539Y-12711992D02*
X9495015Y-12731039D01*
X9495015Y-12731039D02*
X9475967Y-12750087D01*
X9475967Y-12750087D02*
X9447396Y-12759611D01*
X9447396Y-12759611D02*
X9399777Y-12759611D01*
X9599777Y-12759611D02*
X9599777Y-12626278D01*
X9599777Y-12664373D02*
X9609301Y-12645325D01*
X9609301Y-12645325D02*
X9618824Y-12635801D01*
X9618824Y-12635801D02*
X9637872Y-12626278D01*
X9637872Y-12626278D02*
X9656920Y-12626278D01*
X9723586Y-12759611D02*
X9723586Y-12626278D01*
X9723586Y-12559611D02*
X9714063Y-12569135D01*
X9714063Y-12569135D02*
X9723586Y-12578659D01*
X9723586Y-12578659D02*
X9733110Y-12569135D01*
X9733110Y-12569135D02*
X9723586Y-12559611D01*
X9723586Y-12559611D02*
X9723586Y-12578659D01*
X9847396Y-12759611D02*
X9828348Y-12750087D01*
X9828348Y-12750087D02*
X9818824Y-12731039D01*
X9818824Y-12731039D02*
X9818824Y-12559611D01*
X9952158Y-12759611D02*
X9933110Y-12750087D01*
X9933110Y-12750087D02*
X9923586Y-12731039D01*
X9923586Y-12731039D02*
X9923586Y-12559611D01*
X10180729Y-12759611D02*
X10180729Y-12559611D01*
X10180729Y-12559611D02*
X10247396Y-12702468D01*
X10247396Y-12702468D02*
X10314063Y-12559611D01*
X10314063Y-12559611D02*
X10314063Y-12759611D01*
X10495015Y-12759611D02*
X10495015Y-12654849D01*
X10495015Y-12654849D02*
X10485491Y-12635801D01*
X10485491Y-12635801D02*
X10466444Y-12626278D01*
X10466444Y-12626278D02*
X10428348Y-12626278D01*
X10428348Y-12626278D02*
X10409301Y-12635801D01*
X10495015Y-12750087D02*
X10475967Y-12759611D01*
X10475967Y-12759611D02*
X10428348Y-12759611D01*
X10428348Y-12759611D02*
X10409301Y-12750087D01*
X10409301Y-12750087D02*
X10399777Y-12731039D01*
X10399777Y-12731039D02*
X10399777Y-12711992D01*
X10399777Y-12711992D02*
X10409301Y-12692944D01*
X10409301Y-12692944D02*
X10428348Y-12683420D01*
X10428348Y-12683420D02*
X10475967Y-12683420D01*
X10475967Y-12683420D02*
X10495015Y-12673897D01*
X10590253Y-12626278D02*
X10590253Y-12826278D01*
X10590253Y-12635801D02*
X10609301Y-12626278D01*
X10609301Y-12626278D02*
X10647396Y-12626278D01*
X10647396Y-12626278D02*
X10666444Y-12635801D01*
X10666444Y-12635801D02*
X10675967Y-12645325D01*
X10675967Y-12645325D02*
X10685491Y-12664373D01*
X10685491Y-12664373D02*
X10685491Y-12721516D01*
X10685491Y-12721516D02*
X10675967Y-12740563D01*
X10675967Y-12740563D02*
X10666444Y-12750087D01*
X10666444Y-12750087D02*
X10647396Y-12759611D01*
X10647396Y-12759611D02*
X10609301Y-12759611D01*
X10609301Y-12759611D02*
X10590253Y-12750087D01*
X10771205Y-12740563D02*
X10780729Y-12750087D01*
X10780729Y-12750087D02*
X10771205Y-12759611D01*
X10771205Y-12759611D02*
X10761682Y-12750087D01*
X10761682Y-12750087D02*
X10771205Y-12740563D01*
X10771205Y-12740563D02*
X10771205Y-12759611D01*
X10771205Y-12635801D02*
X10780729Y-12645325D01*
X10780729Y-12645325D02*
X10771205Y-12654849D01*
X10771205Y-12654849D02*
X10761682Y-12645325D01*
X10761682Y-12645325D02*
X10771205Y-12635801D01*
X10771205Y-12635801D02*
X10771205Y-12654849D01*
D10*
X9079000Y-13058127D02*
X9139000Y-13118127D01*
X9139000Y-13058127D02*
X9079000Y-13118127D01*
D11*
X9437872Y-12979611D02*
X9456920Y-12979611D01*
X9456920Y-12979611D02*
X9475967Y-12989135D01*
X9475967Y-12989135D02*
X9485491Y-12998659D01*
X9485491Y-12998659D02*
X9495015Y-13017706D01*
X9495015Y-13017706D02*
X9504539Y-13055801D01*
X9504539Y-13055801D02*
X9504539Y-13103420D01*
X9504539Y-13103420D02*
X9495015Y-13141516D01*
X9495015Y-13141516D02*
X9485491Y-13160563D01*
X9485491Y-13160563D02*
X9475967Y-13170087D01*
X9475967Y-13170087D02*
X9456920Y-13179611D01*
X9456920Y-13179611D02*
X9437872Y-13179611D01*
X9437872Y-13179611D02*
X9418824Y-13170087D01*
X9418824Y-13170087D02*
X9409301Y-13160563D01*
X9409301Y-13160563D02*
X9399777Y-13141516D01*
X9399777Y-13141516D02*
X9390253Y-13103420D01*
X9390253Y-13103420D02*
X9390253Y-13055801D01*
X9390253Y-13055801D02*
X9399777Y-13017706D01*
X9399777Y-13017706D02*
X9409301Y-12998659D01*
X9409301Y-12998659D02*
X9418824Y-12989135D01*
X9418824Y-12989135D02*
X9437872Y-12979611D01*
X9590253Y-13160563D02*
X9599777Y-13170087D01*
X9599777Y-13170087D02*
X9590253Y-13179611D01*
X9590253Y-13179611D02*
X9580729Y-13170087D01*
X9580729Y-13170087D02*
X9590253Y-13160563D01*
X9590253Y-13160563D02*
X9590253Y-13179611D01*
X9771205Y-12979611D02*
X9733110Y-12979611D01*
X9733110Y-12979611D02*
X9714063Y-12989135D01*
X9714063Y-12989135D02*
X9704539Y-12998659D01*
X9704539Y-12998659D02*
X9685491Y-13027230D01*
X9685491Y-13027230D02*
X9675967Y-13065325D01*
X9675967Y-13065325D02*
X9675967Y-13141516D01*
X9675967Y-13141516D02*
X9685491Y-13160563D01*
X9685491Y-13160563D02*
X9695015Y-13170087D01*
X9695015Y-13170087D02*
X9714063Y-13179611D01*
X9714063Y-13179611D02*
X9752158Y-13179611D01*
X9752158Y-13179611D02*
X9771205Y-13170087D01*
X9771205Y-13170087D02*
X9780729Y-13160563D01*
X9780729Y-13160563D02*
X9790253Y-13141516D01*
X9790253Y-13141516D02*
X9790253Y-13093897D01*
X9790253Y-13093897D02*
X9780729Y-13074849D01*
X9780729Y-13074849D02*
X9771205Y-13065325D01*
X9771205Y-13065325D02*
X9752158Y-13055801D01*
X9752158Y-13055801D02*
X9714063Y-13055801D01*
X9714063Y-13055801D02*
X9695015Y-13065325D01*
X9695015Y-13065325D02*
X9685491Y-13074849D01*
X9685491Y-13074849D02*
X9675967Y-13093897D01*
X9914063Y-12979611D02*
X9933110Y-12979611D01*
X9933110Y-12979611D02*
X9952158Y-12989135D01*
X9952158Y-12989135D02*
X9961682Y-12998659D01*
X9961682Y-12998659D02*
X9971205Y-13017706D01*
X9971205Y-13017706D02*
X9980729Y-13055801D01*
X9980729Y-13055801D02*
X9980729Y-13103420D01*
X9980729Y-13103420D02*
X9971205Y-13141516D01*
X9971205Y-13141516D02*
X9961682Y-13160563D01*
X9961682Y-13160563D02*
X9952158Y-13170087D01*
X9952158Y-13170087D02*
X9933110Y-13179611D01*
X9933110Y-13179611D02*
X9914063Y-13179611D01*
X9914063Y-13179611D02*
X9895015Y-13170087D01*
X9895015Y-13170087D02*
X9885491Y-13160563D01*
X9885491Y-13160563D02*
X9875967Y-13141516D01*
X9875967Y-13141516D02*
X9866444Y-13103420D01*
X9866444Y-13103420D02*
X9866444Y-13055801D01*
X9866444Y-13055801D02*
X9875967Y-13017706D01*
X9875967Y-13017706D02*
X9885491Y-12998659D01*
X9885491Y-12998659D02*
X9895015Y-12989135D01*
X9895015Y-12989135D02*
X9914063Y-12979611D01*
X10104539Y-12979611D02*
X10123586Y-12979611D01*
X10123586Y-12979611D02*
X10142634Y-12989135D01*
X10142634Y-12989135D02*
X10152158Y-12998659D01*
X10152158Y-12998659D02*
X10161682Y-13017706D01*
X10161682Y-13017706D02*
X10171205Y-13055801D01*
X10171205Y-13055801D02*
X10171205Y-13103420D01*
X10171205Y-13103420D02*
X10161682Y-13141516D01*
X10161682Y-13141516D02*
X10152158Y-13160563D01*
X10152158Y-13160563D02*
X10142634Y-13170087D01*
X10142634Y-13170087D02*
X10123586Y-13179611D01*
X10123586Y-13179611D02*
X10104539Y-13179611D01*
X10104539Y-13179611D02*
X10085491Y-13170087D01*
X10085491Y-13170087D02*
X10075967Y-13160563D01*
X10075967Y-13160563D02*
X10066444Y-13141516D01*
X10066444Y-13141516D02*
X10056920Y-13103420D01*
X10056920Y-13103420D02*
X10056920Y-13055801D01*
X10056920Y-13055801D02*
X10066444Y-13017706D01*
X10066444Y-13017706D02*
X10075967Y-12998659D01*
X10075967Y-12998659D02*
X10085491Y-12989135D01*
X10085491Y-12989135D02*
X10104539Y-12979611D01*
X10256920Y-13179611D02*
X10256920Y-13046278D01*
X10256920Y-13065325D02*
X10266444Y-13055801D01*
X10266444Y-13055801D02*
X10285491Y-13046278D01*
X10285491Y-13046278D02*
X10314063Y-13046278D01*
X10314063Y-13046278D02*
X10333110Y-13055801D01*
X10333110Y-13055801D02*
X10342634Y-13074849D01*
X10342634Y-13074849D02*
X10342634Y-13179611D01*
X10342634Y-13074849D02*
X10352158Y-13055801D01*
X10352158Y-13055801D02*
X10371205Y-13046278D01*
X10371205Y-13046278D02*
X10399777Y-13046278D01*
X10399777Y-13046278D02*
X10418825Y-13055801D01*
X10418825Y-13055801D02*
X10428348Y-13074849D01*
X10428348Y-13074849D02*
X10428348Y-13179611D01*
X10523586Y-13179611D02*
X10523586Y-13046278D01*
X10523586Y-13065325D02*
X10533110Y-13055801D01*
X10533110Y-13055801D02*
X10552158Y-13046278D01*
X10552158Y-13046278D02*
X10580729Y-13046278D01*
X10580729Y-13046278D02*
X10599777Y-13055801D01*
X10599777Y-13055801D02*
X10609301Y-13074849D01*
X10609301Y-13074849D02*
X10609301Y-13179611D01*
X10609301Y-13074849D02*
X10618825Y-13055801D01*
X10618825Y-13055801D02*
X10637872Y-13046278D01*
X10637872Y-13046278D02*
X10666444Y-13046278D01*
X10666444Y-13046278D02*
X10685491Y-13055801D01*
X10685491Y-13055801D02*
X10695015Y-13074849D01*
X10695015Y-13074849D02*
X10695015Y-13179611D01*
X11085491Y-12970087D02*
X10914063Y-13227230D01*
X11342634Y-12979611D02*
X11361682Y-12979611D01*
X11361682Y-12979611D02*
X11380729Y-12989135D01*
X11380729Y-12989135D02*
X11390253Y-12998659D01*
X11390253Y-12998659D02*
X11399777Y-13017706D01*
X11399777Y-13017706D02*
X11409301Y-13055801D01*
X11409301Y-13055801D02*
X11409301Y-13103420D01*
X11409301Y-13103420D02*
X11399777Y-13141516D01*
X11399777Y-13141516D02*
X11390253Y-13160563D01*
X11390253Y-13160563D02*
X11380729Y-13170087D01*
X11380729Y-13170087D02*
X11361682Y-13179611D01*
X11361682Y-13179611D02*
X11342634Y-13179611D01*
X11342634Y-13179611D02*
X11323586Y-13170087D01*
X11323586Y-13170087D02*
X11314063Y-13160563D01*
X11314063Y-13160563D02*
X11304539Y-13141516D01*
X11304539Y-13141516D02*
X11295015Y-13103420D01*
X11295015Y-13103420D02*
X11295015Y-13055801D01*
X11295015Y-13055801D02*
X11304539Y-13017706D01*
X11304539Y-13017706D02*
X11314063Y-12998659D01*
X11314063Y-12998659D02*
X11323586Y-12989135D01*
X11323586Y-12989135D02*
X11342634Y-12979611D01*
X11495015Y-13160563D02*
X11504539Y-13170087D01*
X11504539Y-13170087D02*
X11495015Y-13179611D01*
X11495015Y-13179611D02*
X11485491Y-13170087D01*
X11485491Y-13170087D02*
X11495015Y-13160563D01*
X11495015Y-13160563D02*
X11495015Y-13179611D01*
X11628348Y-12979611D02*
X11647396Y-12979611D01*
X11647396Y-12979611D02*
X11666444Y-12989135D01*
X11666444Y-12989135D02*
X11675967Y-12998659D01*
X11675967Y-12998659D02*
X11685491Y-13017706D01*
X11685491Y-13017706D02*
X11695015Y-13055801D01*
X11695015Y-13055801D02*
X11695015Y-13103420D01*
X11695015Y-13103420D02*
X11685491Y-13141516D01*
X11685491Y-13141516D02*
X11675967Y-13160563D01*
X11675967Y-13160563D02*
X11666444Y-13170087D01*
X11666444Y-13170087D02*
X11647396Y-13179611D01*
X11647396Y-13179611D02*
X11628348Y-13179611D01*
X11628348Y-13179611D02*
X11609301Y-13170087D01*
X11609301Y-13170087D02*
X11599777Y-13160563D01*
X11599777Y-13160563D02*
X11590253Y-13141516D01*
X11590253Y-13141516D02*
X11580729Y-13103420D01*
X11580729Y-13103420D02*
X11580729Y-13055801D01*
X11580729Y-13055801D02*
X11590253Y-13017706D01*
X11590253Y-13017706D02*
X11599777Y-12998659D01*
X11599777Y-12998659D02*
X11609301Y-12989135D01*
X11609301Y-12989135D02*
X11628348Y-12979611D01*
X11771206Y-12998659D02*
X11780729Y-12989135D01*
X11780729Y-12989135D02*
X11799777Y-12979611D01*
X11799777Y-12979611D02*
X11847396Y-12979611D01*
X11847396Y-12979611D02*
X11866444Y-12989135D01*
X11866444Y-12989135D02*
X11875967Y-12998659D01*
X11875967Y-12998659D02*
X11885491Y-13017706D01*
X11885491Y-13017706D02*
X11885491Y-13036754D01*
X11885491Y-13036754D02*
X11875967Y-13065325D01*
X11875967Y-13065325D02*
X11761682Y-13179611D01*
X11761682Y-13179611D02*
X11885491Y-13179611D01*
X11952158Y-12979611D02*
X12075967Y-12979611D01*
X12075967Y-12979611D02*
X12009301Y-13055801D01*
X12009301Y-13055801D02*
X12037872Y-13055801D01*
X12037872Y-13055801D02*
X12056920Y-13065325D01*
X12056920Y-13065325D02*
X12066444Y-13074849D01*
X12066444Y-13074849D02*
X12075967Y-13093897D01*
X12075967Y-13093897D02*
X12075967Y-13141516D01*
X12075967Y-13141516D02*
X12066444Y-13160563D01*
X12066444Y-13160563D02*
X12056920Y-13170087D01*
X12056920Y-13170087D02*
X12037872Y-13179611D01*
X12037872Y-13179611D02*
X11980729Y-13179611D01*
X11980729Y-13179611D02*
X11961682Y-13170087D01*
X11961682Y-13170087D02*
X11952158Y-13160563D01*
X12247396Y-12979611D02*
X12209301Y-12979611D01*
X12209301Y-12979611D02*
X12190253Y-12989135D01*
X12190253Y-12989135D02*
X12180729Y-12998659D01*
X12180729Y-12998659D02*
X12161682Y-13027230D01*
X12161682Y-13027230D02*
X12152158Y-13065325D01*
X12152158Y-13065325D02*
X12152158Y-13141516D01*
X12152158Y-13141516D02*
X12161682Y-13160563D01*
X12161682Y-13160563D02*
X12171206Y-13170087D01*
X12171206Y-13170087D02*
X12190253Y-13179611D01*
X12190253Y-13179611D02*
X12228348Y-13179611D01*
X12228348Y-13179611D02*
X12247396Y-13170087D01*
X12247396Y-13170087D02*
X12256920Y-13160563D01*
X12256920Y-13160563D02*
X12266444Y-13141516D01*
X12266444Y-13141516D02*
X12266444Y-13093897D01*
X12266444Y-13093897D02*
X12256920Y-13074849D01*
X12256920Y-13074849D02*
X12247396Y-13065325D01*
X12247396Y-13065325D02*
X12228348Y-13055801D01*
X12228348Y-13055801D02*
X12190253Y-13055801D01*
X12190253Y-13055801D02*
X12171206Y-13065325D01*
X12171206Y-13065325D02*
X12161682Y-13074849D01*
X12161682Y-13074849D02*
X12152158Y-13093897D01*
X12342634Y-12979611D02*
X12342634Y-13017706D01*
X12418825Y-12979611D02*
X12418825Y-13017706D01*
X12714063Y-13255801D02*
X12704539Y-13246278D01*
X12704539Y-13246278D02*
X12685491Y-13217706D01*
X12685491Y-13217706D02*
X12675968Y-13198659D01*
X12675968Y-13198659D02*
X12666444Y-13170087D01*
X12666444Y-13170087D02*
X12656920Y-13122468D01*
X12656920Y-13122468D02*
X12656920Y-13084373D01*
X12656920Y-13084373D02*
X12666444Y-13036754D01*
X12666444Y-13036754D02*
X12675968Y-13008182D01*
X12675968Y-13008182D02*
X12685491Y-12989135D01*
X12685491Y-12989135D02*
X12704539Y-12960563D01*
X12704539Y-12960563D02*
X12714063Y-12951039D01*
X12780729Y-12998659D02*
X12790253Y-12989135D01*
X12790253Y-12989135D02*
X12809301Y-12979611D01*
X12809301Y-12979611D02*
X12856920Y-12979611D01*
X12856920Y-12979611D02*
X12875968Y-12989135D01*
X12875968Y-12989135D02*
X12885491Y-12998659D01*
X12885491Y-12998659D02*
X12895015Y-13017706D01*
X12895015Y-13017706D02*
X12895015Y-13036754D01*
X12895015Y-13036754D02*
X12885491Y-13065325D01*
X12885491Y-13065325D02*
X12771206Y-13179611D01*
X12771206Y-13179611D02*
X12895015Y-13179611D01*
X13133110Y-13179611D02*
X13133110Y-12979611D01*
X13218825Y-13179611D02*
X13218825Y-13074849D01*
X13218825Y-13074849D02*
X13209301Y-13055801D01*
X13209301Y-13055801D02*
X13190253Y-13046278D01*
X13190253Y-13046278D02*
X13161682Y-13046278D01*
X13161682Y-13046278D02*
X13142634Y-13055801D01*
X13142634Y-13055801D02*
X13133110Y-13065325D01*
X13342634Y-13179611D02*
X13323587Y-13170087D01*
X13323587Y-13170087D02*
X13314063Y-13160563D01*
X13314063Y-13160563D02*
X13304539Y-13141516D01*
X13304539Y-13141516D02*
X13304539Y-13084373D01*
X13304539Y-13084373D02*
X13314063Y-13065325D01*
X13314063Y-13065325D02*
X13323587Y-13055801D01*
X13323587Y-13055801D02*
X13342634Y-13046278D01*
X13342634Y-13046278D02*
X13371206Y-13046278D01*
X13371206Y-13046278D02*
X13390253Y-13055801D01*
X13390253Y-13055801D02*
X13399777Y-13065325D01*
X13399777Y-13065325D02*
X13409301Y-13084373D01*
X13409301Y-13084373D02*
X13409301Y-13141516D01*
X13409301Y-13141516D02*
X13399777Y-13160563D01*
X13399777Y-13160563D02*
X13390253Y-13170087D01*
X13390253Y-13170087D02*
X13371206Y-13179611D01*
X13371206Y-13179611D02*
X13342634Y-13179611D01*
X13523587Y-13179611D02*
X13504539Y-13170087D01*
X13504539Y-13170087D02*
X13495015Y-13151039D01*
X13495015Y-13151039D02*
X13495015Y-12979611D01*
X13675968Y-13170087D02*
X13656920Y-13179611D01*
X13656920Y-13179611D02*
X13618825Y-13179611D01*
X13618825Y-13179611D02*
X13599777Y-13170087D01*
X13599777Y-13170087D02*
X13590253Y-13151039D01*
X13590253Y-13151039D02*
X13590253Y-13074849D01*
X13590253Y-13074849D02*
X13599777Y-13055801D01*
X13599777Y-13055801D02*
X13618825Y-13046278D01*
X13618825Y-13046278D02*
X13656920Y-13046278D01*
X13656920Y-13046278D02*
X13675968Y-13055801D01*
X13675968Y-13055801D02*
X13685491Y-13074849D01*
X13685491Y-13074849D02*
X13685491Y-13093897D01*
X13685491Y-13093897D02*
X13590253Y-13112944D01*
X13761682Y-13170087D02*
X13780730Y-13179611D01*
X13780730Y-13179611D02*
X13818825Y-13179611D01*
X13818825Y-13179611D02*
X13837872Y-13170087D01*
X13837872Y-13170087D02*
X13847396Y-13151039D01*
X13847396Y-13151039D02*
X13847396Y-13141516D01*
X13847396Y-13141516D02*
X13837872Y-13122468D01*
X13837872Y-13122468D02*
X13818825Y-13112944D01*
X13818825Y-13112944D02*
X13790253Y-13112944D01*
X13790253Y-13112944D02*
X13771206Y-13103420D01*
X13771206Y-13103420D02*
X13761682Y-13084373D01*
X13761682Y-13084373D02*
X13761682Y-13074849D01*
X13761682Y-13074849D02*
X13771206Y-13055801D01*
X13771206Y-13055801D02*
X13790253Y-13046278D01*
X13790253Y-13046278D02*
X13818825Y-13046278D01*
X13818825Y-13046278D02*
X13837872Y-13055801D01*
X13914063Y-13255801D02*
X13923587Y-13246278D01*
X13923587Y-13246278D02*
X13942634Y-13217706D01*
X13942634Y-13217706D02*
X13952158Y-13198659D01*
X13952158Y-13198659D02*
X13961682Y-13170087D01*
X13961682Y-13170087D02*
X13971206Y-13122468D01*
X13971206Y-13122468D02*
X13971206Y-13084373D01*
X13971206Y-13084373D02*
X13961682Y-13036754D01*
X13961682Y-13036754D02*
X13952158Y-13008182D01*
X13952158Y-13008182D02*
X13942634Y-12989135D01*
X13942634Y-12989135D02*
X13923587Y-12960563D01*
X13923587Y-12960563D02*
X13914063Y-12951039D01*
X14275968Y-13255801D02*
X14266444Y-13246278D01*
X14266444Y-13246278D02*
X14247396Y-13217706D01*
X14247396Y-13217706D02*
X14237872Y-13198659D01*
X14237872Y-13198659D02*
X14228349Y-13170087D01*
X14228349Y-13170087D02*
X14218825Y-13122468D01*
X14218825Y-13122468D02*
X14218825Y-13084373D01*
X14218825Y-13084373D02*
X14228349Y-13036754D01*
X14228349Y-13036754D02*
X14237872Y-13008182D01*
X14237872Y-13008182D02*
X14247396Y-12989135D01*
X14247396Y-12989135D02*
X14266444Y-12960563D01*
X14266444Y-12960563D02*
X14275968Y-12951039D01*
X14352158Y-13046278D02*
X14352158Y-13179611D01*
X14352158Y-13065325D02*
X14361682Y-13055801D01*
X14361682Y-13055801D02*
X14380730Y-13046278D01*
X14380730Y-13046278D02*
X14409301Y-13046278D01*
X14409301Y-13046278D02*
X14428349Y-13055801D01*
X14428349Y-13055801D02*
X14437872Y-13074849D01*
X14437872Y-13074849D02*
X14437872Y-13179611D01*
X14561682Y-13179611D02*
X14542634Y-13170087D01*
X14542634Y-13170087D02*
X14533111Y-13160563D01*
X14533111Y-13160563D02*
X14523587Y-13141516D01*
X14523587Y-13141516D02*
X14523587Y-13084373D01*
X14523587Y-13084373D02*
X14533111Y-13065325D01*
X14533111Y-13065325D02*
X14542634Y-13055801D01*
X14542634Y-13055801D02*
X14561682Y-13046278D01*
X14561682Y-13046278D02*
X14590253Y-13046278D01*
X14590253Y-13046278D02*
X14609301Y-13055801D01*
X14609301Y-13055801D02*
X14618825Y-13065325D01*
X14618825Y-13065325D02*
X14628349Y-13084373D01*
X14628349Y-13084373D02*
X14628349Y-13141516D01*
X14628349Y-13141516D02*
X14618825Y-13160563D01*
X14618825Y-13160563D02*
X14609301Y-13170087D01*
X14609301Y-13170087D02*
X14590253Y-13179611D01*
X14590253Y-13179611D02*
X14561682Y-13179611D01*
X14685492Y-13046278D02*
X14761682Y-13046278D01*
X14714063Y-12979611D02*
X14714063Y-13151039D01*
X14714063Y-13151039D02*
X14723587Y-13170087D01*
X14723587Y-13170087D02*
X14742634Y-13179611D01*
X14742634Y-13179611D02*
X14761682Y-13179611D01*
X14980730Y-13046278D02*
X14980730Y-13246278D01*
X14980730Y-13055801D02*
X14999777Y-13046278D01*
X14999777Y-13046278D02*
X15037873Y-13046278D01*
X15037873Y-13046278D02*
X15056920Y-13055801D01*
X15056920Y-13055801D02*
X15066444Y-13065325D01*
X15066444Y-13065325D02*
X15075968Y-13084373D01*
X15075968Y-13084373D02*
X15075968Y-13141516D01*
X15075968Y-13141516D02*
X15066444Y-13160563D01*
X15066444Y-13160563D02*
X15056920Y-13170087D01*
X15056920Y-13170087D02*
X15037873Y-13179611D01*
X15037873Y-13179611D02*
X14999777Y-13179611D01*
X14999777Y-13179611D02*
X14980730Y-13170087D01*
X15190253Y-13179611D02*
X15171206Y-13170087D01*
X15171206Y-13170087D02*
X15161682Y-13151039D01*
X15161682Y-13151039D02*
X15161682Y-12979611D01*
X15352158Y-13179611D02*
X15352158Y-13074849D01*
X15352158Y-13074849D02*
X15342634Y-13055801D01*
X15342634Y-13055801D02*
X15323587Y-13046278D01*
X15323587Y-13046278D02*
X15285492Y-13046278D01*
X15285492Y-13046278D02*
X15266444Y-13055801D01*
X15352158Y-13170087D02*
X15333111Y-13179611D01*
X15333111Y-13179611D02*
X15285492Y-13179611D01*
X15285492Y-13179611D02*
X15266444Y-13170087D01*
X15266444Y-13170087D02*
X15256920Y-13151039D01*
X15256920Y-13151039D02*
X15256920Y-13131992D01*
X15256920Y-13131992D02*
X15266444Y-13112944D01*
X15266444Y-13112944D02*
X15285492Y-13103420D01*
X15285492Y-13103420D02*
X15333111Y-13103420D01*
X15333111Y-13103420D02*
X15352158Y-13093897D01*
X15418825Y-13046278D02*
X15495015Y-13046278D01*
X15447396Y-12979611D02*
X15447396Y-13151039D01*
X15447396Y-13151039D02*
X15456920Y-13170087D01*
X15456920Y-13170087D02*
X15475968Y-13179611D01*
X15475968Y-13179611D02*
X15495015Y-13179611D01*
X15637873Y-13170087D02*
X15618825Y-13179611D01*
X15618825Y-13179611D02*
X15580730Y-13179611D01*
X15580730Y-13179611D02*
X15561682Y-13170087D01*
X15561682Y-13170087D02*
X15552158Y-13151039D01*
X15552158Y-13151039D02*
X15552158Y-13074849D01*
X15552158Y-13074849D02*
X15561682Y-13055801D01*
X15561682Y-13055801D02*
X15580730Y-13046278D01*
X15580730Y-13046278D02*
X15618825Y-13046278D01*
X15618825Y-13046278D02*
X15637873Y-13055801D01*
X15637873Y-13055801D02*
X15647396Y-13074849D01*
X15647396Y-13074849D02*
X15647396Y-13093897D01*
X15647396Y-13093897D02*
X15552158Y-13112944D01*
X15818825Y-13179611D02*
X15818825Y-12979611D01*
X15818825Y-13170087D02*
X15799777Y-13179611D01*
X15799777Y-13179611D02*
X15761682Y-13179611D01*
X15761682Y-13179611D02*
X15742634Y-13170087D01*
X15742634Y-13170087D02*
X15733111Y-13160563D01*
X15733111Y-13160563D02*
X15723587Y-13141516D01*
X15723587Y-13141516D02*
X15723587Y-13084373D01*
X15723587Y-13084373D02*
X15733111Y-13065325D01*
X15733111Y-13065325D02*
X15742634Y-13055801D01*
X15742634Y-13055801D02*
X15761682Y-13046278D01*
X15761682Y-13046278D02*
X15799777Y-13046278D01*
X15799777Y-13046278D02*
X15818825Y-13055801D01*
X15895015Y-13255801D02*
X15904539Y-13246278D01*
X15904539Y-13246278D02*
X15923587Y-13217706D01*
X15923587Y-13217706D02*
X15933111Y-13198659D01*
X15933111Y-13198659D02*
X15942634Y-13170087D01*
X15942634Y-13170087D02*
X15952158Y-13122468D01*
X15952158Y-13122468D02*
X15952158Y-13084373D01*
X15952158Y-13084373D02*
X15942634Y-13036754D01*
X15942634Y-13036754D02*
X15933111Y-13008182D01*
X15933111Y-13008182D02*
X15923587Y-12989135D01*
X15923587Y-12989135D02*
X15904539Y-12960563D01*
X15904539Y-12960563D02*
X15895015Y-12951039D01*
D10*
X9139000Y-13352127D02*
G75*
G03*
X9039000Y-13352127I-50000J0D01*
G01*
X9039000Y-13352127D02*
G75*
G03*
X9139000Y-13352127I50000J0D01*
G01*
D11*
X9504539Y-13443611D02*
X9390253Y-13443611D01*
X9447396Y-13443611D02*
X9447396Y-13243611D01*
X9447396Y-13243611D02*
X9428348Y-13272182D01*
X9428348Y-13272182D02*
X9409301Y-13291230D01*
X9409301Y-13291230D02*
X9390253Y-13300754D01*
X9590253Y-13424563D02*
X9599777Y-13434087D01*
X9599777Y-13434087D02*
X9590253Y-13443611D01*
X9590253Y-13443611D02*
X9580729Y-13434087D01*
X9580729Y-13434087D02*
X9590253Y-13424563D01*
X9590253Y-13424563D02*
X9590253Y-13443611D01*
X9723586Y-13243611D02*
X9742634Y-13243611D01*
X9742634Y-13243611D02*
X9761682Y-13253135D01*
X9761682Y-13253135D02*
X9771205Y-13262659D01*
X9771205Y-13262659D02*
X9780729Y-13281706D01*
X9780729Y-13281706D02*
X9790253Y-13319801D01*
X9790253Y-13319801D02*
X9790253Y-13367420D01*
X9790253Y-13367420D02*
X9780729Y-13405516D01*
X9780729Y-13405516D02*
X9771205Y-13424563D01*
X9771205Y-13424563D02*
X9761682Y-13434087D01*
X9761682Y-13434087D02*
X9742634Y-13443611D01*
X9742634Y-13443611D02*
X9723586Y-13443611D01*
X9723586Y-13443611D02*
X9704539Y-13434087D01*
X9704539Y-13434087D02*
X9695015Y-13424563D01*
X9695015Y-13424563D02*
X9685491Y-13405516D01*
X9685491Y-13405516D02*
X9675967Y-13367420D01*
X9675967Y-13367420D02*
X9675967Y-13319801D01*
X9675967Y-13319801D02*
X9685491Y-13281706D01*
X9685491Y-13281706D02*
X9695015Y-13262659D01*
X9695015Y-13262659D02*
X9704539Y-13253135D01*
X9704539Y-13253135D02*
X9723586Y-13243611D01*
X9914063Y-13243611D02*
X9933110Y-13243611D01*
X9933110Y-13243611D02*
X9952158Y-13253135D01*
X9952158Y-13253135D02*
X9961682Y-13262659D01*
X9961682Y-13262659D02*
X9971205Y-13281706D01*
X9971205Y-13281706D02*
X9980729Y-13319801D01*
X9980729Y-13319801D02*
X9980729Y-13367420D01*
X9980729Y-13367420D02*
X9971205Y-13405516D01*
X9971205Y-13405516D02*
X9961682Y-13424563D01*
X9961682Y-13424563D02*
X9952158Y-13434087D01*
X9952158Y-13434087D02*
X9933110Y-13443611D01*
X9933110Y-13443611D02*
X9914063Y-13443611D01*
X9914063Y-13443611D02*
X9895015Y-13434087D01*
X9895015Y-13434087D02*
X9885491Y-13424563D01*
X9885491Y-13424563D02*
X9875967Y-13405516D01*
X9875967Y-13405516D02*
X9866444Y-13367420D01*
X9866444Y-13367420D02*
X9866444Y-13319801D01*
X9866444Y-13319801D02*
X9875967Y-13281706D01*
X9875967Y-13281706D02*
X9885491Y-13262659D01*
X9885491Y-13262659D02*
X9895015Y-13253135D01*
X9895015Y-13253135D02*
X9914063Y-13243611D01*
X10104539Y-13243611D02*
X10123586Y-13243611D01*
X10123586Y-13243611D02*
X10142634Y-13253135D01*
X10142634Y-13253135D02*
X10152158Y-13262659D01*
X10152158Y-13262659D02*
X10161682Y-13281706D01*
X10161682Y-13281706D02*
X10171205Y-13319801D01*
X10171205Y-13319801D02*
X10171205Y-13367420D01*
X10171205Y-13367420D02*
X10161682Y-13405516D01*
X10161682Y-13405516D02*
X10152158Y-13424563D01*
X10152158Y-13424563D02*
X10142634Y-13434087D01*
X10142634Y-13434087D02*
X10123586Y-13443611D01*
X10123586Y-13443611D02*
X10104539Y-13443611D01*
X10104539Y-13443611D02*
X10085491Y-13434087D01*
X10085491Y-13434087D02*
X10075967Y-13424563D01*
X10075967Y-13424563D02*
X10066444Y-13405516D01*
X10066444Y-13405516D02*
X10056920Y-13367420D01*
X10056920Y-13367420D02*
X10056920Y-13319801D01*
X10056920Y-13319801D02*
X10066444Y-13281706D01*
X10066444Y-13281706D02*
X10075967Y-13262659D01*
X10075967Y-13262659D02*
X10085491Y-13253135D01*
X10085491Y-13253135D02*
X10104539Y-13243611D01*
X10256920Y-13443611D02*
X10256920Y-13310278D01*
X10256920Y-13329325D02*
X10266444Y-13319801D01*
X10266444Y-13319801D02*
X10285491Y-13310278D01*
X10285491Y-13310278D02*
X10314063Y-13310278D01*
X10314063Y-13310278D02*
X10333110Y-13319801D01*
X10333110Y-13319801D02*
X10342634Y-13338849D01*
X10342634Y-13338849D02*
X10342634Y-13443611D01*
X10342634Y-13338849D02*
X10352158Y-13319801D01*
X10352158Y-13319801D02*
X10371205Y-13310278D01*
X10371205Y-13310278D02*
X10399777Y-13310278D01*
X10399777Y-13310278D02*
X10418825Y-13319801D01*
X10418825Y-13319801D02*
X10428348Y-13338849D01*
X10428348Y-13338849D02*
X10428348Y-13443611D01*
X10523586Y-13443611D02*
X10523586Y-13310278D01*
X10523586Y-13329325D02*
X10533110Y-13319801D01*
X10533110Y-13319801D02*
X10552158Y-13310278D01*
X10552158Y-13310278D02*
X10580729Y-13310278D01*
X10580729Y-13310278D02*
X10599777Y-13319801D01*
X10599777Y-13319801D02*
X10609301Y-13338849D01*
X10609301Y-13338849D02*
X10609301Y-13443611D01*
X10609301Y-13338849D02*
X10618825Y-13319801D01*
X10618825Y-13319801D02*
X10637872Y-13310278D01*
X10637872Y-13310278D02*
X10666444Y-13310278D01*
X10666444Y-13310278D02*
X10685491Y-13319801D01*
X10685491Y-13319801D02*
X10695015Y-13338849D01*
X10695015Y-13338849D02*
X10695015Y-13443611D01*
X11085491Y-13234087D02*
X10914063Y-13491230D01*
X11342634Y-13243611D02*
X11361682Y-13243611D01*
X11361682Y-13243611D02*
X11380729Y-13253135D01*
X11380729Y-13253135D02*
X11390253Y-13262659D01*
X11390253Y-13262659D02*
X11399777Y-13281706D01*
X11399777Y-13281706D02*
X11409301Y-13319801D01*
X11409301Y-13319801D02*
X11409301Y-13367420D01*
X11409301Y-13367420D02*
X11399777Y-13405516D01*
X11399777Y-13405516D02*
X11390253Y-13424563D01*
X11390253Y-13424563D02*
X11380729Y-13434087D01*
X11380729Y-13434087D02*
X11361682Y-13443611D01*
X11361682Y-13443611D02*
X11342634Y-13443611D01*
X11342634Y-13443611D02*
X11323586Y-13434087D01*
X11323586Y-13434087D02*
X11314063Y-13424563D01*
X11314063Y-13424563D02*
X11304539Y-13405516D01*
X11304539Y-13405516D02*
X11295015Y-13367420D01*
X11295015Y-13367420D02*
X11295015Y-13319801D01*
X11295015Y-13319801D02*
X11304539Y-13281706D01*
X11304539Y-13281706D02*
X11314063Y-13262659D01*
X11314063Y-13262659D02*
X11323586Y-13253135D01*
X11323586Y-13253135D02*
X11342634Y-13243611D01*
X11495015Y-13424563D02*
X11504539Y-13434087D01*
X11504539Y-13434087D02*
X11495015Y-13443611D01*
X11495015Y-13443611D02*
X11485491Y-13434087D01*
X11485491Y-13434087D02*
X11495015Y-13424563D01*
X11495015Y-13424563D02*
X11495015Y-13443611D01*
X11628348Y-13243611D02*
X11647396Y-13243611D01*
X11647396Y-13243611D02*
X11666444Y-13253135D01*
X11666444Y-13253135D02*
X11675967Y-13262659D01*
X11675967Y-13262659D02*
X11685491Y-13281706D01*
X11685491Y-13281706D02*
X11695015Y-13319801D01*
X11695015Y-13319801D02*
X11695015Y-13367420D01*
X11695015Y-13367420D02*
X11685491Y-13405516D01*
X11685491Y-13405516D02*
X11675967Y-13424563D01*
X11675967Y-13424563D02*
X11666444Y-13434087D01*
X11666444Y-13434087D02*
X11647396Y-13443611D01*
X11647396Y-13443611D02*
X11628348Y-13443611D01*
X11628348Y-13443611D02*
X11609301Y-13434087D01*
X11609301Y-13434087D02*
X11599777Y-13424563D01*
X11599777Y-13424563D02*
X11590253Y-13405516D01*
X11590253Y-13405516D02*
X11580729Y-13367420D01*
X11580729Y-13367420D02*
X11580729Y-13319801D01*
X11580729Y-13319801D02*
X11590253Y-13281706D01*
X11590253Y-13281706D02*
X11599777Y-13262659D01*
X11599777Y-13262659D02*
X11609301Y-13253135D01*
X11609301Y-13253135D02*
X11628348Y-13243611D01*
X11761682Y-13243611D02*
X11885491Y-13243611D01*
X11885491Y-13243611D02*
X11818825Y-13319801D01*
X11818825Y-13319801D02*
X11847396Y-13319801D01*
X11847396Y-13319801D02*
X11866444Y-13329325D01*
X11866444Y-13329325D02*
X11875967Y-13338849D01*
X11875967Y-13338849D02*
X11885491Y-13357897D01*
X11885491Y-13357897D02*
X11885491Y-13405516D01*
X11885491Y-13405516D02*
X11875967Y-13424563D01*
X11875967Y-13424563D02*
X11866444Y-13434087D01*
X11866444Y-13434087D02*
X11847396Y-13443611D01*
X11847396Y-13443611D02*
X11790253Y-13443611D01*
X11790253Y-13443611D02*
X11771206Y-13434087D01*
X11771206Y-13434087D02*
X11761682Y-13424563D01*
X11980729Y-13443611D02*
X12018825Y-13443611D01*
X12018825Y-13443611D02*
X12037872Y-13434087D01*
X12037872Y-13434087D02*
X12047396Y-13424563D01*
X12047396Y-13424563D02*
X12066444Y-13395992D01*
X12066444Y-13395992D02*
X12075967Y-13357897D01*
X12075967Y-13357897D02*
X12075967Y-13281706D01*
X12075967Y-13281706D02*
X12066444Y-13262659D01*
X12066444Y-13262659D02*
X12056920Y-13253135D01*
X12056920Y-13253135D02*
X12037872Y-13243611D01*
X12037872Y-13243611D02*
X11999777Y-13243611D01*
X11999777Y-13243611D02*
X11980729Y-13253135D01*
X11980729Y-13253135D02*
X11971206Y-13262659D01*
X11971206Y-13262659D02*
X11961682Y-13281706D01*
X11961682Y-13281706D02*
X11961682Y-13329325D01*
X11961682Y-13329325D02*
X11971206Y-13348373D01*
X11971206Y-13348373D02*
X11980729Y-13357897D01*
X11980729Y-13357897D02*
X11999777Y-13367420D01*
X11999777Y-13367420D02*
X12037872Y-13367420D01*
X12037872Y-13367420D02*
X12056920Y-13357897D01*
X12056920Y-13357897D02*
X12066444Y-13348373D01*
X12066444Y-13348373D02*
X12075967Y-13329325D01*
X12247396Y-13310278D02*
X12247396Y-13443611D01*
X12199777Y-13234087D02*
X12152158Y-13376944D01*
X12152158Y-13376944D02*
X12275967Y-13376944D01*
X12342634Y-13243611D02*
X12342634Y-13281706D01*
X12418825Y-13243611D02*
X12418825Y-13281706D01*
X12714063Y-13519801D02*
X12704539Y-13510278D01*
X12704539Y-13510278D02*
X12685491Y-13481706D01*
X12685491Y-13481706D02*
X12675968Y-13462659D01*
X12675968Y-13462659D02*
X12666444Y-13434087D01*
X12666444Y-13434087D02*
X12656920Y-13386468D01*
X12656920Y-13386468D02*
X12656920Y-13348373D01*
X12656920Y-13348373D02*
X12666444Y-13300754D01*
X12666444Y-13300754D02*
X12675968Y-13272182D01*
X12675968Y-13272182D02*
X12685491Y-13253135D01*
X12685491Y-13253135D02*
X12704539Y-13224563D01*
X12704539Y-13224563D02*
X12714063Y-13215039D01*
X12780729Y-13262659D02*
X12790253Y-13253135D01*
X12790253Y-13253135D02*
X12809301Y-13243611D01*
X12809301Y-13243611D02*
X12856920Y-13243611D01*
X12856920Y-13243611D02*
X12875968Y-13253135D01*
X12875968Y-13253135D02*
X12885491Y-13262659D01*
X12885491Y-13262659D02*
X12895015Y-13281706D01*
X12895015Y-13281706D02*
X12895015Y-13300754D01*
X12895015Y-13300754D02*
X12885491Y-13329325D01*
X12885491Y-13329325D02*
X12771206Y-13443611D01*
X12771206Y-13443611D02*
X12895015Y-13443611D01*
X13133110Y-13443611D02*
X13133110Y-13243611D01*
X13218825Y-13443611D02*
X13218825Y-13338849D01*
X13218825Y-13338849D02*
X13209301Y-13319801D01*
X13209301Y-13319801D02*
X13190253Y-13310278D01*
X13190253Y-13310278D02*
X13161682Y-13310278D01*
X13161682Y-13310278D02*
X13142634Y-13319801D01*
X13142634Y-13319801D02*
X13133110Y-13329325D01*
X13342634Y-13443611D02*
X13323587Y-13434087D01*
X13323587Y-13434087D02*
X13314063Y-13424563D01*
X13314063Y-13424563D02*
X13304539Y-13405516D01*
X13304539Y-13405516D02*
X13304539Y-13348373D01*
X13304539Y-13348373D02*
X13314063Y-13329325D01*
X13314063Y-13329325D02*
X13323587Y-13319801D01*
X13323587Y-13319801D02*
X13342634Y-13310278D01*
X13342634Y-13310278D02*
X13371206Y-13310278D01*
X13371206Y-13310278D02*
X13390253Y-13319801D01*
X13390253Y-13319801D02*
X13399777Y-13329325D01*
X13399777Y-13329325D02*
X13409301Y-13348373D01*
X13409301Y-13348373D02*
X13409301Y-13405516D01*
X13409301Y-13405516D02*
X13399777Y-13424563D01*
X13399777Y-13424563D02*
X13390253Y-13434087D01*
X13390253Y-13434087D02*
X13371206Y-13443611D01*
X13371206Y-13443611D02*
X13342634Y-13443611D01*
X13523587Y-13443611D02*
X13504539Y-13434087D01*
X13504539Y-13434087D02*
X13495015Y-13415039D01*
X13495015Y-13415039D02*
X13495015Y-13243611D01*
X13675968Y-13434087D02*
X13656920Y-13443611D01*
X13656920Y-13443611D02*
X13618825Y-13443611D01*
X13618825Y-13443611D02*
X13599777Y-13434087D01*
X13599777Y-13434087D02*
X13590253Y-13415039D01*
X13590253Y-13415039D02*
X13590253Y-13338849D01*
X13590253Y-13338849D02*
X13599777Y-13319801D01*
X13599777Y-13319801D02*
X13618825Y-13310278D01*
X13618825Y-13310278D02*
X13656920Y-13310278D01*
X13656920Y-13310278D02*
X13675968Y-13319801D01*
X13675968Y-13319801D02*
X13685491Y-13338849D01*
X13685491Y-13338849D02*
X13685491Y-13357897D01*
X13685491Y-13357897D02*
X13590253Y-13376944D01*
X13761682Y-13434087D02*
X13780730Y-13443611D01*
X13780730Y-13443611D02*
X13818825Y-13443611D01*
X13818825Y-13443611D02*
X13837872Y-13434087D01*
X13837872Y-13434087D02*
X13847396Y-13415039D01*
X13847396Y-13415039D02*
X13847396Y-13405516D01*
X13847396Y-13405516D02*
X13837872Y-13386468D01*
X13837872Y-13386468D02*
X13818825Y-13376944D01*
X13818825Y-13376944D02*
X13790253Y-13376944D01*
X13790253Y-13376944D02*
X13771206Y-13367420D01*
X13771206Y-13367420D02*
X13761682Y-13348373D01*
X13761682Y-13348373D02*
X13761682Y-13338849D01*
X13761682Y-13338849D02*
X13771206Y-13319801D01*
X13771206Y-13319801D02*
X13790253Y-13310278D01*
X13790253Y-13310278D02*
X13818825Y-13310278D01*
X13818825Y-13310278D02*
X13837872Y-13319801D01*
X13914063Y-13519801D02*
X13923587Y-13510278D01*
X13923587Y-13510278D02*
X13942634Y-13481706D01*
X13942634Y-13481706D02*
X13952158Y-13462659D01*
X13952158Y-13462659D02*
X13961682Y-13434087D01*
X13961682Y-13434087D02*
X13971206Y-13386468D01*
X13971206Y-13386468D02*
X13971206Y-13348373D01*
X13971206Y-13348373D02*
X13961682Y-13300754D01*
X13961682Y-13300754D02*
X13952158Y-13272182D01*
X13952158Y-13272182D02*
X13942634Y-13253135D01*
X13942634Y-13253135D02*
X13923587Y-13224563D01*
X13923587Y-13224563D02*
X13914063Y-13215039D01*
X14275968Y-13519801D02*
X14266444Y-13510278D01*
X14266444Y-13510278D02*
X14247396Y-13481706D01*
X14247396Y-13481706D02*
X14237872Y-13462659D01*
X14237872Y-13462659D02*
X14228349Y-13434087D01*
X14228349Y-13434087D02*
X14218825Y-13386468D01*
X14218825Y-13386468D02*
X14218825Y-13348373D01*
X14218825Y-13348373D02*
X14228349Y-13300754D01*
X14228349Y-13300754D02*
X14237872Y-13272182D01*
X14237872Y-13272182D02*
X14247396Y-13253135D01*
X14247396Y-13253135D02*
X14266444Y-13224563D01*
X14266444Y-13224563D02*
X14275968Y-13215039D01*
X14352158Y-13310278D02*
X14352158Y-13443611D01*
X14352158Y-13329325D02*
X14361682Y-13319801D01*
X14361682Y-13319801D02*
X14380730Y-13310278D01*
X14380730Y-13310278D02*
X14409301Y-13310278D01*
X14409301Y-13310278D02*
X14428349Y-13319801D01*
X14428349Y-13319801D02*
X14437872Y-13338849D01*
X14437872Y-13338849D02*
X14437872Y-13443611D01*
X14561682Y-13443611D02*
X14542634Y-13434087D01*
X14542634Y-13434087D02*
X14533111Y-13424563D01*
X14533111Y-13424563D02*
X14523587Y-13405516D01*
X14523587Y-13405516D02*
X14523587Y-13348373D01*
X14523587Y-13348373D02*
X14533111Y-13329325D01*
X14533111Y-13329325D02*
X14542634Y-13319801D01*
X14542634Y-13319801D02*
X14561682Y-13310278D01*
X14561682Y-13310278D02*
X14590253Y-13310278D01*
X14590253Y-13310278D02*
X14609301Y-13319801D01*
X14609301Y-13319801D02*
X14618825Y-13329325D01*
X14618825Y-13329325D02*
X14628349Y-13348373D01*
X14628349Y-13348373D02*
X14628349Y-13405516D01*
X14628349Y-13405516D02*
X14618825Y-13424563D01*
X14618825Y-13424563D02*
X14609301Y-13434087D01*
X14609301Y-13434087D02*
X14590253Y-13443611D01*
X14590253Y-13443611D02*
X14561682Y-13443611D01*
X14685492Y-13310278D02*
X14761682Y-13310278D01*
X14714063Y-13243611D02*
X14714063Y-13415039D01*
X14714063Y-13415039D02*
X14723587Y-13434087D01*
X14723587Y-13434087D02*
X14742634Y-13443611D01*
X14742634Y-13443611D02*
X14761682Y-13443611D01*
X14980730Y-13310278D02*
X14980730Y-13510278D01*
X14980730Y-13319801D02*
X14999777Y-13310278D01*
X14999777Y-13310278D02*
X15037873Y-13310278D01*
X15037873Y-13310278D02*
X15056920Y-13319801D01*
X15056920Y-13319801D02*
X15066444Y-13329325D01*
X15066444Y-13329325D02*
X15075968Y-13348373D01*
X15075968Y-13348373D02*
X15075968Y-13405516D01*
X15075968Y-13405516D02*
X15066444Y-13424563D01*
X15066444Y-13424563D02*
X15056920Y-13434087D01*
X15056920Y-13434087D02*
X15037873Y-13443611D01*
X15037873Y-13443611D02*
X14999777Y-13443611D01*
X14999777Y-13443611D02*
X14980730Y-13434087D01*
X15190253Y-13443611D02*
X15171206Y-13434087D01*
X15171206Y-13434087D02*
X15161682Y-13415039D01*
X15161682Y-13415039D02*
X15161682Y-13243611D01*
X15352158Y-13443611D02*
X15352158Y-13338849D01*
X15352158Y-13338849D02*
X15342634Y-13319801D01*
X15342634Y-13319801D02*
X15323587Y-13310278D01*
X15323587Y-13310278D02*
X15285492Y-13310278D01*
X15285492Y-13310278D02*
X15266444Y-13319801D01*
X15352158Y-13434087D02*
X15333111Y-13443611D01*
X15333111Y-13443611D02*
X15285492Y-13443611D01*
X15285492Y-13443611D02*
X15266444Y-13434087D01*
X15266444Y-13434087D02*
X15256920Y-13415039D01*
X15256920Y-13415039D02*
X15256920Y-13395992D01*
X15256920Y-13395992D02*
X15266444Y-13376944D01*
X15266444Y-13376944D02*
X15285492Y-13367420D01*
X15285492Y-13367420D02*
X15333111Y-13367420D01*
X15333111Y-13367420D02*
X15352158Y-13357897D01*
X15418825Y-13310278D02*
X15495015Y-13310278D01*
X15447396Y-13243611D02*
X15447396Y-13415039D01*
X15447396Y-13415039D02*
X15456920Y-13434087D01*
X15456920Y-13434087D02*
X15475968Y-13443611D01*
X15475968Y-13443611D02*
X15495015Y-13443611D01*
X15637873Y-13434087D02*
X15618825Y-13443611D01*
X15618825Y-13443611D02*
X15580730Y-13443611D01*
X15580730Y-13443611D02*
X15561682Y-13434087D01*
X15561682Y-13434087D02*
X15552158Y-13415039D01*
X15552158Y-13415039D02*
X15552158Y-13338849D01*
X15552158Y-13338849D02*
X15561682Y-13319801D01*
X15561682Y-13319801D02*
X15580730Y-13310278D01*
X15580730Y-13310278D02*
X15618825Y-13310278D01*
X15618825Y-13310278D02*
X15637873Y-13319801D01*
X15637873Y-13319801D02*
X15647396Y-13338849D01*
X15647396Y-13338849D02*
X15647396Y-13357897D01*
X15647396Y-13357897D02*
X15552158Y-13376944D01*
X15818825Y-13443611D02*
X15818825Y-13243611D01*
X15818825Y-13434087D02*
X15799777Y-13443611D01*
X15799777Y-13443611D02*
X15761682Y-13443611D01*
X15761682Y-13443611D02*
X15742634Y-13434087D01*
X15742634Y-13434087D02*
X15733111Y-13424563D01*
X15733111Y-13424563D02*
X15723587Y-13405516D01*
X15723587Y-13405516D02*
X15723587Y-13348373D01*
X15723587Y-13348373D02*
X15733111Y-13329325D01*
X15733111Y-13329325D02*
X15742634Y-13319801D01*
X15742634Y-13319801D02*
X15761682Y-13310278D01*
X15761682Y-13310278D02*
X15799777Y-13310278D01*
X15799777Y-13310278D02*
X15818825Y-13319801D01*
X15895015Y-13519801D02*
X15904539Y-13510278D01*
X15904539Y-13510278D02*
X15923587Y-13481706D01*
X15923587Y-13481706D02*
X15933111Y-13462659D01*
X15933111Y-13462659D02*
X15942634Y-13434087D01*
X15942634Y-13434087D02*
X15952158Y-13386468D01*
X15952158Y-13386468D02*
X15952158Y-13348373D01*
X15952158Y-13348373D02*
X15942634Y-13300754D01*
X15942634Y-13300754D02*
X15933111Y-13272182D01*
X15933111Y-13272182D02*
X15923587Y-13253135D01*
X15923587Y-13253135D02*
X15904539Y-13224563D01*
X15904539Y-13224563D02*
X15895015Y-13215039D01*
M02*
