%TF.GenerationSoftware,KiCad,Pcbnew,7.0.10*%
%TF.CreationDate,2024-03-05T00:47:09+05:30*%
%TF.ProjectId,ESP-DEVKIT-MINI,4553502d-4445-4564-9b49-542d4d494e49,rev?*%
%TF.SameCoordinates,Original*%
%TF.FileFunction,Drillmap*%
%TF.FilePolarity,Positive*%
%FSLAX45Y45*%
G04 Gerber Fmt 4.5, Leading zero omitted, Abs format (unit mm)*
G04 Created by KiCad (PCBNEW 7.0.10) date 2024-03-05 00:47:09*
%MOMM*%
%LPD*%
G01*
G04 APERTURE LIST*
%ADD10C,0.100000*%
%ADD11C,0.200000*%
G04 APERTURE END LIST*
D10*
X9144000Y-5588000D02*
X11684000Y-5588000D01*
X11684000Y-12443127D01*
X9144000Y-12443127D01*
X9144000Y-5588000D01*
X9334077Y-12436774D02*
X9429077Y-12436774D01*
X9429077Y-12279274D02*
X9429077Y-12436774D01*
X9514077Y-12279274D02*
X9514077Y-12436774D01*
X9514077Y-12436774D02*
X9904077Y-12436774D01*
X9904077Y-12279274D02*
X9904077Y-12436774D01*
X9989077Y-12279274D02*
X9989077Y-12436774D01*
X9989077Y-12436774D02*
X10084077Y-12436774D01*
X9514077Y-12279274D02*
G75*
G03*
X9429077Y-12279274I-42500J0D01*
G01*
X9989077Y-12279274D02*
G75*
G03*
X9904077Y-12279274I-42500J0D01*
G01*
D11*
D10*
X10155000Y-9139000D02*
X10165000Y-9149000D01*
X10165000Y-9139000D02*
X10155000Y-9149000D01*
X10280729Y-11605654D02*
X10290729Y-11615654D01*
X10290729Y-11605654D02*
X10280729Y-11615654D01*
X10360729Y-11605654D02*
X10370729Y-11615654D01*
X10370729Y-11605654D02*
X10360729Y-11615654D01*
X10440729Y-11605654D02*
X10450729Y-11615654D01*
X10450729Y-11605654D02*
X10440729Y-11615654D01*
X10889861Y-8377000D02*
X10899861Y-8387000D01*
X10899861Y-8377000D02*
X10889861Y-8387000D01*
X9766741Y-5947615D02*
G75*
G03*
X9736741Y-5947615I-15000J0D01*
G01*
X9736741Y-5947615D02*
G75*
G03*
X9766741Y-5947615I15000J0D01*
G01*
X9836257Y-5947529D02*
G75*
G03*
X9806257Y-5947529I-15000J0D01*
G01*
X9806257Y-5947529D02*
G75*
G03*
X9836257Y-5947529I15000J0D01*
G01*
X9856457Y-6962821D02*
G75*
G03*
X9826457Y-6962821I-15000J0D01*
G01*
X9826457Y-6962821D02*
G75*
G03*
X9856457Y-6962821I15000J0D01*
G01*
X9872550Y-7156618D02*
G75*
G03*
X9842550Y-7156618I-15000J0D01*
G01*
X9842550Y-7156618D02*
G75*
G03*
X9872550Y-7156618I15000J0D01*
G01*
X9876592Y-6630558D02*
G75*
G03*
X9846592Y-6630558I-15000J0D01*
G01*
X9846592Y-6630558D02*
G75*
G03*
X9876592Y-6630558I15000J0D01*
G01*
X9880604Y-6709711D02*
G75*
G03*
X9850604Y-6709711I-15000J0D01*
G01*
X9850604Y-6709711D02*
G75*
G03*
X9880604Y-6709711I15000J0D01*
G01*
X9880780Y-6541473D02*
G75*
G03*
X9850780Y-6541473I-15000J0D01*
G01*
X9850780Y-6541473D02*
G75*
G03*
X9880780Y-6541473I15000J0D01*
G01*
X9881178Y-6795104D02*
G75*
G03*
X9851178Y-6795104I-15000J0D01*
G01*
X9851178Y-6795104D02*
G75*
G03*
X9881178Y-6795104I15000J0D01*
G01*
X9883085Y-6457231D02*
G75*
G03*
X9853085Y-6457231I-15000J0D01*
G01*
X9853085Y-6457231D02*
G75*
G03*
X9883085Y-6457231I15000J0D01*
G01*
X9883422Y-6880371D02*
G75*
G03*
X9853422Y-6880371I-15000J0D01*
G01*
X9853422Y-6880371D02*
G75*
G03*
X9883422Y-6880371I15000J0D01*
G01*
X9884075Y-6373341D02*
G75*
G03*
X9854075Y-6373341I-15000J0D01*
G01*
X9854075Y-6373341D02*
G75*
G03*
X9884075Y-6373341I15000J0D01*
G01*
X9886227Y-6206030D02*
G75*
G03*
X9856227Y-6206030I-15000J0D01*
G01*
X9856227Y-6206030D02*
G75*
G03*
X9886227Y-6206030I15000J0D01*
G01*
X9886227Y-6288937D02*
G75*
G03*
X9856227Y-6288937I-15000J0D01*
G01*
X9856227Y-6288937D02*
G75*
G03*
X9886227Y-6288937I15000J0D01*
G01*
X9887831Y-6033076D02*
G75*
G03*
X9857831Y-6033076I-15000J0D01*
G01*
X9857831Y-6033076D02*
G75*
G03*
X9887831Y-6033076I15000J0D01*
G01*
X9921000Y-8636000D02*
G75*
G03*
X9891000Y-8636000I-15000J0D01*
G01*
X9891000Y-8636000D02*
G75*
G03*
X9921000Y-8636000I15000J0D01*
G01*
X9956117Y-6963604D02*
G75*
G03*
X9926117Y-6963604I-15000J0D01*
G01*
X9926117Y-6963604D02*
G75*
G03*
X9956117Y-6963604I15000J0D01*
G01*
X10041119Y-6966592D02*
G75*
G03*
X10011119Y-6966592I-15000J0D01*
G01*
X10011119Y-6966592D02*
G75*
G03*
X10041119Y-6966592I15000J0D01*
G01*
X10102262Y-7318303D02*
G75*
G03*
X10072262Y-7318303I-15000J0D01*
G01*
X10072262Y-7318303D02*
G75*
G03*
X10102262Y-7318303I15000J0D01*
G01*
X10105050Y-6858000D02*
G75*
G03*
X10075050Y-6858000I-15000J0D01*
G01*
X10075050Y-6858000D02*
G75*
G03*
X10105050Y-6858000I15000J0D01*
G01*
X10127109Y-11321057D02*
G75*
G03*
X10097109Y-11321057I-15000J0D01*
G01*
X10097109Y-11321057D02*
G75*
G03*
X10127109Y-11321057I15000J0D01*
G01*
X10173603Y-7231356D02*
G75*
G03*
X10143603Y-7231356I-15000J0D01*
G01*
X10143603Y-7231356D02*
G75*
G03*
X10173603Y-7231356I15000J0D01*
G01*
X10175000Y-6858000D02*
G75*
G03*
X10145000Y-6858000I-15000J0D01*
G01*
X10145000Y-6858000D02*
G75*
G03*
X10175000Y-6858000I15000J0D01*
G01*
X10211114Y-11355183D02*
G75*
G03*
X10181114Y-11355183I-15000J0D01*
G01*
X10181114Y-11355183D02*
G75*
G03*
X10211114Y-11355183I15000J0D01*
G01*
X10355496Y-11252803D02*
G75*
G03*
X10325496Y-11252803I-15000J0D01*
G01*
X10325496Y-11252803D02*
G75*
G03*
X10355496Y-11252803I15000J0D01*
G01*
X10356129Y-7242818D02*
G75*
G03*
X10326129Y-7242818I-15000J0D01*
G01*
X10326129Y-7242818D02*
G75*
G03*
X10356129Y-7242818I15000J0D01*
G01*
X10399092Y-8944121D02*
G75*
G03*
X10369092Y-8944121I-15000J0D01*
G01*
X10369092Y-8944121D02*
G75*
G03*
X10399092Y-8944121I15000J0D01*
G01*
X10429000Y-7234442D02*
G75*
G03*
X10399000Y-7234442I-15000J0D01*
G01*
X10399000Y-7234442D02*
G75*
G03*
X10429000Y-7234442I15000J0D01*
G01*
X10429000Y-8128000D02*
G75*
G03*
X10399000Y-8128000I-15000J0D01*
G01*
X10399000Y-8128000D02*
G75*
G03*
X10429000Y-8128000I15000J0D01*
G01*
X10429000Y-8128000D02*
G75*
G03*
X10399000Y-8128000I-15000J0D01*
G01*
X10399000Y-8128000D02*
G75*
G03*
X10429000Y-8128000I15000J0D01*
G01*
X10429000Y-10160000D02*
G75*
G03*
X10399000Y-10160000I-15000J0D01*
G01*
X10399000Y-10160000D02*
G75*
G03*
X10429000Y-10160000I15000J0D01*
G01*
X10429000Y-10160000D02*
G75*
G03*
X10399000Y-10160000I-15000J0D01*
G01*
X10399000Y-10160000D02*
G75*
G03*
X10429000Y-10160000I15000J0D01*
G01*
X10453939Y-11349933D02*
G75*
G03*
X10423939Y-11349933I-15000J0D01*
G01*
X10423939Y-11349933D02*
G75*
G03*
X10453939Y-11349933I15000J0D01*
G01*
X10495582Y-6916513D02*
G75*
G03*
X10465582Y-6916513I-15000J0D01*
G01*
X10465582Y-6916513D02*
G75*
G03*
X10495582Y-6916513I15000J0D01*
G01*
X10504087Y-10022088D02*
G75*
G03*
X10474087Y-10022088I-15000J0D01*
G01*
X10474087Y-10022088D02*
G75*
G03*
X10504087Y-10022088I15000J0D01*
G01*
X10522144Y-7378814D02*
G75*
G03*
X10492144Y-7378814I-15000J0D01*
G01*
X10492144Y-7378814D02*
G75*
G03*
X10522144Y-7378814I15000J0D01*
G01*
X10558070Y-6947950D02*
G75*
G03*
X10528070Y-6947950I-15000J0D01*
G01*
X10528070Y-6947950D02*
G75*
G03*
X10558070Y-6947950I15000J0D01*
G01*
X10574695Y-11347308D02*
G75*
G03*
X10544695Y-11347308I-15000J0D01*
G01*
X10544695Y-11347308D02*
G75*
G03*
X10574695Y-11347308I15000J0D01*
G01*
X10599595Y-6729941D02*
G75*
G03*
X10569595Y-6729941I-15000J0D01*
G01*
X10569595Y-6729941D02*
G75*
G03*
X10599595Y-6729941I15000J0D01*
G01*
X10637274Y-6945266D02*
G75*
G03*
X10607274Y-6945266I-15000J0D01*
G01*
X10607274Y-6945266D02*
G75*
G03*
X10637274Y-6945266I15000J0D01*
G01*
X10658750Y-9266684D02*
G75*
G03*
X10628750Y-9266684I-15000J0D01*
G01*
X10628750Y-9266684D02*
G75*
G03*
X10658750Y-9266684I15000J0D01*
G01*
X10683000Y-8128000D02*
G75*
G03*
X10653000Y-8128000I-15000J0D01*
G01*
X10653000Y-8128000D02*
G75*
G03*
X10683000Y-8128000I15000J0D01*
G01*
X10726653Y-6956946D02*
G75*
G03*
X10696653Y-6956946I-15000J0D01*
G01*
X10696653Y-6956946D02*
G75*
G03*
X10726653Y-6956946I15000J0D01*
G01*
X10858423Y-11351626D02*
G75*
G03*
X10828423Y-11351626I-15000J0D01*
G01*
X10828423Y-11351626D02*
G75*
G03*
X10858423Y-11351626I15000J0D01*
G01*
X10888978Y-6972111D02*
G75*
G03*
X10858978Y-6972111I-15000J0D01*
G01*
X10858978Y-6972111D02*
G75*
G03*
X10888978Y-6972111I15000J0D01*
G01*
X10895606Y-6902475D02*
G75*
G03*
X10865606Y-6902475I-15000J0D01*
G01*
X10865606Y-6902475D02*
G75*
G03*
X10895606Y-6902475I15000J0D01*
G01*
X10900463Y-6202532D02*
G75*
G03*
X10870463Y-6202532I-15000J0D01*
G01*
X10870463Y-6202532D02*
G75*
G03*
X10900463Y-6202532I15000J0D01*
G01*
X10926812Y-6803678D02*
G75*
G03*
X10896812Y-6803678I-15000J0D01*
G01*
X10896812Y-6803678D02*
G75*
G03*
X10926812Y-6803678I15000J0D01*
G01*
X10980057Y-6286467D02*
G75*
G03*
X10950057Y-6286467I-15000J0D01*
G01*
X10950057Y-6286467D02*
G75*
G03*
X10980057Y-6286467I15000J0D01*
G01*
X10980997Y-6702438D02*
G75*
G03*
X10950997Y-6702438I-15000J0D01*
G01*
X10950997Y-6702438D02*
G75*
G03*
X10980997Y-6702438I15000J0D01*
G01*
X11006913Y-6841272D02*
G75*
G03*
X10976913Y-6841272I-15000J0D01*
G01*
X10976913Y-6841272D02*
G75*
G03*
X11006913Y-6841272I15000J0D01*
G01*
X11046627Y-6373297D02*
G75*
G03*
X11016627Y-6373297I-15000J0D01*
G01*
X11016627Y-6373297D02*
G75*
G03*
X11046627Y-6373297I15000J0D01*
G01*
X11055310Y-6457615D02*
G75*
G03*
X11025310Y-6457615I-15000J0D01*
G01*
X11025310Y-6457615D02*
G75*
G03*
X11055310Y-6457615I15000J0D01*
G01*
X11056775Y-6117370D02*
G75*
G03*
X11026775Y-6117370I-15000J0D01*
G01*
X11026775Y-6117370D02*
G75*
G03*
X11056775Y-6117370I15000J0D01*
G01*
X11057016Y-6627281D02*
G75*
G03*
X11027016Y-6627281I-15000J0D01*
G01*
X11027016Y-6627281D02*
G75*
G03*
X11057016Y-6627281I15000J0D01*
G01*
X11060476Y-6712596D02*
G75*
G03*
X11030476Y-6712596I-15000J0D01*
G01*
X11030476Y-6712596D02*
G75*
G03*
X11060476Y-6712596I15000J0D01*
G01*
X11063051Y-6537423D02*
G75*
G03*
X11033051Y-6537423I-15000J0D01*
G01*
X11033051Y-6537423D02*
G75*
G03*
X11063051Y-6537423I15000J0D01*
G01*
X11066552Y-6877826D02*
G75*
G03*
X11036552Y-6877826I-15000J0D01*
G01*
X11036552Y-6877826D02*
G75*
G03*
X11066552Y-6877826I15000J0D01*
G01*
X11080184Y-5776188D02*
G75*
G03*
X11050184Y-5776188I-15000J0D01*
G01*
X11050184Y-5776188D02*
G75*
G03*
X11080184Y-5776188I15000J0D01*
G01*
X11080971Y-10271097D02*
G75*
G03*
X11050971Y-10271097I-15000J0D01*
G01*
X11050971Y-10271097D02*
G75*
G03*
X11080971Y-10271097I15000J0D01*
G01*
X11081426Y-5861759D02*
G75*
G03*
X11051426Y-5861759I-15000J0D01*
G01*
X11051426Y-5861759D02*
G75*
G03*
X11081426Y-5861759I15000J0D01*
G01*
X9291577Y-12261774D02*
X9291577Y-12321774D01*
X9261577Y-12291774D02*
X9321577Y-12291774D01*
X9261577Y-12256774D02*
X9261577Y-12326774D01*
X9261577Y-12326774D02*
G75*
G03*
X9321577Y-12326774I30000J0D01*
G01*
X9321577Y-12326774D02*
X9321577Y-12256774D01*
X9321577Y-12256774D02*
G75*
G03*
X9261577Y-12256774I-30000J0D01*
G01*
X10126577Y-12261774D02*
X10126577Y-12321774D01*
X10096577Y-12291774D02*
X10156577Y-12291774D01*
X10096577Y-12256774D02*
X10096577Y-12326774D01*
X10096577Y-12326774D02*
G75*
G03*
X10156577Y-12326774I30000J0D01*
G01*
X10156577Y-12326774D02*
X10156577Y-12256774D01*
X10156577Y-12256774D02*
G75*
G03*
X10096577Y-12256774I-30000J0D01*
G01*
X10681593Y-11803849D02*
X10681593Y-11863849D01*
X10651593Y-11833849D02*
X10711593Y-11833849D01*
X10711593Y-11888849D02*
X10711593Y-11778849D01*
X10711593Y-11778849D02*
G75*
G03*
X10651593Y-11778849I-30000J0D01*
G01*
X10651593Y-11778849D02*
X10651593Y-11888849D01*
X10651593Y-11888849D02*
G75*
G03*
X10711593Y-11888849I30000J0D01*
G01*
X10681593Y-12220849D02*
X10681593Y-12280849D01*
X10651593Y-12250849D02*
X10711593Y-12250849D01*
X10711593Y-12290849D02*
X10711593Y-12210849D01*
X10711593Y-12210849D02*
G75*
G03*
X10651593Y-12210849I-30000J0D01*
G01*
X10651593Y-12210849D02*
X10651593Y-12290849D01*
X10651593Y-12290849D02*
G75*
G03*
X10711593Y-12290849I30000J0D01*
G01*
X11545593Y-11803849D02*
X11545593Y-11863849D01*
X11515593Y-11833849D02*
X11575593Y-11833849D01*
X11575593Y-11888849D02*
X11575593Y-11778849D01*
X11575593Y-11778849D02*
G75*
G03*
X11515593Y-11778849I-30000J0D01*
G01*
X11515593Y-11778849D02*
X11515593Y-11888849D01*
X11515593Y-11888849D02*
G75*
G03*
X11575593Y-11888849I30000J0D01*
G01*
X11545593Y-12220849D02*
X11545593Y-12280849D01*
X11515593Y-12250849D02*
X11575593Y-12250849D01*
X11575593Y-12290849D02*
X11575593Y-12210849D01*
X11575593Y-12210849D02*
G75*
G03*
X11515593Y-12210849I-30000J0D01*
G01*
X11515593Y-12210849D02*
X11515593Y-12290849D01*
X11515593Y-12290849D02*
G75*
G03*
X11575593Y-12290849I30000J0D01*
G01*
X9509558Y-12014756D02*
X9509558Y-11968793D01*
X9463595Y-11968793D01*
X9463595Y-12014756D01*
X9509558Y-12014756D01*
X9454077Y-11981774D02*
X9454077Y-12001774D01*
X9454077Y-12001774D02*
G75*
G03*
X9519077Y-12001774I32500J0D01*
G01*
X9519077Y-12001774D02*
X9519077Y-11981774D01*
X9519077Y-11981774D02*
G75*
G03*
X9454077Y-11981774I-32500J0D01*
G01*
X9954558Y-12014756D02*
X9954558Y-11968793D01*
X9908595Y-11968793D01*
X9908595Y-12014756D01*
X9954558Y-12014756D01*
X9899077Y-11981774D02*
X9899077Y-12001774D01*
X9899077Y-12001774D02*
G75*
G03*
X9964077Y-12001774I32500J0D01*
G01*
X9964077Y-12001774D02*
X9964077Y-11981774D01*
X9964077Y-11981774D02*
G75*
G03*
X9899077Y-11981774I-32500J0D01*
G01*
X9349311Y-5807980D02*
X9389311Y-5767980D01*
X9349311Y-5727980D01*
X9309311Y-5767980D01*
X9349311Y-5807980D01*
X9349311Y-6007980D02*
X9389311Y-5967980D01*
X9349311Y-5927980D01*
X9309311Y-5967980D01*
X9349311Y-6007980D01*
X9349311Y-6207980D02*
X9389311Y-6167980D01*
X9349311Y-6127980D01*
X9309311Y-6167980D01*
X9349311Y-6207980D01*
X9349311Y-6407980D02*
X9389311Y-6367980D01*
X9349311Y-6327980D01*
X9309311Y-6367980D01*
X9349311Y-6407980D01*
X9349311Y-6607980D02*
X9389311Y-6567980D01*
X9349311Y-6527980D01*
X9309311Y-6567980D01*
X9349311Y-6607980D01*
X9349311Y-6807980D02*
X9389311Y-6767980D01*
X9349311Y-6727980D01*
X9309311Y-6767980D01*
X9349311Y-6807980D01*
X9349311Y-7007980D02*
X9389311Y-6967980D01*
X9349311Y-6927980D01*
X9309311Y-6967980D01*
X9349311Y-7007980D01*
X9349311Y-7207980D02*
X9389311Y-7167980D01*
X9349311Y-7127980D01*
X9309311Y-7167980D01*
X9349311Y-7207980D01*
X9349311Y-7407980D02*
X9389311Y-7367980D01*
X9349311Y-7327980D01*
X9309311Y-7367980D01*
X9349311Y-7407980D01*
X9349311Y-7607980D02*
X9389311Y-7567980D01*
X9349311Y-7527980D01*
X9309311Y-7567980D01*
X9349311Y-7607980D01*
X9349311Y-7807980D02*
X9389311Y-7767980D01*
X9349311Y-7727980D01*
X9309311Y-7767980D01*
X9349311Y-7807980D01*
X9349311Y-8007980D02*
X9389311Y-7967980D01*
X9349311Y-7927980D01*
X9309311Y-7967980D01*
X9349311Y-8007980D01*
X9349311Y-8207980D02*
X9389311Y-8167980D01*
X9349311Y-8127980D01*
X9309311Y-8167980D01*
X9349311Y-8207980D01*
X9349311Y-8407980D02*
X9389311Y-8367980D01*
X9349311Y-8327980D01*
X9309311Y-8367980D01*
X9349311Y-8407980D01*
X9349311Y-8607980D02*
X9389311Y-8567980D01*
X9349311Y-8527980D01*
X9309311Y-8567980D01*
X9349311Y-8607980D01*
X9349311Y-8807980D02*
X9389311Y-8767980D01*
X9349311Y-8727980D01*
X9309311Y-8767980D01*
X9349311Y-8807980D01*
X9349311Y-9007980D02*
X9389311Y-8967980D01*
X9349311Y-8927980D01*
X9309311Y-8967980D01*
X9349311Y-9007980D01*
X9349311Y-9207980D02*
X9389311Y-9167980D01*
X9349311Y-9127980D01*
X9309311Y-9167980D01*
X9349311Y-9207980D01*
X9349311Y-9407980D02*
X9389311Y-9367980D01*
X9349311Y-9327980D01*
X9309311Y-9367980D01*
X9349311Y-9407980D01*
X9349311Y-9607980D02*
X9389311Y-9567980D01*
X9349311Y-9527980D01*
X9309311Y-9567980D01*
X9349311Y-9607980D01*
X9349311Y-9807980D02*
X9389311Y-9767980D01*
X9349311Y-9727980D01*
X9309311Y-9767980D01*
X9349311Y-9807980D01*
X9349311Y-10007980D02*
X9389311Y-9967980D01*
X9349311Y-9927980D01*
X9309311Y-9967980D01*
X9349311Y-10007980D01*
X11497311Y-5807980D02*
X11537311Y-5767980D01*
X11497311Y-5727980D01*
X11457311Y-5767980D01*
X11497311Y-5807980D01*
X11497311Y-6007980D02*
X11537311Y-5967980D01*
X11497311Y-5927980D01*
X11457311Y-5967980D01*
X11497311Y-6007980D01*
X11497311Y-6207980D02*
X11537311Y-6167980D01*
X11497311Y-6127980D01*
X11457311Y-6167980D01*
X11497311Y-6207980D01*
X11497311Y-6407980D02*
X11537311Y-6367980D01*
X11497311Y-6327980D01*
X11457311Y-6367980D01*
X11497311Y-6407980D01*
X11497311Y-6607980D02*
X11537311Y-6567980D01*
X11497311Y-6527980D01*
X11457311Y-6567980D01*
X11497311Y-6607980D01*
X11497311Y-6807980D02*
X11537311Y-6767980D01*
X11497311Y-6727980D01*
X11457311Y-6767980D01*
X11497311Y-6807980D01*
X11497311Y-7007980D02*
X11537311Y-6967980D01*
X11497311Y-6927980D01*
X11457311Y-6967980D01*
X11497311Y-7007980D01*
X11497311Y-7207980D02*
X11537311Y-7167980D01*
X11497311Y-7127980D01*
X11457311Y-7167980D01*
X11497311Y-7207980D01*
X11497311Y-7407980D02*
X11537311Y-7367980D01*
X11497311Y-7327980D01*
X11457311Y-7367980D01*
X11497311Y-7407980D01*
X11497311Y-7607980D02*
X11537311Y-7567980D01*
X11497311Y-7527980D01*
X11457311Y-7567980D01*
X11497311Y-7607980D01*
X11497311Y-7807980D02*
X11537311Y-7767980D01*
X11497311Y-7727980D01*
X11457311Y-7767980D01*
X11497311Y-7807980D01*
X11497311Y-8007980D02*
X11537311Y-7967980D01*
X11497311Y-7927980D01*
X11457311Y-7967980D01*
X11497311Y-8007980D01*
X11497311Y-8207980D02*
X11537311Y-8167980D01*
X11497311Y-8127980D01*
X11457311Y-8167980D01*
X11497311Y-8207980D01*
X11497311Y-8407980D02*
X11537311Y-8367980D01*
X11497311Y-8327980D01*
X11457311Y-8367980D01*
X11497311Y-8407980D01*
X11497311Y-8607980D02*
X11537311Y-8567980D01*
X11497311Y-8527980D01*
X11457311Y-8567980D01*
X11497311Y-8607980D01*
X11497311Y-8807980D02*
X11537311Y-8767980D01*
X11497311Y-8727980D01*
X11457311Y-8767980D01*
X11497311Y-8807980D01*
X11497311Y-9007980D02*
X11537311Y-8967980D01*
X11497311Y-8927980D01*
X11457311Y-8967980D01*
X11497311Y-9007980D01*
X11497311Y-9207980D02*
X11537311Y-9167980D01*
X11497311Y-9127980D01*
X11457311Y-9167980D01*
X11497311Y-9207980D01*
X11497311Y-9407980D02*
X11537311Y-9367980D01*
X11497311Y-9327980D01*
X11457311Y-9367980D01*
X11497311Y-9407980D01*
X11497311Y-9607980D02*
X11537311Y-9567980D01*
X11497311Y-9527980D01*
X11457311Y-9567980D01*
X11497311Y-9607980D01*
X11497311Y-9807980D02*
X11537311Y-9767980D01*
X11497311Y-9727980D01*
X11457311Y-9767980D01*
X11497311Y-9807980D01*
X11497311Y-10007980D02*
X11537311Y-9967980D01*
X11497311Y-9927980D01*
X11457311Y-9967980D01*
X11497311Y-10007980D01*
D11*
X9399777Y-12759611D02*
X9399777Y-12559611D01*
X9399777Y-12559611D02*
X9447396Y-12559611D01*
X9447396Y-12559611D02*
X9475967Y-12569135D01*
X9475967Y-12569135D02*
X9495015Y-12588182D01*
X9495015Y-12588182D02*
X9504539Y-12607230D01*
X9504539Y-12607230D02*
X9514063Y-12645325D01*
X9514063Y-12645325D02*
X9514063Y-12673897D01*
X9514063Y-12673897D02*
X9504539Y-12711992D01*
X9504539Y-12711992D02*
X9495015Y-12731039D01*
X9495015Y-12731039D02*
X9475967Y-12750087D01*
X9475967Y-12750087D02*
X9447396Y-12759611D01*
X9447396Y-12759611D02*
X9399777Y-12759611D01*
X9599777Y-12759611D02*
X9599777Y-12626278D01*
X9599777Y-12664373D02*
X9609301Y-12645325D01*
X9609301Y-12645325D02*
X9618824Y-12635801D01*
X9618824Y-12635801D02*
X9637872Y-12626278D01*
X9637872Y-12626278D02*
X9656920Y-12626278D01*
X9723586Y-12759611D02*
X9723586Y-12626278D01*
X9723586Y-12559611D02*
X9714063Y-12569135D01*
X9714063Y-12569135D02*
X9723586Y-12578659D01*
X9723586Y-12578659D02*
X9733110Y-12569135D01*
X9733110Y-12569135D02*
X9723586Y-12559611D01*
X9723586Y-12559611D02*
X9723586Y-12578659D01*
X9847396Y-12759611D02*
X9828348Y-12750087D01*
X9828348Y-12750087D02*
X9818824Y-12731039D01*
X9818824Y-12731039D02*
X9818824Y-12559611D01*
X9952158Y-12759611D02*
X9933110Y-12750087D01*
X9933110Y-12750087D02*
X9923586Y-12731039D01*
X9923586Y-12731039D02*
X9923586Y-12559611D01*
X10180729Y-12759611D02*
X10180729Y-12559611D01*
X10180729Y-12559611D02*
X10247396Y-12702468D01*
X10247396Y-12702468D02*
X10314063Y-12559611D01*
X10314063Y-12559611D02*
X10314063Y-12759611D01*
X10495015Y-12759611D02*
X10495015Y-12654849D01*
X10495015Y-12654849D02*
X10485491Y-12635801D01*
X10485491Y-12635801D02*
X10466444Y-12626278D01*
X10466444Y-12626278D02*
X10428348Y-12626278D01*
X10428348Y-12626278D02*
X10409301Y-12635801D01*
X10495015Y-12750087D02*
X10475967Y-12759611D01*
X10475967Y-12759611D02*
X10428348Y-12759611D01*
X10428348Y-12759611D02*
X10409301Y-12750087D01*
X10409301Y-12750087D02*
X10399777Y-12731039D01*
X10399777Y-12731039D02*
X10399777Y-12711992D01*
X10399777Y-12711992D02*
X10409301Y-12692944D01*
X10409301Y-12692944D02*
X10428348Y-12683420D01*
X10428348Y-12683420D02*
X10475967Y-12683420D01*
X10475967Y-12683420D02*
X10495015Y-12673897D01*
X10590253Y-12626278D02*
X10590253Y-12826278D01*
X10590253Y-12635801D02*
X10609301Y-12626278D01*
X10609301Y-12626278D02*
X10647396Y-12626278D01*
X10647396Y-12626278D02*
X10666444Y-12635801D01*
X10666444Y-12635801D02*
X10675967Y-12645325D01*
X10675967Y-12645325D02*
X10685491Y-12664373D01*
X10685491Y-12664373D02*
X10685491Y-12721516D01*
X10685491Y-12721516D02*
X10675967Y-12740563D01*
X10675967Y-12740563D02*
X10666444Y-12750087D01*
X10666444Y-12750087D02*
X10647396Y-12759611D01*
X10647396Y-12759611D02*
X10609301Y-12759611D01*
X10609301Y-12759611D02*
X10590253Y-12750087D01*
X10771205Y-12740563D02*
X10780729Y-12750087D01*
X10780729Y-12750087D02*
X10771205Y-12759611D01*
X10771205Y-12759611D02*
X10761682Y-12750087D01*
X10761682Y-12750087D02*
X10771205Y-12740563D01*
X10771205Y-12740563D02*
X10771205Y-12759611D01*
X10771205Y-12635801D02*
X10780729Y-12645325D01*
X10780729Y-12645325D02*
X10771205Y-12654849D01*
X10771205Y-12654849D02*
X10761682Y-12645325D01*
X10761682Y-12645325D02*
X10771205Y-12635801D01*
X10771205Y-12635801D02*
X10771205Y-12654849D01*
D10*
X9129000Y-13083127D02*
X9139000Y-13093127D01*
X9139000Y-13083127D02*
X9129000Y-13093127D01*
D11*
X9437872Y-12979611D02*
X9456920Y-12979611D01*
X9456920Y-12979611D02*
X9475967Y-12989135D01*
X9475967Y-12989135D02*
X9485491Y-12998659D01*
X9485491Y-12998659D02*
X9495015Y-13017706D01*
X9495015Y-13017706D02*
X9504539Y-13055801D01*
X9504539Y-13055801D02*
X9504539Y-13103420D01*
X9504539Y-13103420D02*
X9495015Y-13141516D01*
X9495015Y-13141516D02*
X9485491Y-13160563D01*
X9485491Y-13160563D02*
X9475967Y-13170087D01*
X9475967Y-13170087D02*
X9456920Y-13179611D01*
X9456920Y-13179611D02*
X9437872Y-13179611D01*
X9437872Y-13179611D02*
X9418824Y-13170087D01*
X9418824Y-13170087D02*
X9409301Y-13160563D01*
X9409301Y-13160563D02*
X9399777Y-13141516D01*
X9399777Y-13141516D02*
X9390253Y-13103420D01*
X9390253Y-13103420D02*
X9390253Y-13055801D01*
X9390253Y-13055801D02*
X9399777Y-13017706D01*
X9399777Y-13017706D02*
X9409301Y-12998659D01*
X9409301Y-12998659D02*
X9418824Y-12989135D01*
X9418824Y-12989135D02*
X9437872Y-12979611D01*
X9590253Y-13160563D02*
X9599777Y-13170087D01*
X9599777Y-13170087D02*
X9590253Y-13179611D01*
X9590253Y-13179611D02*
X9580729Y-13170087D01*
X9580729Y-13170087D02*
X9590253Y-13160563D01*
X9590253Y-13160563D02*
X9590253Y-13179611D01*
X9790253Y-13179611D02*
X9675967Y-13179611D01*
X9733110Y-13179611D02*
X9733110Y-12979611D01*
X9733110Y-12979611D02*
X9714063Y-13008182D01*
X9714063Y-13008182D02*
X9695015Y-13027230D01*
X9695015Y-13027230D02*
X9675967Y-13036754D01*
X9914063Y-12979611D02*
X9933110Y-12979611D01*
X9933110Y-12979611D02*
X9952158Y-12989135D01*
X9952158Y-12989135D02*
X9961682Y-12998659D01*
X9961682Y-12998659D02*
X9971205Y-13017706D01*
X9971205Y-13017706D02*
X9980729Y-13055801D01*
X9980729Y-13055801D02*
X9980729Y-13103420D01*
X9980729Y-13103420D02*
X9971205Y-13141516D01*
X9971205Y-13141516D02*
X9961682Y-13160563D01*
X9961682Y-13160563D02*
X9952158Y-13170087D01*
X9952158Y-13170087D02*
X9933110Y-13179611D01*
X9933110Y-13179611D02*
X9914063Y-13179611D01*
X9914063Y-13179611D02*
X9895015Y-13170087D01*
X9895015Y-13170087D02*
X9885491Y-13160563D01*
X9885491Y-13160563D02*
X9875967Y-13141516D01*
X9875967Y-13141516D02*
X9866444Y-13103420D01*
X9866444Y-13103420D02*
X9866444Y-13055801D01*
X9866444Y-13055801D02*
X9875967Y-13017706D01*
X9875967Y-13017706D02*
X9885491Y-12998659D01*
X9885491Y-12998659D02*
X9895015Y-12989135D01*
X9895015Y-12989135D02*
X9914063Y-12979611D01*
X10104539Y-12979611D02*
X10123586Y-12979611D01*
X10123586Y-12979611D02*
X10142634Y-12989135D01*
X10142634Y-12989135D02*
X10152158Y-12998659D01*
X10152158Y-12998659D02*
X10161682Y-13017706D01*
X10161682Y-13017706D02*
X10171205Y-13055801D01*
X10171205Y-13055801D02*
X10171205Y-13103420D01*
X10171205Y-13103420D02*
X10161682Y-13141516D01*
X10161682Y-13141516D02*
X10152158Y-13160563D01*
X10152158Y-13160563D02*
X10142634Y-13170087D01*
X10142634Y-13170087D02*
X10123586Y-13179611D01*
X10123586Y-13179611D02*
X10104539Y-13179611D01*
X10104539Y-13179611D02*
X10085491Y-13170087D01*
X10085491Y-13170087D02*
X10075967Y-13160563D01*
X10075967Y-13160563D02*
X10066444Y-13141516D01*
X10066444Y-13141516D02*
X10056920Y-13103420D01*
X10056920Y-13103420D02*
X10056920Y-13055801D01*
X10056920Y-13055801D02*
X10066444Y-13017706D01*
X10066444Y-13017706D02*
X10075967Y-12998659D01*
X10075967Y-12998659D02*
X10085491Y-12989135D01*
X10085491Y-12989135D02*
X10104539Y-12979611D01*
X10256920Y-13179611D02*
X10256920Y-13046278D01*
X10256920Y-13065325D02*
X10266444Y-13055801D01*
X10266444Y-13055801D02*
X10285491Y-13046278D01*
X10285491Y-13046278D02*
X10314063Y-13046278D01*
X10314063Y-13046278D02*
X10333110Y-13055801D01*
X10333110Y-13055801D02*
X10342634Y-13074849D01*
X10342634Y-13074849D02*
X10342634Y-13179611D01*
X10342634Y-13074849D02*
X10352158Y-13055801D01*
X10352158Y-13055801D02*
X10371205Y-13046278D01*
X10371205Y-13046278D02*
X10399777Y-13046278D01*
X10399777Y-13046278D02*
X10418825Y-13055801D01*
X10418825Y-13055801D02*
X10428348Y-13074849D01*
X10428348Y-13074849D02*
X10428348Y-13179611D01*
X10523586Y-13179611D02*
X10523586Y-13046278D01*
X10523586Y-13065325D02*
X10533110Y-13055801D01*
X10533110Y-13055801D02*
X10552158Y-13046278D01*
X10552158Y-13046278D02*
X10580729Y-13046278D01*
X10580729Y-13046278D02*
X10599777Y-13055801D01*
X10599777Y-13055801D02*
X10609301Y-13074849D01*
X10609301Y-13074849D02*
X10609301Y-13179611D01*
X10609301Y-13074849D02*
X10618825Y-13055801D01*
X10618825Y-13055801D02*
X10637872Y-13046278D01*
X10637872Y-13046278D02*
X10666444Y-13046278D01*
X10666444Y-13046278D02*
X10685491Y-13055801D01*
X10685491Y-13055801D02*
X10695015Y-13074849D01*
X10695015Y-13074849D02*
X10695015Y-13179611D01*
X11085491Y-12970087D02*
X10914063Y-13227230D01*
X11342634Y-12979611D02*
X11361682Y-12979611D01*
X11361682Y-12979611D02*
X11380729Y-12989135D01*
X11380729Y-12989135D02*
X11390253Y-12998659D01*
X11390253Y-12998659D02*
X11399777Y-13017706D01*
X11399777Y-13017706D02*
X11409301Y-13055801D01*
X11409301Y-13055801D02*
X11409301Y-13103420D01*
X11409301Y-13103420D02*
X11399777Y-13141516D01*
X11399777Y-13141516D02*
X11390253Y-13160563D01*
X11390253Y-13160563D02*
X11380729Y-13170087D01*
X11380729Y-13170087D02*
X11361682Y-13179611D01*
X11361682Y-13179611D02*
X11342634Y-13179611D01*
X11342634Y-13179611D02*
X11323586Y-13170087D01*
X11323586Y-13170087D02*
X11314063Y-13160563D01*
X11314063Y-13160563D02*
X11304539Y-13141516D01*
X11304539Y-13141516D02*
X11295015Y-13103420D01*
X11295015Y-13103420D02*
X11295015Y-13055801D01*
X11295015Y-13055801D02*
X11304539Y-13017706D01*
X11304539Y-13017706D02*
X11314063Y-12998659D01*
X11314063Y-12998659D02*
X11323586Y-12989135D01*
X11323586Y-12989135D02*
X11342634Y-12979611D01*
X11495015Y-13160563D02*
X11504539Y-13170087D01*
X11504539Y-13170087D02*
X11495015Y-13179611D01*
X11495015Y-13179611D02*
X11485491Y-13170087D01*
X11485491Y-13170087D02*
X11495015Y-13160563D01*
X11495015Y-13160563D02*
X11495015Y-13179611D01*
X11628348Y-12979611D02*
X11647396Y-12979611D01*
X11647396Y-12979611D02*
X11666444Y-12989135D01*
X11666444Y-12989135D02*
X11675967Y-12998659D01*
X11675967Y-12998659D02*
X11685491Y-13017706D01*
X11685491Y-13017706D02*
X11695015Y-13055801D01*
X11695015Y-13055801D02*
X11695015Y-13103420D01*
X11695015Y-13103420D02*
X11685491Y-13141516D01*
X11685491Y-13141516D02*
X11675967Y-13160563D01*
X11675967Y-13160563D02*
X11666444Y-13170087D01*
X11666444Y-13170087D02*
X11647396Y-13179611D01*
X11647396Y-13179611D02*
X11628348Y-13179611D01*
X11628348Y-13179611D02*
X11609301Y-13170087D01*
X11609301Y-13170087D02*
X11599777Y-13160563D01*
X11599777Y-13160563D02*
X11590253Y-13141516D01*
X11590253Y-13141516D02*
X11580729Y-13103420D01*
X11580729Y-13103420D02*
X11580729Y-13055801D01*
X11580729Y-13055801D02*
X11590253Y-13017706D01*
X11590253Y-13017706D02*
X11599777Y-12998659D01*
X11599777Y-12998659D02*
X11609301Y-12989135D01*
X11609301Y-12989135D02*
X11628348Y-12979611D01*
X11818825Y-12979611D02*
X11837872Y-12979611D01*
X11837872Y-12979611D02*
X11856920Y-12989135D01*
X11856920Y-12989135D02*
X11866444Y-12998659D01*
X11866444Y-12998659D02*
X11875967Y-13017706D01*
X11875967Y-13017706D02*
X11885491Y-13055801D01*
X11885491Y-13055801D02*
X11885491Y-13103420D01*
X11885491Y-13103420D02*
X11875967Y-13141516D01*
X11875967Y-13141516D02*
X11866444Y-13160563D01*
X11866444Y-13160563D02*
X11856920Y-13170087D01*
X11856920Y-13170087D02*
X11837872Y-13179611D01*
X11837872Y-13179611D02*
X11818825Y-13179611D01*
X11818825Y-13179611D02*
X11799777Y-13170087D01*
X11799777Y-13170087D02*
X11790253Y-13160563D01*
X11790253Y-13160563D02*
X11780729Y-13141516D01*
X11780729Y-13141516D02*
X11771206Y-13103420D01*
X11771206Y-13103420D02*
X11771206Y-13055801D01*
X11771206Y-13055801D02*
X11780729Y-13017706D01*
X11780729Y-13017706D02*
X11790253Y-12998659D01*
X11790253Y-12998659D02*
X11799777Y-12989135D01*
X11799777Y-12989135D02*
X11818825Y-12979611D01*
X11952158Y-12979611D02*
X12075967Y-12979611D01*
X12075967Y-12979611D02*
X12009301Y-13055801D01*
X12009301Y-13055801D02*
X12037872Y-13055801D01*
X12037872Y-13055801D02*
X12056920Y-13065325D01*
X12056920Y-13065325D02*
X12066444Y-13074849D01*
X12066444Y-13074849D02*
X12075967Y-13093897D01*
X12075967Y-13093897D02*
X12075967Y-13141516D01*
X12075967Y-13141516D02*
X12066444Y-13160563D01*
X12066444Y-13160563D02*
X12056920Y-13170087D01*
X12056920Y-13170087D02*
X12037872Y-13179611D01*
X12037872Y-13179611D02*
X11980729Y-13179611D01*
X11980729Y-13179611D02*
X11961682Y-13170087D01*
X11961682Y-13170087D02*
X11952158Y-13160563D01*
X12171206Y-13179611D02*
X12209301Y-13179611D01*
X12209301Y-13179611D02*
X12228348Y-13170087D01*
X12228348Y-13170087D02*
X12237872Y-13160563D01*
X12237872Y-13160563D02*
X12256920Y-13131992D01*
X12256920Y-13131992D02*
X12266444Y-13093897D01*
X12266444Y-13093897D02*
X12266444Y-13017706D01*
X12266444Y-13017706D02*
X12256920Y-12998659D01*
X12256920Y-12998659D02*
X12247396Y-12989135D01*
X12247396Y-12989135D02*
X12228348Y-12979611D01*
X12228348Y-12979611D02*
X12190253Y-12979611D01*
X12190253Y-12979611D02*
X12171206Y-12989135D01*
X12171206Y-12989135D02*
X12161682Y-12998659D01*
X12161682Y-12998659D02*
X12152158Y-13017706D01*
X12152158Y-13017706D02*
X12152158Y-13065325D01*
X12152158Y-13065325D02*
X12161682Y-13084373D01*
X12161682Y-13084373D02*
X12171206Y-13093897D01*
X12171206Y-13093897D02*
X12190253Y-13103420D01*
X12190253Y-13103420D02*
X12228348Y-13103420D01*
X12228348Y-13103420D02*
X12247396Y-13093897D01*
X12247396Y-13093897D02*
X12256920Y-13084373D01*
X12256920Y-13084373D02*
X12266444Y-13065325D01*
X12342634Y-12979611D02*
X12342634Y-13017706D01*
X12418825Y-12979611D02*
X12418825Y-13017706D01*
X12714063Y-13255801D02*
X12704539Y-13246278D01*
X12704539Y-13246278D02*
X12685491Y-13217706D01*
X12685491Y-13217706D02*
X12675968Y-13198659D01*
X12675968Y-13198659D02*
X12666444Y-13170087D01*
X12666444Y-13170087D02*
X12656920Y-13122468D01*
X12656920Y-13122468D02*
X12656920Y-13084373D01*
X12656920Y-13084373D02*
X12666444Y-13036754D01*
X12666444Y-13036754D02*
X12675968Y-13008182D01*
X12675968Y-13008182D02*
X12685491Y-12989135D01*
X12685491Y-12989135D02*
X12704539Y-12960563D01*
X12704539Y-12960563D02*
X12714063Y-12951039D01*
X12885491Y-12979611D02*
X12790253Y-12979611D01*
X12790253Y-12979611D02*
X12780729Y-13074849D01*
X12780729Y-13074849D02*
X12790253Y-13065325D01*
X12790253Y-13065325D02*
X12809301Y-13055801D01*
X12809301Y-13055801D02*
X12856920Y-13055801D01*
X12856920Y-13055801D02*
X12875968Y-13065325D01*
X12875968Y-13065325D02*
X12885491Y-13074849D01*
X12885491Y-13074849D02*
X12895015Y-13093897D01*
X12895015Y-13093897D02*
X12895015Y-13141516D01*
X12895015Y-13141516D02*
X12885491Y-13160563D01*
X12885491Y-13160563D02*
X12875968Y-13170087D01*
X12875968Y-13170087D02*
X12856920Y-13179611D01*
X12856920Y-13179611D02*
X12809301Y-13179611D01*
X12809301Y-13179611D02*
X12790253Y-13170087D01*
X12790253Y-13170087D02*
X12780729Y-13160563D01*
X13133110Y-13179611D02*
X13133110Y-12979611D01*
X13218825Y-13179611D02*
X13218825Y-13074849D01*
X13218825Y-13074849D02*
X13209301Y-13055801D01*
X13209301Y-13055801D02*
X13190253Y-13046278D01*
X13190253Y-13046278D02*
X13161682Y-13046278D01*
X13161682Y-13046278D02*
X13142634Y-13055801D01*
X13142634Y-13055801D02*
X13133110Y-13065325D01*
X13342634Y-13179611D02*
X13323587Y-13170087D01*
X13323587Y-13170087D02*
X13314063Y-13160563D01*
X13314063Y-13160563D02*
X13304539Y-13141516D01*
X13304539Y-13141516D02*
X13304539Y-13084373D01*
X13304539Y-13084373D02*
X13314063Y-13065325D01*
X13314063Y-13065325D02*
X13323587Y-13055801D01*
X13323587Y-13055801D02*
X13342634Y-13046278D01*
X13342634Y-13046278D02*
X13371206Y-13046278D01*
X13371206Y-13046278D02*
X13390253Y-13055801D01*
X13390253Y-13055801D02*
X13399777Y-13065325D01*
X13399777Y-13065325D02*
X13409301Y-13084373D01*
X13409301Y-13084373D02*
X13409301Y-13141516D01*
X13409301Y-13141516D02*
X13399777Y-13160563D01*
X13399777Y-13160563D02*
X13390253Y-13170087D01*
X13390253Y-13170087D02*
X13371206Y-13179611D01*
X13371206Y-13179611D02*
X13342634Y-13179611D01*
X13523587Y-13179611D02*
X13504539Y-13170087D01*
X13504539Y-13170087D02*
X13495015Y-13151039D01*
X13495015Y-13151039D02*
X13495015Y-12979611D01*
X13675968Y-13170087D02*
X13656920Y-13179611D01*
X13656920Y-13179611D02*
X13618825Y-13179611D01*
X13618825Y-13179611D02*
X13599777Y-13170087D01*
X13599777Y-13170087D02*
X13590253Y-13151039D01*
X13590253Y-13151039D02*
X13590253Y-13074849D01*
X13590253Y-13074849D02*
X13599777Y-13055801D01*
X13599777Y-13055801D02*
X13618825Y-13046278D01*
X13618825Y-13046278D02*
X13656920Y-13046278D01*
X13656920Y-13046278D02*
X13675968Y-13055801D01*
X13675968Y-13055801D02*
X13685491Y-13074849D01*
X13685491Y-13074849D02*
X13685491Y-13093897D01*
X13685491Y-13093897D02*
X13590253Y-13112944D01*
X13761682Y-13170087D02*
X13780730Y-13179611D01*
X13780730Y-13179611D02*
X13818825Y-13179611D01*
X13818825Y-13179611D02*
X13837872Y-13170087D01*
X13837872Y-13170087D02*
X13847396Y-13151039D01*
X13847396Y-13151039D02*
X13847396Y-13141516D01*
X13847396Y-13141516D02*
X13837872Y-13122468D01*
X13837872Y-13122468D02*
X13818825Y-13112944D01*
X13818825Y-13112944D02*
X13790253Y-13112944D01*
X13790253Y-13112944D02*
X13771206Y-13103420D01*
X13771206Y-13103420D02*
X13761682Y-13084373D01*
X13761682Y-13084373D02*
X13761682Y-13074849D01*
X13761682Y-13074849D02*
X13771206Y-13055801D01*
X13771206Y-13055801D02*
X13790253Y-13046278D01*
X13790253Y-13046278D02*
X13818825Y-13046278D01*
X13818825Y-13046278D02*
X13837872Y-13055801D01*
X13914063Y-13255801D02*
X13923587Y-13246278D01*
X13923587Y-13246278D02*
X13942634Y-13217706D01*
X13942634Y-13217706D02*
X13952158Y-13198659D01*
X13952158Y-13198659D02*
X13961682Y-13170087D01*
X13961682Y-13170087D02*
X13971206Y-13122468D01*
X13971206Y-13122468D02*
X13971206Y-13084373D01*
X13971206Y-13084373D02*
X13961682Y-13036754D01*
X13961682Y-13036754D02*
X13952158Y-13008182D01*
X13952158Y-13008182D02*
X13942634Y-12989135D01*
X13942634Y-12989135D02*
X13923587Y-12960563D01*
X13923587Y-12960563D02*
X13914063Y-12951039D01*
D10*
X9139000Y-13352127D02*
G75*
G03*
X9109000Y-13352127I-15000J0D01*
G01*
X9109000Y-13352127D02*
G75*
G03*
X9139000Y-13352127I15000J0D01*
G01*
D11*
X9437872Y-13243611D02*
X9456920Y-13243611D01*
X9456920Y-13243611D02*
X9475967Y-13253135D01*
X9475967Y-13253135D02*
X9485491Y-13262659D01*
X9485491Y-13262659D02*
X9495015Y-13281706D01*
X9495015Y-13281706D02*
X9504539Y-13319801D01*
X9504539Y-13319801D02*
X9504539Y-13367420D01*
X9504539Y-13367420D02*
X9495015Y-13405516D01*
X9495015Y-13405516D02*
X9485491Y-13424563D01*
X9485491Y-13424563D02*
X9475967Y-13434087D01*
X9475967Y-13434087D02*
X9456920Y-13443611D01*
X9456920Y-13443611D02*
X9437872Y-13443611D01*
X9437872Y-13443611D02*
X9418824Y-13434087D01*
X9418824Y-13434087D02*
X9409301Y-13424563D01*
X9409301Y-13424563D02*
X9399777Y-13405516D01*
X9399777Y-13405516D02*
X9390253Y-13367420D01*
X9390253Y-13367420D02*
X9390253Y-13319801D01*
X9390253Y-13319801D02*
X9399777Y-13281706D01*
X9399777Y-13281706D02*
X9409301Y-13262659D01*
X9409301Y-13262659D02*
X9418824Y-13253135D01*
X9418824Y-13253135D02*
X9437872Y-13243611D01*
X9590253Y-13424563D02*
X9599777Y-13434087D01*
X9599777Y-13434087D02*
X9590253Y-13443611D01*
X9590253Y-13443611D02*
X9580729Y-13434087D01*
X9580729Y-13434087D02*
X9590253Y-13424563D01*
X9590253Y-13424563D02*
X9590253Y-13443611D01*
X9666444Y-13243611D02*
X9790253Y-13243611D01*
X9790253Y-13243611D02*
X9723586Y-13319801D01*
X9723586Y-13319801D02*
X9752158Y-13319801D01*
X9752158Y-13319801D02*
X9771205Y-13329325D01*
X9771205Y-13329325D02*
X9780729Y-13338849D01*
X9780729Y-13338849D02*
X9790253Y-13357897D01*
X9790253Y-13357897D02*
X9790253Y-13405516D01*
X9790253Y-13405516D02*
X9780729Y-13424563D01*
X9780729Y-13424563D02*
X9771205Y-13434087D01*
X9771205Y-13434087D02*
X9752158Y-13443611D01*
X9752158Y-13443611D02*
X9695015Y-13443611D01*
X9695015Y-13443611D02*
X9675967Y-13434087D01*
X9675967Y-13434087D02*
X9666444Y-13424563D01*
X9914063Y-13243611D02*
X9933110Y-13243611D01*
X9933110Y-13243611D02*
X9952158Y-13253135D01*
X9952158Y-13253135D02*
X9961682Y-13262659D01*
X9961682Y-13262659D02*
X9971205Y-13281706D01*
X9971205Y-13281706D02*
X9980729Y-13319801D01*
X9980729Y-13319801D02*
X9980729Y-13367420D01*
X9980729Y-13367420D02*
X9971205Y-13405516D01*
X9971205Y-13405516D02*
X9961682Y-13424563D01*
X9961682Y-13424563D02*
X9952158Y-13434087D01*
X9952158Y-13434087D02*
X9933110Y-13443611D01*
X9933110Y-13443611D02*
X9914063Y-13443611D01*
X9914063Y-13443611D02*
X9895015Y-13434087D01*
X9895015Y-13434087D02*
X9885491Y-13424563D01*
X9885491Y-13424563D02*
X9875967Y-13405516D01*
X9875967Y-13405516D02*
X9866444Y-13367420D01*
X9866444Y-13367420D02*
X9866444Y-13319801D01*
X9866444Y-13319801D02*
X9875967Y-13281706D01*
X9875967Y-13281706D02*
X9885491Y-13262659D01*
X9885491Y-13262659D02*
X9895015Y-13253135D01*
X9895015Y-13253135D02*
X9914063Y-13243611D01*
X10104539Y-13243611D02*
X10123586Y-13243611D01*
X10123586Y-13243611D02*
X10142634Y-13253135D01*
X10142634Y-13253135D02*
X10152158Y-13262659D01*
X10152158Y-13262659D02*
X10161682Y-13281706D01*
X10161682Y-13281706D02*
X10171205Y-13319801D01*
X10171205Y-13319801D02*
X10171205Y-13367420D01*
X10171205Y-13367420D02*
X10161682Y-13405516D01*
X10161682Y-13405516D02*
X10152158Y-13424563D01*
X10152158Y-13424563D02*
X10142634Y-13434087D01*
X10142634Y-13434087D02*
X10123586Y-13443611D01*
X10123586Y-13443611D02*
X10104539Y-13443611D01*
X10104539Y-13443611D02*
X10085491Y-13434087D01*
X10085491Y-13434087D02*
X10075967Y-13424563D01*
X10075967Y-13424563D02*
X10066444Y-13405516D01*
X10066444Y-13405516D02*
X10056920Y-13367420D01*
X10056920Y-13367420D02*
X10056920Y-13319801D01*
X10056920Y-13319801D02*
X10066444Y-13281706D01*
X10066444Y-13281706D02*
X10075967Y-13262659D01*
X10075967Y-13262659D02*
X10085491Y-13253135D01*
X10085491Y-13253135D02*
X10104539Y-13243611D01*
X10256920Y-13443611D02*
X10256920Y-13310278D01*
X10256920Y-13329325D02*
X10266444Y-13319801D01*
X10266444Y-13319801D02*
X10285491Y-13310278D01*
X10285491Y-13310278D02*
X10314063Y-13310278D01*
X10314063Y-13310278D02*
X10333110Y-13319801D01*
X10333110Y-13319801D02*
X10342634Y-13338849D01*
X10342634Y-13338849D02*
X10342634Y-13443611D01*
X10342634Y-13338849D02*
X10352158Y-13319801D01*
X10352158Y-13319801D02*
X10371205Y-13310278D01*
X10371205Y-13310278D02*
X10399777Y-13310278D01*
X10399777Y-13310278D02*
X10418825Y-13319801D01*
X10418825Y-13319801D02*
X10428348Y-13338849D01*
X10428348Y-13338849D02*
X10428348Y-13443611D01*
X10523586Y-13443611D02*
X10523586Y-13310278D01*
X10523586Y-13329325D02*
X10533110Y-13319801D01*
X10533110Y-13319801D02*
X10552158Y-13310278D01*
X10552158Y-13310278D02*
X10580729Y-13310278D01*
X10580729Y-13310278D02*
X10599777Y-13319801D01*
X10599777Y-13319801D02*
X10609301Y-13338849D01*
X10609301Y-13338849D02*
X10609301Y-13443611D01*
X10609301Y-13338849D02*
X10618825Y-13319801D01*
X10618825Y-13319801D02*
X10637872Y-13310278D01*
X10637872Y-13310278D02*
X10666444Y-13310278D01*
X10666444Y-13310278D02*
X10685491Y-13319801D01*
X10685491Y-13319801D02*
X10695015Y-13338849D01*
X10695015Y-13338849D02*
X10695015Y-13443611D01*
X11085491Y-13234087D02*
X10914063Y-13491230D01*
X11342634Y-13243611D02*
X11361682Y-13243611D01*
X11361682Y-13243611D02*
X11380729Y-13253135D01*
X11380729Y-13253135D02*
X11390253Y-13262659D01*
X11390253Y-13262659D02*
X11399777Y-13281706D01*
X11399777Y-13281706D02*
X11409301Y-13319801D01*
X11409301Y-13319801D02*
X11409301Y-13367420D01*
X11409301Y-13367420D02*
X11399777Y-13405516D01*
X11399777Y-13405516D02*
X11390253Y-13424563D01*
X11390253Y-13424563D02*
X11380729Y-13434087D01*
X11380729Y-13434087D02*
X11361682Y-13443611D01*
X11361682Y-13443611D02*
X11342634Y-13443611D01*
X11342634Y-13443611D02*
X11323586Y-13434087D01*
X11323586Y-13434087D02*
X11314063Y-13424563D01*
X11314063Y-13424563D02*
X11304539Y-13405516D01*
X11304539Y-13405516D02*
X11295015Y-13367420D01*
X11295015Y-13367420D02*
X11295015Y-13319801D01*
X11295015Y-13319801D02*
X11304539Y-13281706D01*
X11304539Y-13281706D02*
X11314063Y-13262659D01*
X11314063Y-13262659D02*
X11323586Y-13253135D01*
X11323586Y-13253135D02*
X11342634Y-13243611D01*
X11495015Y-13424563D02*
X11504539Y-13434087D01*
X11504539Y-13434087D02*
X11495015Y-13443611D01*
X11495015Y-13443611D02*
X11485491Y-13434087D01*
X11485491Y-13434087D02*
X11495015Y-13424563D01*
X11495015Y-13424563D02*
X11495015Y-13443611D01*
X11628348Y-13243611D02*
X11647396Y-13243611D01*
X11647396Y-13243611D02*
X11666444Y-13253135D01*
X11666444Y-13253135D02*
X11675967Y-13262659D01*
X11675967Y-13262659D02*
X11685491Y-13281706D01*
X11685491Y-13281706D02*
X11695015Y-13319801D01*
X11695015Y-13319801D02*
X11695015Y-13367420D01*
X11695015Y-13367420D02*
X11685491Y-13405516D01*
X11685491Y-13405516D02*
X11675967Y-13424563D01*
X11675967Y-13424563D02*
X11666444Y-13434087D01*
X11666444Y-13434087D02*
X11647396Y-13443611D01*
X11647396Y-13443611D02*
X11628348Y-13443611D01*
X11628348Y-13443611D02*
X11609301Y-13434087D01*
X11609301Y-13434087D02*
X11599777Y-13424563D01*
X11599777Y-13424563D02*
X11590253Y-13405516D01*
X11590253Y-13405516D02*
X11580729Y-13367420D01*
X11580729Y-13367420D02*
X11580729Y-13319801D01*
X11580729Y-13319801D02*
X11590253Y-13281706D01*
X11590253Y-13281706D02*
X11599777Y-13262659D01*
X11599777Y-13262659D02*
X11609301Y-13253135D01*
X11609301Y-13253135D02*
X11628348Y-13243611D01*
X11885491Y-13443611D02*
X11771206Y-13443611D01*
X11828348Y-13443611D02*
X11828348Y-13243611D01*
X11828348Y-13243611D02*
X11809301Y-13272182D01*
X11809301Y-13272182D02*
X11790253Y-13291230D01*
X11790253Y-13291230D02*
X11771206Y-13300754D01*
X12075967Y-13443611D02*
X11961682Y-13443611D01*
X12018825Y-13443611D02*
X12018825Y-13243611D01*
X12018825Y-13243611D02*
X11999777Y-13272182D01*
X11999777Y-13272182D02*
X11980729Y-13291230D01*
X11980729Y-13291230D02*
X11961682Y-13300754D01*
X12190253Y-13329325D02*
X12171206Y-13319801D01*
X12171206Y-13319801D02*
X12161682Y-13310278D01*
X12161682Y-13310278D02*
X12152158Y-13291230D01*
X12152158Y-13291230D02*
X12152158Y-13281706D01*
X12152158Y-13281706D02*
X12161682Y-13262659D01*
X12161682Y-13262659D02*
X12171206Y-13253135D01*
X12171206Y-13253135D02*
X12190253Y-13243611D01*
X12190253Y-13243611D02*
X12228348Y-13243611D01*
X12228348Y-13243611D02*
X12247396Y-13253135D01*
X12247396Y-13253135D02*
X12256920Y-13262659D01*
X12256920Y-13262659D02*
X12266444Y-13281706D01*
X12266444Y-13281706D02*
X12266444Y-13291230D01*
X12266444Y-13291230D02*
X12256920Y-13310278D01*
X12256920Y-13310278D02*
X12247396Y-13319801D01*
X12247396Y-13319801D02*
X12228348Y-13329325D01*
X12228348Y-13329325D02*
X12190253Y-13329325D01*
X12190253Y-13329325D02*
X12171206Y-13338849D01*
X12171206Y-13338849D02*
X12161682Y-13348373D01*
X12161682Y-13348373D02*
X12152158Y-13367420D01*
X12152158Y-13367420D02*
X12152158Y-13405516D01*
X12152158Y-13405516D02*
X12161682Y-13424563D01*
X12161682Y-13424563D02*
X12171206Y-13434087D01*
X12171206Y-13434087D02*
X12190253Y-13443611D01*
X12190253Y-13443611D02*
X12228348Y-13443611D01*
X12228348Y-13443611D02*
X12247396Y-13434087D01*
X12247396Y-13434087D02*
X12256920Y-13424563D01*
X12256920Y-13424563D02*
X12266444Y-13405516D01*
X12266444Y-13405516D02*
X12266444Y-13367420D01*
X12266444Y-13367420D02*
X12256920Y-13348373D01*
X12256920Y-13348373D02*
X12247396Y-13338849D01*
X12247396Y-13338849D02*
X12228348Y-13329325D01*
X12342634Y-13243611D02*
X12342634Y-13281706D01*
X12418825Y-13243611D02*
X12418825Y-13281706D01*
X12714063Y-13519801D02*
X12704539Y-13510278D01*
X12704539Y-13510278D02*
X12685491Y-13481706D01*
X12685491Y-13481706D02*
X12675968Y-13462659D01*
X12675968Y-13462659D02*
X12666444Y-13434087D01*
X12666444Y-13434087D02*
X12656920Y-13386468D01*
X12656920Y-13386468D02*
X12656920Y-13348373D01*
X12656920Y-13348373D02*
X12666444Y-13300754D01*
X12666444Y-13300754D02*
X12675968Y-13272182D01*
X12675968Y-13272182D02*
X12685491Y-13253135D01*
X12685491Y-13253135D02*
X12704539Y-13224563D01*
X12704539Y-13224563D02*
X12714063Y-13215039D01*
X12875968Y-13243611D02*
X12837872Y-13243611D01*
X12837872Y-13243611D02*
X12818825Y-13253135D01*
X12818825Y-13253135D02*
X12809301Y-13262659D01*
X12809301Y-13262659D02*
X12790253Y-13291230D01*
X12790253Y-13291230D02*
X12780729Y-13329325D01*
X12780729Y-13329325D02*
X12780729Y-13405516D01*
X12780729Y-13405516D02*
X12790253Y-13424563D01*
X12790253Y-13424563D02*
X12799777Y-13434087D01*
X12799777Y-13434087D02*
X12818825Y-13443611D01*
X12818825Y-13443611D02*
X12856920Y-13443611D01*
X12856920Y-13443611D02*
X12875968Y-13434087D01*
X12875968Y-13434087D02*
X12885491Y-13424563D01*
X12885491Y-13424563D02*
X12895015Y-13405516D01*
X12895015Y-13405516D02*
X12895015Y-13357897D01*
X12895015Y-13357897D02*
X12885491Y-13338849D01*
X12885491Y-13338849D02*
X12875968Y-13329325D01*
X12875968Y-13329325D02*
X12856920Y-13319801D01*
X12856920Y-13319801D02*
X12818825Y-13319801D01*
X12818825Y-13319801D02*
X12799777Y-13329325D01*
X12799777Y-13329325D02*
X12790253Y-13338849D01*
X12790253Y-13338849D02*
X12780729Y-13357897D01*
X13018825Y-13243611D02*
X13037872Y-13243611D01*
X13037872Y-13243611D02*
X13056920Y-13253135D01*
X13056920Y-13253135D02*
X13066444Y-13262659D01*
X13066444Y-13262659D02*
X13075968Y-13281706D01*
X13075968Y-13281706D02*
X13085491Y-13319801D01*
X13085491Y-13319801D02*
X13085491Y-13367420D01*
X13085491Y-13367420D02*
X13075968Y-13405516D01*
X13075968Y-13405516D02*
X13066444Y-13424563D01*
X13066444Y-13424563D02*
X13056920Y-13434087D01*
X13056920Y-13434087D02*
X13037872Y-13443611D01*
X13037872Y-13443611D02*
X13018825Y-13443611D01*
X13018825Y-13443611D02*
X12999777Y-13434087D01*
X12999777Y-13434087D02*
X12990253Y-13424563D01*
X12990253Y-13424563D02*
X12980729Y-13405516D01*
X12980729Y-13405516D02*
X12971206Y-13367420D01*
X12971206Y-13367420D02*
X12971206Y-13319801D01*
X12971206Y-13319801D02*
X12980729Y-13281706D01*
X12980729Y-13281706D02*
X12990253Y-13262659D01*
X12990253Y-13262659D02*
X12999777Y-13253135D01*
X12999777Y-13253135D02*
X13018825Y-13243611D01*
X13323587Y-13443611D02*
X13323587Y-13243611D01*
X13409301Y-13443611D02*
X13409301Y-13338849D01*
X13409301Y-13338849D02*
X13399777Y-13319801D01*
X13399777Y-13319801D02*
X13380730Y-13310278D01*
X13380730Y-13310278D02*
X13352158Y-13310278D01*
X13352158Y-13310278D02*
X13333110Y-13319801D01*
X13333110Y-13319801D02*
X13323587Y-13329325D01*
X13533110Y-13443611D02*
X13514063Y-13434087D01*
X13514063Y-13434087D02*
X13504539Y-13424563D01*
X13504539Y-13424563D02*
X13495015Y-13405516D01*
X13495015Y-13405516D02*
X13495015Y-13348373D01*
X13495015Y-13348373D02*
X13504539Y-13329325D01*
X13504539Y-13329325D02*
X13514063Y-13319801D01*
X13514063Y-13319801D02*
X13533110Y-13310278D01*
X13533110Y-13310278D02*
X13561682Y-13310278D01*
X13561682Y-13310278D02*
X13580730Y-13319801D01*
X13580730Y-13319801D02*
X13590253Y-13329325D01*
X13590253Y-13329325D02*
X13599777Y-13348373D01*
X13599777Y-13348373D02*
X13599777Y-13405516D01*
X13599777Y-13405516D02*
X13590253Y-13424563D01*
X13590253Y-13424563D02*
X13580730Y-13434087D01*
X13580730Y-13434087D02*
X13561682Y-13443611D01*
X13561682Y-13443611D02*
X13533110Y-13443611D01*
X13714063Y-13443611D02*
X13695015Y-13434087D01*
X13695015Y-13434087D02*
X13685491Y-13415039D01*
X13685491Y-13415039D02*
X13685491Y-13243611D01*
X13866444Y-13434087D02*
X13847396Y-13443611D01*
X13847396Y-13443611D02*
X13809301Y-13443611D01*
X13809301Y-13443611D02*
X13790253Y-13434087D01*
X13790253Y-13434087D02*
X13780730Y-13415039D01*
X13780730Y-13415039D02*
X13780730Y-13338849D01*
X13780730Y-13338849D02*
X13790253Y-13319801D01*
X13790253Y-13319801D02*
X13809301Y-13310278D01*
X13809301Y-13310278D02*
X13847396Y-13310278D01*
X13847396Y-13310278D02*
X13866444Y-13319801D01*
X13866444Y-13319801D02*
X13875968Y-13338849D01*
X13875968Y-13338849D02*
X13875968Y-13357897D01*
X13875968Y-13357897D02*
X13780730Y-13376944D01*
X13952158Y-13434087D02*
X13971206Y-13443611D01*
X13971206Y-13443611D02*
X14009301Y-13443611D01*
X14009301Y-13443611D02*
X14028349Y-13434087D01*
X14028349Y-13434087D02*
X14037872Y-13415039D01*
X14037872Y-13415039D02*
X14037872Y-13405516D01*
X14037872Y-13405516D02*
X14028349Y-13386468D01*
X14028349Y-13386468D02*
X14009301Y-13376944D01*
X14009301Y-13376944D02*
X13980730Y-13376944D01*
X13980730Y-13376944D02*
X13961682Y-13367420D01*
X13961682Y-13367420D02*
X13952158Y-13348373D01*
X13952158Y-13348373D02*
X13952158Y-13338849D01*
X13952158Y-13338849D02*
X13961682Y-13319801D01*
X13961682Y-13319801D02*
X13980730Y-13310278D01*
X13980730Y-13310278D02*
X14009301Y-13310278D01*
X14009301Y-13310278D02*
X14028349Y-13319801D01*
X14104539Y-13519801D02*
X14114063Y-13510278D01*
X14114063Y-13510278D02*
X14133111Y-13481706D01*
X14133111Y-13481706D02*
X14142634Y-13462659D01*
X14142634Y-13462659D02*
X14152158Y-13434087D01*
X14152158Y-13434087D02*
X14161682Y-13386468D01*
X14161682Y-13386468D02*
X14161682Y-13348373D01*
X14161682Y-13348373D02*
X14152158Y-13300754D01*
X14152158Y-13300754D02*
X14142634Y-13272182D01*
X14142634Y-13272182D02*
X14133111Y-13253135D01*
X14133111Y-13253135D02*
X14114063Y-13224563D01*
X14114063Y-13224563D02*
X14104539Y-13215039D01*
D10*
X9109000Y-13586127D02*
X9109000Y-13646127D01*
X9079000Y-13616127D02*
X9139000Y-13616127D01*
D11*
X9437872Y-13507611D02*
X9456920Y-13507611D01*
X9456920Y-13507611D02*
X9475967Y-13517135D01*
X9475967Y-13517135D02*
X9485491Y-13526659D01*
X9485491Y-13526659D02*
X9495015Y-13545706D01*
X9495015Y-13545706D02*
X9504539Y-13583801D01*
X9504539Y-13583801D02*
X9504539Y-13631420D01*
X9504539Y-13631420D02*
X9495015Y-13669516D01*
X9495015Y-13669516D02*
X9485491Y-13688563D01*
X9485491Y-13688563D02*
X9475967Y-13698087D01*
X9475967Y-13698087D02*
X9456920Y-13707611D01*
X9456920Y-13707611D02*
X9437872Y-13707611D01*
X9437872Y-13707611D02*
X9418824Y-13698087D01*
X9418824Y-13698087D02*
X9409301Y-13688563D01*
X9409301Y-13688563D02*
X9399777Y-13669516D01*
X9399777Y-13669516D02*
X9390253Y-13631420D01*
X9390253Y-13631420D02*
X9390253Y-13583801D01*
X9390253Y-13583801D02*
X9399777Y-13545706D01*
X9399777Y-13545706D02*
X9409301Y-13526659D01*
X9409301Y-13526659D02*
X9418824Y-13517135D01*
X9418824Y-13517135D02*
X9437872Y-13507611D01*
X9590253Y-13688563D02*
X9599777Y-13698087D01*
X9599777Y-13698087D02*
X9590253Y-13707611D01*
X9590253Y-13707611D02*
X9580729Y-13698087D01*
X9580729Y-13698087D02*
X9590253Y-13688563D01*
X9590253Y-13688563D02*
X9590253Y-13707611D01*
X9771205Y-13507611D02*
X9733110Y-13507611D01*
X9733110Y-13507611D02*
X9714063Y-13517135D01*
X9714063Y-13517135D02*
X9704539Y-13526659D01*
X9704539Y-13526659D02*
X9685491Y-13555230D01*
X9685491Y-13555230D02*
X9675967Y-13593325D01*
X9675967Y-13593325D02*
X9675967Y-13669516D01*
X9675967Y-13669516D02*
X9685491Y-13688563D01*
X9685491Y-13688563D02*
X9695015Y-13698087D01*
X9695015Y-13698087D02*
X9714063Y-13707611D01*
X9714063Y-13707611D02*
X9752158Y-13707611D01*
X9752158Y-13707611D02*
X9771205Y-13698087D01*
X9771205Y-13698087D02*
X9780729Y-13688563D01*
X9780729Y-13688563D02*
X9790253Y-13669516D01*
X9790253Y-13669516D02*
X9790253Y-13621897D01*
X9790253Y-13621897D02*
X9780729Y-13602849D01*
X9780729Y-13602849D02*
X9771205Y-13593325D01*
X9771205Y-13593325D02*
X9752158Y-13583801D01*
X9752158Y-13583801D02*
X9714063Y-13583801D01*
X9714063Y-13583801D02*
X9695015Y-13593325D01*
X9695015Y-13593325D02*
X9685491Y-13602849D01*
X9685491Y-13602849D02*
X9675967Y-13621897D01*
X9914063Y-13507611D02*
X9933110Y-13507611D01*
X9933110Y-13507611D02*
X9952158Y-13517135D01*
X9952158Y-13517135D02*
X9961682Y-13526659D01*
X9961682Y-13526659D02*
X9971205Y-13545706D01*
X9971205Y-13545706D02*
X9980729Y-13583801D01*
X9980729Y-13583801D02*
X9980729Y-13631420D01*
X9980729Y-13631420D02*
X9971205Y-13669516D01*
X9971205Y-13669516D02*
X9961682Y-13688563D01*
X9961682Y-13688563D02*
X9952158Y-13698087D01*
X9952158Y-13698087D02*
X9933110Y-13707611D01*
X9933110Y-13707611D02*
X9914063Y-13707611D01*
X9914063Y-13707611D02*
X9895015Y-13698087D01*
X9895015Y-13698087D02*
X9885491Y-13688563D01*
X9885491Y-13688563D02*
X9875967Y-13669516D01*
X9875967Y-13669516D02*
X9866444Y-13631420D01*
X9866444Y-13631420D02*
X9866444Y-13583801D01*
X9866444Y-13583801D02*
X9875967Y-13545706D01*
X9875967Y-13545706D02*
X9885491Y-13526659D01*
X9885491Y-13526659D02*
X9895015Y-13517135D01*
X9895015Y-13517135D02*
X9914063Y-13507611D01*
X10104539Y-13507611D02*
X10123586Y-13507611D01*
X10123586Y-13507611D02*
X10142634Y-13517135D01*
X10142634Y-13517135D02*
X10152158Y-13526659D01*
X10152158Y-13526659D02*
X10161682Y-13545706D01*
X10161682Y-13545706D02*
X10171205Y-13583801D01*
X10171205Y-13583801D02*
X10171205Y-13631420D01*
X10171205Y-13631420D02*
X10161682Y-13669516D01*
X10161682Y-13669516D02*
X10152158Y-13688563D01*
X10152158Y-13688563D02*
X10142634Y-13698087D01*
X10142634Y-13698087D02*
X10123586Y-13707611D01*
X10123586Y-13707611D02*
X10104539Y-13707611D01*
X10104539Y-13707611D02*
X10085491Y-13698087D01*
X10085491Y-13698087D02*
X10075967Y-13688563D01*
X10075967Y-13688563D02*
X10066444Y-13669516D01*
X10066444Y-13669516D02*
X10056920Y-13631420D01*
X10056920Y-13631420D02*
X10056920Y-13583801D01*
X10056920Y-13583801D02*
X10066444Y-13545706D01*
X10066444Y-13545706D02*
X10075967Y-13526659D01*
X10075967Y-13526659D02*
X10085491Y-13517135D01*
X10085491Y-13517135D02*
X10104539Y-13507611D01*
X10256920Y-13707611D02*
X10256920Y-13574278D01*
X10256920Y-13593325D02*
X10266444Y-13583801D01*
X10266444Y-13583801D02*
X10285491Y-13574278D01*
X10285491Y-13574278D02*
X10314063Y-13574278D01*
X10314063Y-13574278D02*
X10333110Y-13583801D01*
X10333110Y-13583801D02*
X10342634Y-13602849D01*
X10342634Y-13602849D02*
X10342634Y-13707611D01*
X10342634Y-13602849D02*
X10352158Y-13583801D01*
X10352158Y-13583801D02*
X10371205Y-13574278D01*
X10371205Y-13574278D02*
X10399777Y-13574278D01*
X10399777Y-13574278D02*
X10418825Y-13583801D01*
X10418825Y-13583801D02*
X10428348Y-13602849D01*
X10428348Y-13602849D02*
X10428348Y-13707611D01*
X10523586Y-13707611D02*
X10523586Y-13574278D01*
X10523586Y-13593325D02*
X10533110Y-13583801D01*
X10533110Y-13583801D02*
X10552158Y-13574278D01*
X10552158Y-13574278D02*
X10580729Y-13574278D01*
X10580729Y-13574278D02*
X10599777Y-13583801D01*
X10599777Y-13583801D02*
X10609301Y-13602849D01*
X10609301Y-13602849D02*
X10609301Y-13707611D01*
X10609301Y-13602849D02*
X10618825Y-13583801D01*
X10618825Y-13583801D02*
X10637872Y-13574278D01*
X10637872Y-13574278D02*
X10666444Y-13574278D01*
X10666444Y-13574278D02*
X10685491Y-13583801D01*
X10685491Y-13583801D02*
X10695015Y-13602849D01*
X10695015Y-13602849D02*
X10695015Y-13707611D01*
X11085491Y-13498087D02*
X10914063Y-13755230D01*
X11342634Y-13507611D02*
X11361682Y-13507611D01*
X11361682Y-13507611D02*
X11380729Y-13517135D01*
X11380729Y-13517135D02*
X11390253Y-13526659D01*
X11390253Y-13526659D02*
X11399777Y-13545706D01*
X11399777Y-13545706D02*
X11409301Y-13583801D01*
X11409301Y-13583801D02*
X11409301Y-13631420D01*
X11409301Y-13631420D02*
X11399777Y-13669516D01*
X11399777Y-13669516D02*
X11390253Y-13688563D01*
X11390253Y-13688563D02*
X11380729Y-13698087D01*
X11380729Y-13698087D02*
X11361682Y-13707611D01*
X11361682Y-13707611D02*
X11342634Y-13707611D01*
X11342634Y-13707611D02*
X11323586Y-13698087D01*
X11323586Y-13698087D02*
X11314063Y-13688563D01*
X11314063Y-13688563D02*
X11304539Y-13669516D01*
X11304539Y-13669516D02*
X11295015Y-13631420D01*
X11295015Y-13631420D02*
X11295015Y-13583801D01*
X11295015Y-13583801D02*
X11304539Y-13545706D01*
X11304539Y-13545706D02*
X11314063Y-13526659D01*
X11314063Y-13526659D02*
X11323586Y-13517135D01*
X11323586Y-13517135D02*
X11342634Y-13507611D01*
X11495015Y-13688563D02*
X11504539Y-13698087D01*
X11504539Y-13698087D02*
X11495015Y-13707611D01*
X11495015Y-13707611D02*
X11485491Y-13698087D01*
X11485491Y-13698087D02*
X11495015Y-13688563D01*
X11495015Y-13688563D02*
X11495015Y-13707611D01*
X11628348Y-13507611D02*
X11647396Y-13507611D01*
X11647396Y-13507611D02*
X11666444Y-13517135D01*
X11666444Y-13517135D02*
X11675967Y-13526659D01*
X11675967Y-13526659D02*
X11685491Y-13545706D01*
X11685491Y-13545706D02*
X11695015Y-13583801D01*
X11695015Y-13583801D02*
X11695015Y-13631420D01*
X11695015Y-13631420D02*
X11685491Y-13669516D01*
X11685491Y-13669516D02*
X11675967Y-13688563D01*
X11675967Y-13688563D02*
X11666444Y-13698087D01*
X11666444Y-13698087D02*
X11647396Y-13707611D01*
X11647396Y-13707611D02*
X11628348Y-13707611D01*
X11628348Y-13707611D02*
X11609301Y-13698087D01*
X11609301Y-13698087D02*
X11599777Y-13688563D01*
X11599777Y-13688563D02*
X11590253Y-13669516D01*
X11590253Y-13669516D02*
X11580729Y-13631420D01*
X11580729Y-13631420D02*
X11580729Y-13583801D01*
X11580729Y-13583801D02*
X11590253Y-13545706D01*
X11590253Y-13545706D02*
X11599777Y-13526659D01*
X11599777Y-13526659D02*
X11609301Y-13517135D01*
X11609301Y-13517135D02*
X11628348Y-13507611D01*
X11771206Y-13526659D02*
X11780729Y-13517135D01*
X11780729Y-13517135D02*
X11799777Y-13507611D01*
X11799777Y-13507611D02*
X11847396Y-13507611D01*
X11847396Y-13507611D02*
X11866444Y-13517135D01*
X11866444Y-13517135D02*
X11875967Y-13526659D01*
X11875967Y-13526659D02*
X11885491Y-13545706D01*
X11885491Y-13545706D02*
X11885491Y-13564754D01*
X11885491Y-13564754D02*
X11875967Y-13593325D01*
X11875967Y-13593325D02*
X11761682Y-13707611D01*
X11761682Y-13707611D02*
X11885491Y-13707611D01*
X11952158Y-13507611D02*
X12075967Y-13507611D01*
X12075967Y-13507611D02*
X12009301Y-13583801D01*
X12009301Y-13583801D02*
X12037872Y-13583801D01*
X12037872Y-13583801D02*
X12056920Y-13593325D01*
X12056920Y-13593325D02*
X12066444Y-13602849D01*
X12066444Y-13602849D02*
X12075967Y-13621897D01*
X12075967Y-13621897D02*
X12075967Y-13669516D01*
X12075967Y-13669516D02*
X12066444Y-13688563D01*
X12066444Y-13688563D02*
X12056920Y-13698087D01*
X12056920Y-13698087D02*
X12037872Y-13707611D01*
X12037872Y-13707611D02*
X11980729Y-13707611D01*
X11980729Y-13707611D02*
X11961682Y-13698087D01*
X11961682Y-13698087D02*
X11952158Y-13688563D01*
X12247396Y-13507611D02*
X12209301Y-13507611D01*
X12209301Y-13507611D02*
X12190253Y-13517135D01*
X12190253Y-13517135D02*
X12180729Y-13526659D01*
X12180729Y-13526659D02*
X12161682Y-13555230D01*
X12161682Y-13555230D02*
X12152158Y-13593325D01*
X12152158Y-13593325D02*
X12152158Y-13669516D01*
X12152158Y-13669516D02*
X12161682Y-13688563D01*
X12161682Y-13688563D02*
X12171206Y-13698087D01*
X12171206Y-13698087D02*
X12190253Y-13707611D01*
X12190253Y-13707611D02*
X12228348Y-13707611D01*
X12228348Y-13707611D02*
X12247396Y-13698087D01*
X12247396Y-13698087D02*
X12256920Y-13688563D01*
X12256920Y-13688563D02*
X12266444Y-13669516D01*
X12266444Y-13669516D02*
X12266444Y-13621897D01*
X12266444Y-13621897D02*
X12256920Y-13602849D01*
X12256920Y-13602849D02*
X12247396Y-13593325D01*
X12247396Y-13593325D02*
X12228348Y-13583801D01*
X12228348Y-13583801D02*
X12190253Y-13583801D01*
X12190253Y-13583801D02*
X12171206Y-13593325D01*
X12171206Y-13593325D02*
X12161682Y-13602849D01*
X12161682Y-13602849D02*
X12152158Y-13621897D01*
X12342634Y-13507611D02*
X12342634Y-13545706D01*
X12418825Y-13507611D02*
X12418825Y-13545706D01*
X12714063Y-13783801D02*
X12704539Y-13774278D01*
X12704539Y-13774278D02*
X12685491Y-13745706D01*
X12685491Y-13745706D02*
X12675968Y-13726659D01*
X12675968Y-13726659D02*
X12666444Y-13698087D01*
X12666444Y-13698087D02*
X12656920Y-13650468D01*
X12656920Y-13650468D02*
X12656920Y-13612373D01*
X12656920Y-13612373D02*
X12666444Y-13564754D01*
X12666444Y-13564754D02*
X12675968Y-13536182D01*
X12675968Y-13536182D02*
X12685491Y-13517135D01*
X12685491Y-13517135D02*
X12704539Y-13488563D01*
X12704539Y-13488563D02*
X12714063Y-13479039D01*
X12828348Y-13507611D02*
X12847396Y-13507611D01*
X12847396Y-13507611D02*
X12866444Y-13517135D01*
X12866444Y-13517135D02*
X12875968Y-13526659D01*
X12875968Y-13526659D02*
X12885491Y-13545706D01*
X12885491Y-13545706D02*
X12895015Y-13583801D01*
X12895015Y-13583801D02*
X12895015Y-13631420D01*
X12895015Y-13631420D02*
X12885491Y-13669516D01*
X12885491Y-13669516D02*
X12875968Y-13688563D01*
X12875968Y-13688563D02*
X12866444Y-13698087D01*
X12866444Y-13698087D02*
X12847396Y-13707611D01*
X12847396Y-13707611D02*
X12828348Y-13707611D01*
X12828348Y-13707611D02*
X12809301Y-13698087D01*
X12809301Y-13698087D02*
X12799777Y-13688563D01*
X12799777Y-13688563D02*
X12790253Y-13669516D01*
X12790253Y-13669516D02*
X12780729Y-13631420D01*
X12780729Y-13631420D02*
X12780729Y-13583801D01*
X12780729Y-13583801D02*
X12790253Y-13545706D01*
X12790253Y-13545706D02*
X12799777Y-13526659D01*
X12799777Y-13526659D02*
X12809301Y-13517135D01*
X12809301Y-13517135D02*
X12828348Y-13507611D01*
X13133110Y-13707611D02*
X13133110Y-13507611D01*
X13218825Y-13707611D02*
X13218825Y-13602849D01*
X13218825Y-13602849D02*
X13209301Y-13583801D01*
X13209301Y-13583801D02*
X13190253Y-13574278D01*
X13190253Y-13574278D02*
X13161682Y-13574278D01*
X13161682Y-13574278D02*
X13142634Y-13583801D01*
X13142634Y-13583801D02*
X13133110Y-13593325D01*
X13342634Y-13707611D02*
X13323587Y-13698087D01*
X13323587Y-13698087D02*
X13314063Y-13688563D01*
X13314063Y-13688563D02*
X13304539Y-13669516D01*
X13304539Y-13669516D02*
X13304539Y-13612373D01*
X13304539Y-13612373D02*
X13314063Y-13593325D01*
X13314063Y-13593325D02*
X13323587Y-13583801D01*
X13323587Y-13583801D02*
X13342634Y-13574278D01*
X13342634Y-13574278D02*
X13371206Y-13574278D01*
X13371206Y-13574278D02*
X13390253Y-13583801D01*
X13390253Y-13583801D02*
X13399777Y-13593325D01*
X13399777Y-13593325D02*
X13409301Y-13612373D01*
X13409301Y-13612373D02*
X13409301Y-13669516D01*
X13409301Y-13669516D02*
X13399777Y-13688563D01*
X13399777Y-13688563D02*
X13390253Y-13698087D01*
X13390253Y-13698087D02*
X13371206Y-13707611D01*
X13371206Y-13707611D02*
X13342634Y-13707611D01*
X13523587Y-13707611D02*
X13504539Y-13698087D01*
X13504539Y-13698087D02*
X13495015Y-13679039D01*
X13495015Y-13679039D02*
X13495015Y-13507611D01*
X13675968Y-13698087D02*
X13656920Y-13707611D01*
X13656920Y-13707611D02*
X13618825Y-13707611D01*
X13618825Y-13707611D02*
X13599777Y-13698087D01*
X13599777Y-13698087D02*
X13590253Y-13679039D01*
X13590253Y-13679039D02*
X13590253Y-13602849D01*
X13590253Y-13602849D02*
X13599777Y-13583801D01*
X13599777Y-13583801D02*
X13618825Y-13574278D01*
X13618825Y-13574278D02*
X13656920Y-13574278D01*
X13656920Y-13574278D02*
X13675968Y-13583801D01*
X13675968Y-13583801D02*
X13685491Y-13602849D01*
X13685491Y-13602849D02*
X13685491Y-13621897D01*
X13685491Y-13621897D02*
X13590253Y-13640944D01*
X13761682Y-13698087D02*
X13780730Y-13707611D01*
X13780730Y-13707611D02*
X13818825Y-13707611D01*
X13818825Y-13707611D02*
X13837872Y-13698087D01*
X13837872Y-13698087D02*
X13847396Y-13679039D01*
X13847396Y-13679039D02*
X13847396Y-13669516D01*
X13847396Y-13669516D02*
X13837872Y-13650468D01*
X13837872Y-13650468D02*
X13818825Y-13640944D01*
X13818825Y-13640944D02*
X13790253Y-13640944D01*
X13790253Y-13640944D02*
X13771206Y-13631420D01*
X13771206Y-13631420D02*
X13761682Y-13612373D01*
X13761682Y-13612373D02*
X13761682Y-13602849D01*
X13761682Y-13602849D02*
X13771206Y-13583801D01*
X13771206Y-13583801D02*
X13790253Y-13574278D01*
X13790253Y-13574278D02*
X13818825Y-13574278D01*
X13818825Y-13574278D02*
X13837872Y-13583801D01*
X14085492Y-13631420D02*
X14237873Y-13631420D01*
X14161682Y-13707611D02*
X14161682Y-13555230D01*
X14571206Y-13507611D02*
X14533111Y-13507611D01*
X14533111Y-13507611D02*
X14514063Y-13517135D01*
X14514063Y-13517135D02*
X14504539Y-13526659D01*
X14504539Y-13526659D02*
X14485492Y-13555230D01*
X14485492Y-13555230D02*
X14475968Y-13593325D01*
X14475968Y-13593325D02*
X14475968Y-13669516D01*
X14475968Y-13669516D02*
X14485492Y-13688563D01*
X14485492Y-13688563D02*
X14495015Y-13698087D01*
X14495015Y-13698087D02*
X14514063Y-13707611D01*
X14514063Y-13707611D02*
X14552158Y-13707611D01*
X14552158Y-13707611D02*
X14571206Y-13698087D01*
X14571206Y-13698087D02*
X14580730Y-13688563D01*
X14580730Y-13688563D02*
X14590253Y-13669516D01*
X14590253Y-13669516D02*
X14590253Y-13621897D01*
X14590253Y-13621897D02*
X14580730Y-13602849D01*
X14580730Y-13602849D02*
X14571206Y-13593325D01*
X14571206Y-13593325D02*
X14552158Y-13583801D01*
X14552158Y-13583801D02*
X14514063Y-13583801D01*
X14514063Y-13583801D02*
X14495015Y-13593325D01*
X14495015Y-13593325D02*
X14485492Y-13602849D01*
X14485492Y-13602849D02*
X14475968Y-13621897D01*
X14818825Y-13698087D02*
X14837873Y-13707611D01*
X14837873Y-13707611D02*
X14875968Y-13707611D01*
X14875968Y-13707611D02*
X14895015Y-13698087D01*
X14895015Y-13698087D02*
X14904539Y-13679039D01*
X14904539Y-13679039D02*
X14904539Y-13669516D01*
X14904539Y-13669516D02*
X14895015Y-13650468D01*
X14895015Y-13650468D02*
X14875968Y-13640944D01*
X14875968Y-13640944D02*
X14847396Y-13640944D01*
X14847396Y-13640944D02*
X14828349Y-13631420D01*
X14828349Y-13631420D02*
X14818825Y-13612373D01*
X14818825Y-13612373D02*
X14818825Y-13602849D01*
X14818825Y-13602849D02*
X14828349Y-13583801D01*
X14828349Y-13583801D02*
X14847396Y-13574278D01*
X14847396Y-13574278D02*
X14875968Y-13574278D01*
X14875968Y-13574278D02*
X14895015Y-13583801D01*
X15018825Y-13707611D02*
X14999777Y-13698087D01*
X14999777Y-13698087D02*
X14990254Y-13679039D01*
X14990254Y-13679039D02*
X14990254Y-13507611D01*
X15123587Y-13707611D02*
X15104539Y-13698087D01*
X15104539Y-13698087D02*
X15095015Y-13688563D01*
X15095015Y-13688563D02*
X15085492Y-13669516D01*
X15085492Y-13669516D02*
X15085492Y-13612373D01*
X15085492Y-13612373D02*
X15095015Y-13593325D01*
X15095015Y-13593325D02*
X15104539Y-13583801D01*
X15104539Y-13583801D02*
X15123587Y-13574278D01*
X15123587Y-13574278D02*
X15152158Y-13574278D01*
X15152158Y-13574278D02*
X15171206Y-13583801D01*
X15171206Y-13583801D02*
X15180730Y-13593325D01*
X15180730Y-13593325D02*
X15190254Y-13612373D01*
X15190254Y-13612373D02*
X15190254Y-13669516D01*
X15190254Y-13669516D02*
X15180730Y-13688563D01*
X15180730Y-13688563D02*
X15171206Y-13698087D01*
X15171206Y-13698087D02*
X15152158Y-13707611D01*
X15152158Y-13707611D02*
X15123587Y-13707611D01*
X15247396Y-13574278D02*
X15323587Y-13574278D01*
X15275968Y-13507611D02*
X15275968Y-13679039D01*
X15275968Y-13679039D02*
X15285492Y-13698087D01*
X15285492Y-13698087D02*
X15304539Y-13707611D01*
X15304539Y-13707611D02*
X15323587Y-13707611D01*
X15380730Y-13698087D02*
X15399777Y-13707611D01*
X15399777Y-13707611D02*
X15437873Y-13707611D01*
X15437873Y-13707611D02*
X15456920Y-13698087D01*
X15456920Y-13698087D02*
X15466444Y-13679039D01*
X15466444Y-13679039D02*
X15466444Y-13669516D01*
X15466444Y-13669516D02*
X15456920Y-13650468D01*
X15456920Y-13650468D02*
X15437873Y-13640944D01*
X15437873Y-13640944D02*
X15409301Y-13640944D01*
X15409301Y-13640944D02*
X15390254Y-13631420D01*
X15390254Y-13631420D02*
X15380730Y-13612373D01*
X15380730Y-13612373D02*
X15380730Y-13602849D01*
X15380730Y-13602849D02*
X15390254Y-13583801D01*
X15390254Y-13583801D02*
X15409301Y-13574278D01*
X15409301Y-13574278D02*
X15437873Y-13574278D01*
X15437873Y-13574278D02*
X15456920Y-13583801D01*
X15533111Y-13783801D02*
X15542635Y-13774278D01*
X15542635Y-13774278D02*
X15561682Y-13745706D01*
X15561682Y-13745706D02*
X15571206Y-13726659D01*
X15571206Y-13726659D02*
X15580730Y-13698087D01*
X15580730Y-13698087D02*
X15590254Y-13650468D01*
X15590254Y-13650468D02*
X15590254Y-13612373D01*
X15590254Y-13612373D02*
X15580730Y-13564754D01*
X15580730Y-13564754D02*
X15571206Y-13536182D01*
X15571206Y-13536182D02*
X15561682Y-13517135D01*
X15561682Y-13517135D02*
X15542635Y-13488563D01*
X15542635Y-13488563D02*
X15533111Y-13479039D01*
D10*
X9129481Y-13903108D02*
X9129481Y-13857146D01*
X9083519Y-13857146D01*
X9083519Y-13903108D01*
X9129481Y-13903108D01*
D11*
X9437872Y-13771611D02*
X9456920Y-13771611D01*
X9456920Y-13771611D02*
X9475967Y-13781135D01*
X9475967Y-13781135D02*
X9485491Y-13790659D01*
X9485491Y-13790659D02*
X9495015Y-13809706D01*
X9495015Y-13809706D02*
X9504539Y-13847801D01*
X9504539Y-13847801D02*
X9504539Y-13895420D01*
X9504539Y-13895420D02*
X9495015Y-13933516D01*
X9495015Y-13933516D02*
X9485491Y-13952563D01*
X9485491Y-13952563D02*
X9475967Y-13962087D01*
X9475967Y-13962087D02*
X9456920Y-13971611D01*
X9456920Y-13971611D02*
X9437872Y-13971611D01*
X9437872Y-13971611D02*
X9418824Y-13962087D01*
X9418824Y-13962087D02*
X9409301Y-13952563D01*
X9409301Y-13952563D02*
X9399777Y-13933516D01*
X9399777Y-13933516D02*
X9390253Y-13895420D01*
X9390253Y-13895420D02*
X9390253Y-13847801D01*
X9390253Y-13847801D02*
X9399777Y-13809706D01*
X9399777Y-13809706D02*
X9409301Y-13790659D01*
X9409301Y-13790659D02*
X9418824Y-13781135D01*
X9418824Y-13781135D02*
X9437872Y-13771611D01*
X9590253Y-13952563D02*
X9599777Y-13962087D01*
X9599777Y-13962087D02*
X9590253Y-13971611D01*
X9590253Y-13971611D02*
X9580729Y-13962087D01*
X9580729Y-13962087D02*
X9590253Y-13952563D01*
X9590253Y-13952563D02*
X9590253Y-13971611D01*
X9771205Y-13771611D02*
X9733110Y-13771611D01*
X9733110Y-13771611D02*
X9714063Y-13781135D01*
X9714063Y-13781135D02*
X9704539Y-13790659D01*
X9704539Y-13790659D02*
X9685491Y-13819230D01*
X9685491Y-13819230D02*
X9675967Y-13857325D01*
X9675967Y-13857325D02*
X9675967Y-13933516D01*
X9675967Y-13933516D02*
X9685491Y-13952563D01*
X9685491Y-13952563D02*
X9695015Y-13962087D01*
X9695015Y-13962087D02*
X9714063Y-13971611D01*
X9714063Y-13971611D02*
X9752158Y-13971611D01*
X9752158Y-13971611D02*
X9771205Y-13962087D01*
X9771205Y-13962087D02*
X9780729Y-13952563D01*
X9780729Y-13952563D02*
X9790253Y-13933516D01*
X9790253Y-13933516D02*
X9790253Y-13885897D01*
X9790253Y-13885897D02*
X9780729Y-13866849D01*
X9780729Y-13866849D02*
X9771205Y-13857325D01*
X9771205Y-13857325D02*
X9752158Y-13847801D01*
X9752158Y-13847801D02*
X9714063Y-13847801D01*
X9714063Y-13847801D02*
X9695015Y-13857325D01*
X9695015Y-13857325D02*
X9685491Y-13866849D01*
X9685491Y-13866849D02*
X9675967Y-13885897D01*
X9971205Y-13771611D02*
X9875967Y-13771611D01*
X9875967Y-13771611D02*
X9866444Y-13866849D01*
X9866444Y-13866849D02*
X9875967Y-13857325D01*
X9875967Y-13857325D02*
X9895015Y-13847801D01*
X9895015Y-13847801D02*
X9942634Y-13847801D01*
X9942634Y-13847801D02*
X9961682Y-13857325D01*
X9961682Y-13857325D02*
X9971205Y-13866849D01*
X9971205Y-13866849D02*
X9980729Y-13885897D01*
X9980729Y-13885897D02*
X9980729Y-13933516D01*
X9980729Y-13933516D02*
X9971205Y-13952563D01*
X9971205Y-13952563D02*
X9961682Y-13962087D01*
X9961682Y-13962087D02*
X9942634Y-13971611D01*
X9942634Y-13971611D02*
X9895015Y-13971611D01*
X9895015Y-13971611D02*
X9875967Y-13962087D01*
X9875967Y-13962087D02*
X9866444Y-13952563D01*
X10104539Y-13771611D02*
X10123586Y-13771611D01*
X10123586Y-13771611D02*
X10142634Y-13781135D01*
X10142634Y-13781135D02*
X10152158Y-13790659D01*
X10152158Y-13790659D02*
X10161682Y-13809706D01*
X10161682Y-13809706D02*
X10171205Y-13847801D01*
X10171205Y-13847801D02*
X10171205Y-13895420D01*
X10171205Y-13895420D02*
X10161682Y-13933516D01*
X10161682Y-13933516D02*
X10152158Y-13952563D01*
X10152158Y-13952563D02*
X10142634Y-13962087D01*
X10142634Y-13962087D02*
X10123586Y-13971611D01*
X10123586Y-13971611D02*
X10104539Y-13971611D01*
X10104539Y-13971611D02*
X10085491Y-13962087D01*
X10085491Y-13962087D02*
X10075967Y-13952563D01*
X10075967Y-13952563D02*
X10066444Y-13933516D01*
X10066444Y-13933516D02*
X10056920Y-13895420D01*
X10056920Y-13895420D02*
X10056920Y-13847801D01*
X10056920Y-13847801D02*
X10066444Y-13809706D01*
X10066444Y-13809706D02*
X10075967Y-13790659D01*
X10075967Y-13790659D02*
X10085491Y-13781135D01*
X10085491Y-13781135D02*
X10104539Y-13771611D01*
X10256920Y-13971611D02*
X10256920Y-13838278D01*
X10256920Y-13857325D02*
X10266444Y-13847801D01*
X10266444Y-13847801D02*
X10285491Y-13838278D01*
X10285491Y-13838278D02*
X10314063Y-13838278D01*
X10314063Y-13838278D02*
X10333110Y-13847801D01*
X10333110Y-13847801D02*
X10342634Y-13866849D01*
X10342634Y-13866849D02*
X10342634Y-13971611D01*
X10342634Y-13866849D02*
X10352158Y-13847801D01*
X10352158Y-13847801D02*
X10371205Y-13838278D01*
X10371205Y-13838278D02*
X10399777Y-13838278D01*
X10399777Y-13838278D02*
X10418825Y-13847801D01*
X10418825Y-13847801D02*
X10428348Y-13866849D01*
X10428348Y-13866849D02*
X10428348Y-13971611D01*
X10523586Y-13971611D02*
X10523586Y-13838278D01*
X10523586Y-13857325D02*
X10533110Y-13847801D01*
X10533110Y-13847801D02*
X10552158Y-13838278D01*
X10552158Y-13838278D02*
X10580729Y-13838278D01*
X10580729Y-13838278D02*
X10599777Y-13847801D01*
X10599777Y-13847801D02*
X10609301Y-13866849D01*
X10609301Y-13866849D02*
X10609301Y-13971611D01*
X10609301Y-13866849D02*
X10618825Y-13847801D01*
X10618825Y-13847801D02*
X10637872Y-13838278D01*
X10637872Y-13838278D02*
X10666444Y-13838278D01*
X10666444Y-13838278D02*
X10685491Y-13847801D01*
X10685491Y-13847801D02*
X10695015Y-13866849D01*
X10695015Y-13866849D02*
X10695015Y-13971611D01*
X11085491Y-13762087D02*
X10914063Y-14019230D01*
X11342634Y-13771611D02*
X11361682Y-13771611D01*
X11361682Y-13771611D02*
X11380729Y-13781135D01*
X11380729Y-13781135D02*
X11390253Y-13790659D01*
X11390253Y-13790659D02*
X11399777Y-13809706D01*
X11399777Y-13809706D02*
X11409301Y-13847801D01*
X11409301Y-13847801D02*
X11409301Y-13895420D01*
X11409301Y-13895420D02*
X11399777Y-13933516D01*
X11399777Y-13933516D02*
X11390253Y-13952563D01*
X11390253Y-13952563D02*
X11380729Y-13962087D01*
X11380729Y-13962087D02*
X11361682Y-13971611D01*
X11361682Y-13971611D02*
X11342634Y-13971611D01*
X11342634Y-13971611D02*
X11323586Y-13962087D01*
X11323586Y-13962087D02*
X11314063Y-13952563D01*
X11314063Y-13952563D02*
X11304539Y-13933516D01*
X11304539Y-13933516D02*
X11295015Y-13895420D01*
X11295015Y-13895420D02*
X11295015Y-13847801D01*
X11295015Y-13847801D02*
X11304539Y-13809706D01*
X11304539Y-13809706D02*
X11314063Y-13790659D01*
X11314063Y-13790659D02*
X11323586Y-13781135D01*
X11323586Y-13781135D02*
X11342634Y-13771611D01*
X11495015Y-13952563D02*
X11504539Y-13962087D01*
X11504539Y-13962087D02*
X11495015Y-13971611D01*
X11495015Y-13971611D02*
X11485491Y-13962087D01*
X11485491Y-13962087D02*
X11495015Y-13952563D01*
X11495015Y-13952563D02*
X11495015Y-13971611D01*
X11628348Y-13771611D02*
X11647396Y-13771611D01*
X11647396Y-13771611D02*
X11666444Y-13781135D01*
X11666444Y-13781135D02*
X11675967Y-13790659D01*
X11675967Y-13790659D02*
X11685491Y-13809706D01*
X11685491Y-13809706D02*
X11695015Y-13847801D01*
X11695015Y-13847801D02*
X11695015Y-13895420D01*
X11695015Y-13895420D02*
X11685491Y-13933516D01*
X11685491Y-13933516D02*
X11675967Y-13952563D01*
X11675967Y-13952563D02*
X11666444Y-13962087D01*
X11666444Y-13962087D02*
X11647396Y-13971611D01*
X11647396Y-13971611D02*
X11628348Y-13971611D01*
X11628348Y-13971611D02*
X11609301Y-13962087D01*
X11609301Y-13962087D02*
X11599777Y-13952563D01*
X11599777Y-13952563D02*
X11590253Y-13933516D01*
X11590253Y-13933516D02*
X11580729Y-13895420D01*
X11580729Y-13895420D02*
X11580729Y-13847801D01*
X11580729Y-13847801D02*
X11590253Y-13809706D01*
X11590253Y-13809706D02*
X11599777Y-13790659D01*
X11599777Y-13790659D02*
X11609301Y-13781135D01*
X11609301Y-13781135D02*
X11628348Y-13771611D01*
X11771206Y-13790659D02*
X11780729Y-13781135D01*
X11780729Y-13781135D02*
X11799777Y-13771611D01*
X11799777Y-13771611D02*
X11847396Y-13771611D01*
X11847396Y-13771611D02*
X11866444Y-13781135D01*
X11866444Y-13781135D02*
X11875967Y-13790659D01*
X11875967Y-13790659D02*
X11885491Y-13809706D01*
X11885491Y-13809706D02*
X11885491Y-13828754D01*
X11885491Y-13828754D02*
X11875967Y-13857325D01*
X11875967Y-13857325D02*
X11761682Y-13971611D01*
X11761682Y-13971611D02*
X11885491Y-13971611D01*
X12066444Y-13771611D02*
X11971206Y-13771611D01*
X11971206Y-13771611D02*
X11961682Y-13866849D01*
X11961682Y-13866849D02*
X11971206Y-13857325D01*
X11971206Y-13857325D02*
X11990253Y-13847801D01*
X11990253Y-13847801D02*
X12037872Y-13847801D01*
X12037872Y-13847801D02*
X12056920Y-13857325D01*
X12056920Y-13857325D02*
X12066444Y-13866849D01*
X12066444Y-13866849D02*
X12075967Y-13885897D01*
X12075967Y-13885897D02*
X12075967Y-13933516D01*
X12075967Y-13933516D02*
X12066444Y-13952563D01*
X12066444Y-13952563D02*
X12056920Y-13962087D01*
X12056920Y-13962087D02*
X12037872Y-13971611D01*
X12037872Y-13971611D02*
X11990253Y-13971611D01*
X11990253Y-13971611D02*
X11971206Y-13962087D01*
X11971206Y-13962087D02*
X11961682Y-13952563D01*
X12247396Y-13771611D02*
X12209301Y-13771611D01*
X12209301Y-13771611D02*
X12190253Y-13781135D01*
X12190253Y-13781135D02*
X12180729Y-13790659D01*
X12180729Y-13790659D02*
X12161682Y-13819230D01*
X12161682Y-13819230D02*
X12152158Y-13857325D01*
X12152158Y-13857325D02*
X12152158Y-13933516D01*
X12152158Y-13933516D02*
X12161682Y-13952563D01*
X12161682Y-13952563D02*
X12171206Y-13962087D01*
X12171206Y-13962087D02*
X12190253Y-13971611D01*
X12190253Y-13971611D02*
X12228348Y-13971611D01*
X12228348Y-13971611D02*
X12247396Y-13962087D01*
X12247396Y-13962087D02*
X12256920Y-13952563D01*
X12256920Y-13952563D02*
X12266444Y-13933516D01*
X12266444Y-13933516D02*
X12266444Y-13885897D01*
X12266444Y-13885897D02*
X12256920Y-13866849D01*
X12256920Y-13866849D02*
X12247396Y-13857325D01*
X12247396Y-13857325D02*
X12228348Y-13847801D01*
X12228348Y-13847801D02*
X12190253Y-13847801D01*
X12190253Y-13847801D02*
X12171206Y-13857325D01*
X12171206Y-13857325D02*
X12161682Y-13866849D01*
X12161682Y-13866849D02*
X12152158Y-13885897D01*
X12342634Y-13771611D02*
X12342634Y-13809706D01*
X12418825Y-13771611D02*
X12418825Y-13809706D01*
X12714063Y-14047801D02*
X12704539Y-14038278D01*
X12704539Y-14038278D02*
X12685491Y-14009706D01*
X12685491Y-14009706D02*
X12675968Y-13990659D01*
X12675968Y-13990659D02*
X12666444Y-13962087D01*
X12666444Y-13962087D02*
X12656920Y-13914468D01*
X12656920Y-13914468D02*
X12656920Y-13876373D01*
X12656920Y-13876373D02*
X12666444Y-13828754D01*
X12666444Y-13828754D02*
X12675968Y-13800182D01*
X12675968Y-13800182D02*
X12685491Y-13781135D01*
X12685491Y-13781135D02*
X12704539Y-13752563D01*
X12704539Y-13752563D02*
X12714063Y-13743039D01*
X12828348Y-13771611D02*
X12847396Y-13771611D01*
X12847396Y-13771611D02*
X12866444Y-13781135D01*
X12866444Y-13781135D02*
X12875968Y-13790659D01*
X12875968Y-13790659D02*
X12885491Y-13809706D01*
X12885491Y-13809706D02*
X12895015Y-13847801D01*
X12895015Y-13847801D02*
X12895015Y-13895420D01*
X12895015Y-13895420D02*
X12885491Y-13933516D01*
X12885491Y-13933516D02*
X12875968Y-13952563D01*
X12875968Y-13952563D02*
X12866444Y-13962087D01*
X12866444Y-13962087D02*
X12847396Y-13971611D01*
X12847396Y-13971611D02*
X12828348Y-13971611D01*
X12828348Y-13971611D02*
X12809301Y-13962087D01*
X12809301Y-13962087D02*
X12799777Y-13952563D01*
X12799777Y-13952563D02*
X12790253Y-13933516D01*
X12790253Y-13933516D02*
X12780729Y-13895420D01*
X12780729Y-13895420D02*
X12780729Y-13847801D01*
X12780729Y-13847801D02*
X12790253Y-13809706D01*
X12790253Y-13809706D02*
X12799777Y-13790659D01*
X12799777Y-13790659D02*
X12809301Y-13781135D01*
X12809301Y-13781135D02*
X12828348Y-13771611D01*
X13133110Y-13971611D02*
X13133110Y-13771611D01*
X13218825Y-13971611D02*
X13218825Y-13866849D01*
X13218825Y-13866849D02*
X13209301Y-13847801D01*
X13209301Y-13847801D02*
X13190253Y-13838278D01*
X13190253Y-13838278D02*
X13161682Y-13838278D01*
X13161682Y-13838278D02*
X13142634Y-13847801D01*
X13142634Y-13847801D02*
X13133110Y-13857325D01*
X13342634Y-13971611D02*
X13323587Y-13962087D01*
X13323587Y-13962087D02*
X13314063Y-13952563D01*
X13314063Y-13952563D02*
X13304539Y-13933516D01*
X13304539Y-13933516D02*
X13304539Y-13876373D01*
X13304539Y-13876373D02*
X13314063Y-13857325D01*
X13314063Y-13857325D02*
X13323587Y-13847801D01*
X13323587Y-13847801D02*
X13342634Y-13838278D01*
X13342634Y-13838278D02*
X13371206Y-13838278D01*
X13371206Y-13838278D02*
X13390253Y-13847801D01*
X13390253Y-13847801D02*
X13399777Y-13857325D01*
X13399777Y-13857325D02*
X13409301Y-13876373D01*
X13409301Y-13876373D02*
X13409301Y-13933516D01*
X13409301Y-13933516D02*
X13399777Y-13952563D01*
X13399777Y-13952563D02*
X13390253Y-13962087D01*
X13390253Y-13962087D02*
X13371206Y-13971611D01*
X13371206Y-13971611D02*
X13342634Y-13971611D01*
X13523587Y-13971611D02*
X13504539Y-13962087D01*
X13504539Y-13962087D02*
X13495015Y-13943039D01*
X13495015Y-13943039D02*
X13495015Y-13771611D01*
X13675968Y-13962087D02*
X13656920Y-13971611D01*
X13656920Y-13971611D02*
X13618825Y-13971611D01*
X13618825Y-13971611D02*
X13599777Y-13962087D01*
X13599777Y-13962087D02*
X13590253Y-13943039D01*
X13590253Y-13943039D02*
X13590253Y-13866849D01*
X13590253Y-13866849D02*
X13599777Y-13847801D01*
X13599777Y-13847801D02*
X13618825Y-13838278D01*
X13618825Y-13838278D02*
X13656920Y-13838278D01*
X13656920Y-13838278D02*
X13675968Y-13847801D01*
X13675968Y-13847801D02*
X13685491Y-13866849D01*
X13685491Y-13866849D02*
X13685491Y-13885897D01*
X13685491Y-13885897D02*
X13590253Y-13904944D01*
X13761682Y-13962087D02*
X13780730Y-13971611D01*
X13780730Y-13971611D02*
X13818825Y-13971611D01*
X13818825Y-13971611D02*
X13837872Y-13962087D01*
X13837872Y-13962087D02*
X13847396Y-13943039D01*
X13847396Y-13943039D02*
X13847396Y-13933516D01*
X13847396Y-13933516D02*
X13837872Y-13914468D01*
X13837872Y-13914468D02*
X13818825Y-13904944D01*
X13818825Y-13904944D02*
X13790253Y-13904944D01*
X13790253Y-13904944D02*
X13771206Y-13895420D01*
X13771206Y-13895420D02*
X13761682Y-13876373D01*
X13761682Y-13876373D02*
X13761682Y-13866849D01*
X13761682Y-13866849D02*
X13771206Y-13847801D01*
X13771206Y-13847801D02*
X13790253Y-13838278D01*
X13790253Y-13838278D02*
X13818825Y-13838278D01*
X13818825Y-13838278D02*
X13837872Y-13847801D01*
X14085492Y-13895420D02*
X14237873Y-13895420D01*
X14161682Y-13971611D02*
X14161682Y-13819230D01*
X14475968Y-13790659D02*
X14485492Y-13781135D01*
X14485492Y-13781135D02*
X14504539Y-13771611D01*
X14504539Y-13771611D02*
X14552158Y-13771611D01*
X14552158Y-13771611D02*
X14571206Y-13781135D01*
X14571206Y-13781135D02*
X14580730Y-13790659D01*
X14580730Y-13790659D02*
X14590253Y-13809706D01*
X14590253Y-13809706D02*
X14590253Y-13828754D01*
X14590253Y-13828754D02*
X14580730Y-13857325D01*
X14580730Y-13857325D02*
X14466444Y-13971611D01*
X14466444Y-13971611D02*
X14590253Y-13971611D01*
X14818825Y-13962087D02*
X14837873Y-13971611D01*
X14837873Y-13971611D02*
X14875968Y-13971611D01*
X14875968Y-13971611D02*
X14895015Y-13962087D01*
X14895015Y-13962087D02*
X14904539Y-13943039D01*
X14904539Y-13943039D02*
X14904539Y-13933516D01*
X14904539Y-13933516D02*
X14895015Y-13914468D01*
X14895015Y-13914468D02*
X14875968Y-13904944D01*
X14875968Y-13904944D02*
X14847396Y-13904944D01*
X14847396Y-13904944D02*
X14828349Y-13895420D01*
X14828349Y-13895420D02*
X14818825Y-13876373D01*
X14818825Y-13876373D02*
X14818825Y-13866849D01*
X14818825Y-13866849D02*
X14828349Y-13847801D01*
X14828349Y-13847801D02*
X14847396Y-13838278D01*
X14847396Y-13838278D02*
X14875968Y-13838278D01*
X14875968Y-13838278D02*
X14895015Y-13847801D01*
X15018825Y-13971611D02*
X14999777Y-13962087D01*
X14999777Y-13962087D02*
X14990254Y-13943039D01*
X14990254Y-13943039D02*
X14990254Y-13771611D01*
X15123587Y-13971611D02*
X15104539Y-13962087D01*
X15104539Y-13962087D02*
X15095015Y-13952563D01*
X15095015Y-13952563D02*
X15085492Y-13933516D01*
X15085492Y-13933516D02*
X15085492Y-13876373D01*
X15085492Y-13876373D02*
X15095015Y-13857325D01*
X15095015Y-13857325D02*
X15104539Y-13847801D01*
X15104539Y-13847801D02*
X15123587Y-13838278D01*
X15123587Y-13838278D02*
X15152158Y-13838278D01*
X15152158Y-13838278D02*
X15171206Y-13847801D01*
X15171206Y-13847801D02*
X15180730Y-13857325D01*
X15180730Y-13857325D02*
X15190254Y-13876373D01*
X15190254Y-13876373D02*
X15190254Y-13933516D01*
X15190254Y-13933516D02*
X15180730Y-13952563D01*
X15180730Y-13952563D02*
X15171206Y-13962087D01*
X15171206Y-13962087D02*
X15152158Y-13971611D01*
X15152158Y-13971611D02*
X15123587Y-13971611D01*
X15247396Y-13838278D02*
X15323587Y-13838278D01*
X15275968Y-13771611D02*
X15275968Y-13943039D01*
X15275968Y-13943039D02*
X15285492Y-13962087D01*
X15285492Y-13962087D02*
X15304539Y-13971611D01*
X15304539Y-13971611D02*
X15323587Y-13971611D01*
X15380730Y-13962087D02*
X15399777Y-13971611D01*
X15399777Y-13971611D02*
X15437873Y-13971611D01*
X15437873Y-13971611D02*
X15456920Y-13962087D01*
X15456920Y-13962087D02*
X15466444Y-13943039D01*
X15466444Y-13943039D02*
X15466444Y-13933516D01*
X15466444Y-13933516D02*
X15456920Y-13914468D01*
X15456920Y-13914468D02*
X15437873Y-13904944D01*
X15437873Y-13904944D02*
X15409301Y-13904944D01*
X15409301Y-13904944D02*
X15390254Y-13895420D01*
X15390254Y-13895420D02*
X15380730Y-13876373D01*
X15380730Y-13876373D02*
X15380730Y-13866849D01*
X15380730Y-13866849D02*
X15390254Y-13847801D01*
X15390254Y-13847801D02*
X15409301Y-13838278D01*
X15409301Y-13838278D02*
X15437873Y-13838278D01*
X15437873Y-13838278D02*
X15456920Y-13847801D01*
X15533111Y-14047801D02*
X15542635Y-14038278D01*
X15542635Y-14038278D02*
X15561682Y-14009706D01*
X15561682Y-14009706D02*
X15571206Y-13990659D01*
X15571206Y-13990659D02*
X15580730Y-13962087D01*
X15580730Y-13962087D02*
X15590254Y-13914468D01*
X15590254Y-13914468D02*
X15590254Y-13876373D01*
X15590254Y-13876373D02*
X15580730Y-13828754D01*
X15580730Y-13828754D02*
X15571206Y-13800182D01*
X15571206Y-13800182D02*
X15561682Y-13781135D01*
X15561682Y-13781135D02*
X15542635Y-13752563D01*
X15542635Y-13752563D02*
X15533111Y-13743039D01*
D10*
X9099000Y-14184127D02*
X9139000Y-14144127D01*
X9099000Y-14104127D01*
X9059000Y-14144127D01*
X9099000Y-14184127D01*
D11*
X9437872Y-14035611D02*
X9456920Y-14035611D01*
X9456920Y-14035611D02*
X9475967Y-14045135D01*
X9475967Y-14045135D02*
X9485491Y-14054659D01*
X9485491Y-14054659D02*
X9495015Y-14073706D01*
X9495015Y-14073706D02*
X9504539Y-14111801D01*
X9504539Y-14111801D02*
X9504539Y-14159420D01*
X9504539Y-14159420D02*
X9495015Y-14197516D01*
X9495015Y-14197516D02*
X9485491Y-14216563D01*
X9485491Y-14216563D02*
X9475967Y-14226087D01*
X9475967Y-14226087D02*
X9456920Y-14235611D01*
X9456920Y-14235611D02*
X9437872Y-14235611D01*
X9437872Y-14235611D02*
X9418824Y-14226087D01*
X9418824Y-14226087D02*
X9409301Y-14216563D01*
X9409301Y-14216563D02*
X9399777Y-14197516D01*
X9399777Y-14197516D02*
X9390253Y-14159420D01*
X9390253Y-14159420D02*
X9390253Y-14111801D01*
X9390253Y-14111801D02*
X9399777Y-14073706D01*
X9399777Y-14073706D02*
X9409301Y-14054659D01*
X9409301Y-14054659D02*
X9418824Y-14045135D01*
X9418824Y-14045135D02*
X9437872Y-14035611D01*
X9590253Y-14216563D02*
X9599777Y-14226087D01*
X9599777Y-14226087D02*
X9590253Y-14235611D01*
X9590253Y-14235611D02*
X9580729Y-14226087D01*
X9580729Y-14226087D02*
X9590253Y-14216563D01*
X9590253Y-14216563D02*
X9590253Y-14235611D01*
X9714063Y-14121325D02*
X9695015Y-14111801D01*
X9695015Y-14111801D02*
X9685491Y-14102278D01*
X9685491Y-14102278D02*
X9675967Y-14083230D01*
X9675967Y-14083230D02*
X9675967Y-14073706D01*
X9675967Y-14073706D02*
X9685491Y-14054659D01*
X9685491Y-14054659D02*
X9695015Y-14045135D01*
X9695015Y-14045135D02*
X9714063Y-14035611D01*
X9714063Y-14035611D02*
X9752158Y-14035611D01*
X9752158Y-14035611D02*
X9771205Y-14045135D01*
X9771205Y-14045135D02*
X9780729Y-14054659D01*
X9780729Y-14054659D02*
X9790253Y-14073706D01*
X9790253Y-14073706D02*
X9790253Y-14083230D01*
X9790253Y-14083230D02*
X9780729Y-14102278D01*
X9780729Y-14102278D02*
X9771205Y-14111801D01*
X9771205Y-14111801D02*
X9752158Y-14121325D01*
X9752158Y-14121325D02*
X9714063Y-14121325D01*
X9714063Y-14121325D02*
X9695015Y-14130849D01*
X9695015Y-14130849D02*
X9685491Y-14140373D01*
X9685491Y-14140373D02*
X9675967Y-14159420D01*
X9675967Y-14159420D02*
X9675967Y-14197516D01*
X9675967Y-14197516D02*
X9685491Y-14216563D01*
X9685491Y-14216563D02*
X9695015Y-14226087D01*
X9695015Y-14226087D02*
X9714063Y-14235611D01*
X9714063Y-14235611D02*
X9752158Y-14235611D01*
X9752158Y-14235611D02*
X9771205Y-14226087D01*
X9771205Y-14226087D02*
X9780729Y-14216563D01*
X9780729Y-14216563D02*
X9790253Y-14197516D01*
X9790253Y-14197516D02*
X9790253Y-14159420D01*
X9790253Y-14159420D02*
X9780729Y-14140373D01*
X9780729Y-14140373D02*
X9771205Y-14130849D01*
X9771205Y-14130849D02*
X9752158Y-14121325D01*
X9914063Y-14035611D02*
X9933110Y-14035611D01*
X9933110Y-14035611D02*
X9952158Y-14045135D01*
X9952158Y-14045135D02*
X9961682Y-14054659D01*
X9961682Y-14054659D02*
X9971205Y-14073706D01*
X9971205Y-14073706D02*
X9980729Y-14111801D01*
X9980729Y-14111801D02*
X9980729Y-14159420D01*
X9980729Y-14159420D02*
X9971205Y-14197516D01*
X9971205Y-14197516D02*
X9961682Y-14216563D01*
X9961682Y-14216563D02*
X9952158Y-14226087D01*
X9952158Y-14226087D02*
X9933110Y-14235611D01*
X9933110Y-14235611D02*
X9914063Y-14235611D01*
X9914063Y-14235611D02*
X9895015Y-14226087D01*
X9895015Y-14226087D02*
X9885491Y-14216563D01*
X9885491Y-14216563D02*
X9875967Y-14197516D01*
X9875967Y-14197516D02*
X9866444Y-14159420D01*
X9866444Y-14159420D02*
X9866444Y-14111801D01*
X9866444Y-14111801D02*
X9875967Y-14073706D01*
X9875967Y-14073706D02*
X9885491Y-14054659D01*
X9885491Y-14054659D02*
X9895015Y-14045135D01*
X9895015Y-14045135D02*
X9914063Y-14035611D01*
X10104539Y-14035611D02*
X10123586Y-14035611D01*
X10123586Y-14035611D02*
X10142634Y-14045135D01*
X10142634Y-14045135D02*
X10152158Y-14054659D01*
X10152158Y-14054659D02*
X10161682Y-14073706D01*
X10161682Y-14073706D02*
X10171205Y-14111801D01*
X10171205Y-14111801D02*
X10171205Y-14159420D01*
X10171205Y-14159420D02*
X10161682Y-14197516D01*
X10161682Y-14197516D02*
X10152158Y-14216563D01*
X10152158Y-14216563D02*
X10142634Y-14226087D01*
X10142634Y-14226087D02*
X10123586Y-14235611D01*
X10123586Y-14235611D02*
X10104539Y-14235611D01*
X10104539Y-14235611D02*
X10085491Y-14226087D01*
X10085491Y-14226087D02*
X10075967Y-14216563D01*
X10075967Y-14216563D02*
X10066444Y-14197516D01*
X10066444Y-14197516D02*
X10056920Y-14159420D01*
X10056920Y-14159420D02*
X10056920Y-14111801D01*
X10056920Y-14111801D02*
X10066444Y-14073706D01*
X10066444Y-14073706D02*
X10075967Y-14054659D01*
X10075967Y-14054659D02*
X10085491Y-14045135D01*
X10085491Y-14045135D02*
X10104539Y-14035611D01*
X10256920Y-14235611D02*
X10256920Y-14102278D01*
X10256920Y-14121325D02*
X10266444Y-14111801D01*
X10266444Y-14111801D02*
X10285491Y-14102278D01*
X10285491Y-14102278D02*
X10314063Y-14102278D01*
X10314063Y-14102278D02*
X10333110Y-14111801D01*
X10333110Y-14111801D02*
X10342634Y-14130849D01*
X10342634Y-14130849D02*
X10342634Y-14235611D01*
X10342634Y-14130849D02*
X10352158Y-14111801D01*
X10352158Y-14111801D02*
X10371205Y-14102278D01*
X10371205Y-14102278D02*
X10399777Y-14102278D01*
X10399777Y-14102278D02*
X10418825Y-14111801D01*
X10418825Y-14111801D02*
X10428348Y-14130849D01*
X10428348Y-14130849D02*
X10428348Y-14235611D01*
X10523586Y-14235611D02*
X10523586Y-14102278D01*
X10523586Y-14121325D02*
X10533110Y-14111801D01*
X10533110Y-14111801D02*
X10552158Y-14102278D01*
X10552158Y-14102278D02*
X10580729Y-14102278D01*
X10580729Y-14102278D02*
X10599777Y-14111801D01*
X10599777Y-14111801D02*
X10609301Y-14130849D01*
X10609301Y-14130849D02*
X10609301Y-14235611D01*
X10609301Y-14130849D02*
X10618825Y-14111801D01*
X10618825Y-14111801D02*
X10637872Y-14102278D01*
X10637872Y-14102278D02*
X10666444Y-14102278D01*
X10666444Y-14102278D02*
X10685491Y-14111801D01*
X10685491Y-14111801D02*
X10695015Y-14130849D01*
X10695015Y-14130849D02*
X10695015Y-14235611D01*
X11085491Y-14026087D02*
X10914063Y-14283230D01*
X11342634Y-14035611D02*
X11361682Y-14035611D01*
X11361682Y-14035611D02*
X11380729Y-14045135D01*
X11380729Y-14045135D02*
X11390253Y-14054659D01*
X11390253Y-14054659D02*
X11399777Y-14073706D01*
X11399777Y-14073706D02*
X11409301Y-14111801D01*
X11409301Y-14111801D02*
X11409301Y-14159420D01*
X11409301Y-14159420D02*
X11399777Y-14197516D01*
X11399777Y-14197516D02*
X11390253Y-14216563D01*
X11390253Y-14216563D02*
X11380729Y-14226087D01*
X11380729Y-14226087D02*
X11361682Y-14235611D01*
X11361682Y-14235611D02*
X11342634Y-14235611D01*
X11342634Y-14235611D02*
X11323586Y-14226087D01*
X11323586Y-14226087D02*
X11314063Y-14216563D01*
X11314063Y-14216563D02*
X11304539Y-14197516D01*
X11304539Y-14197516D02*
X11295015Y-14159420D01*
X11295015Y-14159420D02*
X11295015Y-14111801D01*
X11295015Y-14111801D02*
X11304539Y-14073706D01*
X11304539Y-14073706D02*
X11314063Y-14054659D01*
X11314063Y-14054659D02*
X11323586Y-14045135D01*
X11323586Y-14045135D02*
X11342634Y-14035611D01*
X11495015Y-14216563D02*
X11504539Y-14226087D01*
X11504539Y-14226087D02*
X11495015Y-14235611D01*
X11495015Y-14235611D02*
X11485491Y-14226087D01*
X11485491Y-14226087D02*
X11495015Y-14216563D01*
X11495015Y-14216563D02*
X11495015Y-14235611D01*
X11628348Y-14035611D02*
X11647396Y-14035611D01*
X11647396Y-14035611D02*
X11666444Y-14045135D01*
X11666444Y-14045135D02*
X11675967Y-14054659D01*
X11675967Y-14054659D02*
X11685491Y-14073706D01*
X11685491Y-14073706D02*
X11695015Y-14111801D01*
X11695015Y-14111801D02*
X11695015Y-14159420D01*
X11695015Y-14159420D02*
X11685491Y-14197516D01*
X11685491Y-14197516D02*
X11675967Y-14216563D01*
X11675967Y-14216563D02*
X11666444Y-14226087D01*
X11666444Y-14226087D02*
X11647396Y-14235611D01*
X11647396Y-14235611D02*
X11628348Y-14235611D01*
X11628348Y-14235611D02*
X11609301Y-14226087D01*
X11609301Y-14226087D02*
X11599777Y-14216563D01*
X11599777Y-14216563D02*
X11590253Y-14197516D01*
X11590253Y-14197516D02*
X11580729Y-14159420D01*
X11580729Y-14159420D02*
X11580729Y-14111801D01*
X11580729Y-14111801D02*
X11590253Y-14073706D01*
X11590253Y-14073706D02*
X11599777Y-14054659D01*
X11599777Y-14054659D02*
X11609301Y-14045135D01*
X11609301Y-14045135D02*
X11628348Y-14035611D01*
X11761682Y-14035611D02*
X11885491Y-14035611D01*
X11885491Y-14035611D02*
X11818825Y-14111801D01*
X11818825Y-14111801D02*
X11847396Y-14111801D01*
X11847396Y-14111801D02*
X11866444Y-14121325D01*
X11866444Y-14121325D02*
X11875967Y-14130849D01*
X11875967Y-14130849D02*
X11885491Y-14149897D01*
X11885491Y-14149897D02*
X11885491Y-14197516D01*
X11885491Y-14197516D02*
X11875967Y-14216563D01*
X11875967Y-14216563D02*
X11866444Y-14226087D01*
X11866444Y-14226087D02*
X11847396Y-14235611D01*
X11847396Y-14235611D02*
X11790253Y-14235611D01*
X11790253Y-14235611D02*
X11771206Y-14226087D01*
X11771206Y-14226087D02*
X11761682Y-14216563D01*
X12075967Y-14235611D02*
X11961682Y-14235611D01*
X12018825Y-14235611D02*
X12018825Y-14035611D01*
X12018825Y-14035611D02*
X11999777Y-14064182D01*
X11999777Y-14064182D02*
X11980729Y-14083230D01*
X11980729Y-14083230D02*
X11961682Y-14092754D01*
X12256920Y-14035611D02*
X12161682Y-14035611D01*
X12161682Y-14035611D02*
X12152158Y-14130849D01*
X12152158Y-14130849D02*
X12161682Y-14121325D01*
X12161682Y-14121325D02*
X12180729Y-14111801D01*
X12180729Y-14111801D02*
X12228348Y-14111801D01*
X12228348Y-14111801D02*
X12247396Y-14121325D01*
X12247396Y-14121325D02*
X12256920Y-14130849D01*
X12256920Y-14130849D02*
X12266444Y-14149897D01*
X12266444Y-14149897D02*
X12266444Y-14197516D01*
X12266444Y-14197516D02*
X12256920Y-14216563D01*
X12256920Y-14216563D02*
X12247396Y-14226087D01*
X12247396Y-14226087D02*
X12228348Y-14235611D01*
X12228348Y-14235611D02*
X12180729Y-14235611D01*
X12180729Y-14235611D02*
X12161682Y-14226087D01*
X12161682Y-14226087D02*
X12152158Y-14216563D01*
X12342634Y-14035611D02*
X12342634Y-14073706D01*
X12418825Y-14035611D02*
X12418825Y-14073706D01*
X12714063Y-14311801D02*
X12704539Y-14302278D01*
X12704539Y-14302278D02*
X12685491Y-14273706D01*
X12685491Y-14273706D02*
X12675968Y-14254659D01*
X12675968Y-14254659D02*
X12666444Y-14226087D01*
X12666444Y-14226087D02*
X12656920Y-14178468D01*
X12656920Y-14178468D02*
X12656920Y-14140373D01*
X12656920Y-14140373D02*
X12666444Y-14092754D01*
X12666444Y-14092754D02*
X12675968Y-14064182D01*
X12675968Y-14064182D02*
X12685491Y-14045135D01*
X12685491Y-14045135D02*
X12704539Y-14016563D01*
X12704539Y-14016563D02*
X12714063Y-14007039D01*
X12875968Y-14102278D02*
X12875968Y-14235611D01*
X12828348Y-14026087D02*
X12780729Y-14168944D01*
X12780729Y-14168944D02*
X12904539Y-14168944D01*
X13066444Y-14102278D02*
X13066444Y-14235611D01*
X13018825Y-14026087D02*
X12971206Y-14168944D01*
X12971206Y-14168944D02*
X13095015Y-14168944D01*
X13323587Y-14235611D02*
X13323587Y-14035611D01*
X13409301Y-14235611D02*
X13409301Y-14130849D01*
X13409301Y-14130849D02*
X13399777Y-14111801D01*
X13399777Y-14111801D02*
X13380730Y-14102278D01*
X13380730Y-14102278D02*
X13352158Y-14102278D01*
X13352158Y-14102278D02*
X13333110Y-14111801D01*
X13333110Y-14111801D02*
X13323587Y-14121325D01*
X13533110Y-14235611D02*
X13514063Y-14226087D01*
X13514063Y-14226087D02*
X13504539Y-14216563D01*
X13504539Y-14216563D02*
X13495015Y-14197516D01*
X13495015Y-14197516D02*
X13495015Y-14140373D01*
X13495015Y-14140373D02*
X13504539Y-14121325D01*
X13504539Y-14121325D02*
X13514063Y-14111801D01*
X13514063Y-14111801D02*
X13533110Y-14102278D01*
X13533110Y-14102278D02*
X13561682Y-14102278D01*
X13561682Y-14102278D02*
X13580730Y-14111801D01*
X13580730Y-14111801D02*
X13590253Y-14121325D01*
X13590253Y-14121325D02*
X13599777Y-14140373D01*
X13599777Y-14140373D02*
X13599777Y-14197516D01*
X13599777Y-14197516D02*
X13590253Y-14216563D01*
X13590253Y-14216563D02*
X13580730Y-14226087D01*
X13580730Y-14226087D02*
X13561682Y-14235611D01*
X13561682Y-14235611D02*
X13533110Y-14235611D01*
X13714063Y-14235611D02*
X13695015Y-14226087D01*
X13695015Y-14226087D02*
X13685491Y-14207039D01*
X13685491Y-14207039D02*
X13685491Y-14035611D01*
X13866444Y-14226087D02*
X13847396Y-14235611D01*
X13847396Y-14235611D02*
X13809301Y-14235611D01*
X13809301Y-14235611D02*
X13790253Y-14226087D01*
X13790253Y-14226087D02*
X13780730Y-14207039D01*
X13780730Y-14207039D02*
X13780730Y-14130849D01*
X13780730Y-14130849D02*
X13790253Y-14111801D01*
X13790253Y-14111801D02*
X13809301Y-14102278D01*
X13809301Y-14102278D02*
X13847396Y-14102278D01*
X13847396Y-14102278D02*
X13866444Y-14111801D01*
X13866444Y-14111801D02*
X13875968Y-14130849D01*
X13875968Y-14130849D02*
X13875968Y-14149897D01*
X13875968Y-14149897D02*
X13780730Y-14168944D01*
X13952158Y-14226087D02*
X13971206Y-14235611D01*
X13971206Y-14235611D02*
X14009301Y-14235611D01*
X14009301Y-14235611D02*
X14028349Y-14226087D01*
X14028349Y-14226087D02*
X14037872Y-14207039D01*
X14037872Y-14207039D02*
X14037872Y-14197516D01*
X14037872Y-14197516D02*
X14028349Y-14178468D01*
X14028349Y-14178468D02*
X14009301Y-14168944D01*
X14009301Y-14168944D02*
X13980730Y-14168944D01*
X13980730Y-14168944D02*
X13961682Y-14159420D01*
X13961682Y-14159420D02*
X13952158Y-14140373D01*
X13952158Y-14140373D02*
X13952158Y-14130849D01*
X13952158Y-14130849D02*
X13961682Y-14111801D01*
X13961682Y-14111801D02*
X13980730Y-14102278D01*
X13980730Y-14102278D02*
X14009301Y-14102278D01*
X14009301Y-14102278D02*
X14028349Y-14111801D01*
X14104539Y-14311801D02*
X14114063Y-14302278D01*
X14114063Y-14302278D02*
X14133111Y-14273706D01*
X14133111Y-14273706D02*
X14142634Y-14254659D01*
X14142634Y-14254659D02*
X14152158Y-14226087D01*
X14152158Y-14226087D02*
X14161682Y-14178468D01*
X14161682Y-14178468D02*
X14161682Y-14140373D01*
X14161682Y-14140373D02*
X14152158Y-14092754D01*
X14152158Y-14092754D02*
X14142634Y-14064182D01*
X14142634Y-14064182D02*
X14133111Y-14045135D01*
X14133111Y-14045135D02*
X14114063Y-14016563D01*
X14114063Y-14016563D02*
X14104539Y-14007039D01*
M02*
