M48
; DRILL file {KiCad 7.0.10} date Tue Mar  5 00:47:07 2024
; FORMAT={-:-/ absolute / inch / decimal}
; #@! TF.CreationDate,2024-03-05T00:47:07+05:30
; #@! TF.GenerationSoftware,Kicad,Pcbnew,7.0.10
; #@! TF.FileFunction,Plated,1,2,PTH
FMAT,2
INCH
; #@! TA.AperFunction,Plated,PTH,ViaDrill
T1C0.0039
; #@! TA.AperFunction,Plated,PTH,ViaDrill
T2C0.0118
; #@! TA.AperFunction,Plated,PTH,ComponentDrill
T3C0.0236
; #@! TA.AperFunction,Plated,PTH,ComponentDrill
T4C0.0256
; #@! TA.AperFunction,Plated,PTH,ComponentDrill
T5C0.0315
%
G90
G05
T1
X4.0Y-3.6
X4.0495Y-4.5711
X4.081Y-4.5711
X4.1125Y-4.5711
X4.2893Y-3.3
T2
X3.8393Y-2.3416
X3.8666Y-2.3415
X3.8746Y-2.7413
X3.8809Y-2.8176
X3.8825Y-2.6105
X3.8841Y-2.6416
X3.8842Y-2.5754
X3.8843Y-2.6752
X3.8851Y-2.5422
X3.8852Y-2.7088
X3.8855Y-2.5092
X3.8863Y-2.4433
X3.8863Y-2.476
X3.8869Y-2.3752
X3.9Y-3.4
X3.9138Y-2.7416
X3.9473Y-2.7428
X3.9714Y-2.8812
X3.9725Y-2.7
X3.9811Y-4.4571
X3.9995Y-2.847
X4.0Y-2.7
X4.0142Y-4.4705
X4.0711Y-4.4302
X4.0713Y-2.8515
X4.0882Y-3.5213
X4.1Y-2.8482
X4.1Y-3.2
X4.1Y-3.2
X4.1Y-4.0
X4.1Y-4.0
X4.1098Y-4.4685
X4.1262Y-2.723
X4.1296Y-3.9457
X4.1367Y-2.905
X4.1508Y-2.7354
X4.1574Y-4.4674
X4.1672Y-2.6496
X4.182Y-2.7344
X4.1905Y-3.6483
X4.2Y-3.2
X4.2172Y-2.739
X4.2691Y-4.4691
X4.2811Y-2.7449
X4.2837Y-2.7175
X4.2856Y-2.4419
X4.296Y-2.6786
X4.317Y-2.475
X4.3173Y-2.6388
X4.3275Y-2.6934
X4.3432Y-2.5092
X4.3466Y-2.5424
X4.3472Y-2.4084
X4.3473Y-2.6092
X4.3486Y-2.6428
X4.3496Y-2.5738
X4.351Y-2.7078
X4.3564Y-2.2741
X4.3567Y-4.0437
X4.3569Y-2.3078
T5
X3.6808Y-2.2709
X3.6808Y-2.3496
X3.6808Y-2.4283
X3.6808Y-2.5071
X3.6808Y-2.5858
X3.6808Y-2.6646
X3.6808Y-2.7433
X3.6808Y-2.822
X3.6808Y-2.9008
X3.6808Y-2.9795
X3.6808Y-3.0583
X3.6808Y-3.137
X3.6808Y-3.2157
X3.6808Y-3.2945
X3.6808Y-3.3732
X3.6808Y-3.452
X3.6808Y-3.5307
X3.6808Y-3.6094
X3.6808Y-3.6882
X3.6808Y-3.7669
X3.6808Y-3.8457
X3.6808Y-3.9244
X4.5265Y-2.2709
X4.5265Y-2.3496
X4.5265Y-2.4283
X4.5265Y-2.5071
X4.5265Y-2.5858
X4.5265Y-2.6646
X4.5265Y-2.7433
X4.5265Y-2.822
X4.5265Y-2.9008
X4.5265Y-2.9795
X4.5265Y-3.0583
X4.5265Y-3.137
X4.5265Y-3.2157
X4.5265Y-3.2945
X4.5265Y-3.3732
X4.5265Y-3.452
X4.5265Y-3.5307
X4.5265Y-3.6094
X4.5265Y-3.6882
X4.5265Y-3.7669
X4.5265Y-3.8457
X4.5265Y-3.9244
T3
G00X3.6581Y-4.8255
M15
G01X3.6581Y-4.8531
M16
G05
G00X3.9868Y-4.8255
M15
G01X3.9868Y-4.8531
M16
G05
G00X4.2054Y-4.6806
M15
G01X4.2054Y-4.6373
M16
G05
G00X4.2054Y-4.8389
M15
G01X4.2054Y-4.8074
M16
G05
G00X4.5455Y-4.6806
M15
G01X4.5455Y-4.6373
M16
G05
G00X4.5455Y-4.8389
M15
G01X4.5455Y-4.8074
M16
G05
T4
G00X3.7349Y-4.7172
M15
G01X3.7349Y-4.7251
M16
G05
G00X3.9101Y-4.7172
M15
G01X3.9101Y-4.7251
M16
G05
M30
